<?xml version="1.0" encoding="UTF-8" standalone="no"?>
<svg width="161px" height="160px" viewBox="0 0 161 160" version="1.1" xmlns="http://www.w3.org/2000/svg" xmlns:xlink="http://www.w3.org/1999/xlink" xmlns:sketch="http://www.bohemiancoding.com/sketch/ns">
    <!-- Generator: Sketch 3.3.2 (12043) - http://www.bohemiancoding.com/sketch -->
    <title>@</title>
    <desc>Created with Sketch.</desc>
    <defs></defs>
    <g id="New" stroke="none" stroke-width="1" fill="none" fill-rule="evenodd" sketch:type="MSPage">
        <g id="1-1-1180" sketch:type="MSArtboardGroup" transform="translate(-176.000000, -480.000000)" fill-opacity="0.1" fill="#B959E4">
            <g id="Confirm-account" sketch:type="MSLayerGroup" transform="translate(170.000000, 472.000000)">
                <path d="M112.825,48.3 L125.075,48.3 L116.675,95.725 C115.741662,101.208361 115.712496,105.174988 116.5875,107.625 C117.462504,110.075012 119.416651,111.3 122.45,111.3 C125.483348,111.3 128.458319,110.600007 131.375,109.2 C134.291681,107.799993 136.916655,105.641681 139.25,102.725 C141.583345,99.8083187 143.479159,96.1333555 144.9375,91.7 C146.395841,87.2666445 147.125,82.016697 147.125,75.95 C147.125,67.1999562 145.666681,59.7333643 142.75,53.55 C139.833319,47.3666358 135.837525,42.2625201 130.7625,38.2375 C125.687475,34.2124799 119.708368,31.266676 112.825,29.4 C105.941632,27.533324 98.533373,26.6 90.6,26.6 C81.4999545,26.6 73.0417057,28.233317 65.225,31.5 C57.4082942,34.766683 50.6125289,39.2583047 44.8375,44.975 C39.0624711,50.6916953 34.541683,57.4874606 31.275,65.3625 C28.008317,73.2375394 26.375,81.7832873 26.375,91 C26.375,100.100045 27.7458196,108.266631 30.4875,115.5 C33.2291804,122.733369 37.2249737,128.887475 42.475,133.9625 C47.7250262,139.037525 54.2291279,142.94582 61.9875,145.6875 C69.7458721,148.42918 78.6416165,149.8 88.675,149.8 C92.0583502,149.8 95.9083117,149.391671 100.225,148.575 C104.541688,147.758329 108.449982,146.533342 111.95,144.9 L117.375,161.7 C112.591643,164.033345 107.720858,165.666662 102.7625,166.6 C97.8041419,167.533338 92.1166987,168 85.7,168 C74.3832767,168 63.9125481,166.366683 54.2875,163.1 C44.6624519,159.833317 36.3208686,154.991699 29.2625,148.575 C22.2041314,142.158301 16.6916865,134.195881 12.725,124.6875 C8.7583135,115.179119 6.775,104.183396 6.775,91.7 C6.775,78.9832698 9.04997725,67.491718 13.6,57.225 C18.1500227,46.958282 24.2749615,38.2083695 31.975,30.975 C39.6750385,23.7416305 48.5999492,18.1708529 58.75,14.2625 C68.9000507,10.3541471 79.6332767,8.4 90.95,8.4 C101.683387,8.4 111.658287,9.94581787 120.875,13.0375 C130.091713,16.1291821 138.083299,20.5624711 144.85,26.3375 C151.6167,32.1125289 156.924981,39.1707916 160.775,47.5125 C164.625019,55.8542084 166.55,65.3332802 166.55,75.95 C166.55,83.416704 165.237513,90.416634 162.6125,96.95 C159.987487,103.483366 156.370856,109.141643 151.7625,113.925 C147.154144,118.708357 141.787531,122.499986 135.6625,125.3 C129.537469,128.100014 122.975035,129.5 115.975,129.5 C113.058319,129.5 110.345846,129.17917 107.8375,128.5375 C105.329154,127.89583 103.229175,126.816674 101.5375,125.3 C99.8458249,123.783326 98.5916707,121.800012 97.775,119.35 C96.9583292,116.899988 96.7249982,113.866685 97.075,110.25 L96.375,110.25 C94.6249912,112.700012 92.7291769,115.091655 90.6875,117.425 C88.6458231,119.758345 86.4000122,121.829158 83.95,123.6375 C81.4999877,125.445842 78.8166812,126.874995 75.9,127.925 C72.9833187,128.975005 69.7750175,129.5 66.275,129.5 C63.474986,129.5 60.7916795,128.887506 58.225,127.6625 C55.6583205,126.437494 53.441676,124.716678 51.575,122.5 C49.708324,120.283322 48.2208389,117.600016 47.1125,114.45 C46.0041611,111.299984 45.45,107.800019 45.45,103.95 C45.45,96.7166305 46.616655,89.6875341 48.95,82.8625 C51.283345,76.0374659 54.4624799,70.0000263 58.4875,64.75 C62.5125201,59.4999737 67.1791401,55.2708494 72.4875,52.0625 C77.7958599,48.8541506 83.4249702,47.25 89.375,47.25 C93.4583537,47.25 96.899986,47.8624939 99.7,49.0875 C102.500014,50.3125061 105.066655,51.9166567 107.4,53.9 L112.825,48.3 Z M101.8,69.475 C100.283326,68.1916603 98.7083415,67.2000035 97.075,66.5 C95.4416585,65.7999965 93.4000122,65.45 90.95,65.45 C87.4499825,65.45 84.2125149,66.4416567 81.2375,68.425 C78.2624851,70.4083432 75.6958441,72.9749842 73.5375,76.125 C71.3791559,79.2750157 69.7166725,82.8041471 68.55,86.7125 C67.3833275,90.6208529 66.8,94.441648 66.8,98.175 C66.8,102.025019 67.5874921,105.174988 69.1625,107.625 C70.7375079,110.075012 73.4499807,111.3 77.3,111.3 C78.9333415,111.3 80.683324,110.804172 82.55,109.8125 C84.416676,108.820828 86.2249912,107.508342 87.975,105.875 C89.7250087,104.241658 91.4166585,102.375011 93.05,100.275 C94.6833415,98.1749895 96.1416602,95.958345 97.425,93.625 L101.8,69.475 Z" id="@" sketch:type="MSShapeGroup"></path>
            </g>
        </g>
    </g>
</svg>