<?xml version="1.0" encoding="UTF-8" standalone="no"?>
<svg width="60px" height="60px" viewBox="0 0 60 60" version="1.1" xmlns="http://www.w3.org/2000/svg" xmlns:xlink="http://www.w3.org/1999/xlink" xmlns:sketch="http://www.bohemiancoding.com/sketch/ns">
    <!-- Generator: Sketch 3.3.2 (12043) - http://www.bohemiancoding.com/sketch -->
    <title>ic-radar</title>
    <desc>Created with Sketch.</desc>
    <defs></defs>
    <g id="Landing" stroke="none" stroke-width="1" fill="none" fill-rule="evenodd" sketch:type="MSPage">
        <g id="landing-300-719" sketch:type="MSArtboardGroup" transform="translate(-130.000000, -917.000000)">
            <g id="2" sketch:type="MSLayerGroup" transform="translate(0.000000, 847.000000)">
                <g id="1" transform="translate(15.000000, 70.000000)" sketch:type="MSShapeGroup">
                    <g id="ic-radar" transform="translate(115.000000, 0.000000)">
                        <path d="M30,60 C13.4314575,60 0,46.5685425 0,30 C0,13.4314575 13.4314575,0 30,0 C46.5685425,0 60,13.4314575 60,30 C60,46.5685425 46.5685425,60 30,60 L30,60 L30,60 Z M30,57 C44.9116882,57 57,44.9116882 57,30 C57,15.0883118 44.9116882,3 30,3 C15.0883118,3 3,15.0883118 3,30 C3,44.9116882 15.0883118,57 30,57 L30,57 L30,57 Z M30,51 C18.4020203,51 9,41.5979797 9,30 C9,18.4020203 18.4020203,9 30,9 C41.5979797,9 51,18.4020203 51,30 C51,41.5979797 41.5979797,51 30,51 L30,51 L30,51 Z M30,48 C39.9411255,48 48,39.9411255 48,30 C48,20.0588745 39.9411255,12 30,12 C20.0588745,12 12,20.0588745 12,30 C12,39.9411255 20.0588745,48 30,48 L30,48 L30,48 Z M30,39 C34.9705627,39 39,34.9705627 39,30 C39,25.0294373 34.9705627,21 30,21 C25.0294373,21 21,25.0294373 21,30 C21,34.9705627 25.0294373,39 30,39 L30,39 L30,39 Z M30,42 L30,42 C23.372583,42 18,36.627417 18,30 C18,23.372583 23.372583,18 30,18 C36.627417,18 42,23.372583 42,30 C42,36.627417 36.627417,42 30,42 L30,42 L30,42 Z" id="Shape" fill="#65D470"></path>
                        <path d="M27.1715729,32.8284271 L51.1715729,56.8284271 L56.8284271,51.1715729 L32.8284271,27.1715729 L27.1715729,32.8284271 L27.1715729,32.8284271 Z" id="Path" fill="#FFFFFF"></path>
                        <path d="M30.7770648,32.8983851 L52.9393398,55.0606602 L55.0606602,52.9393398 L32.8983851,30.7770648 C32.9646641,30.5292249 33,30.268739 33,30 C33,28.3431458 31.6568542,27 30,27 C28.3431458,27 27,28.3431458 27,30 C27,31.6568542 28.3431458,33 30,33 C30.268739,33 30.5292249,32.9646641 30.7770648,32.8983851 Z" id="Shape" fill="#B959E4"></path>
                        <circle id="Oval-1308" fill="#FFFFFF" cx="13" cy="39" r="5"></circle>
                        <circle id="Oval-108-Copy-5" fill="#F8BC5F" cx="13" cy="39" r="3"></circle>
                    </g>
                </g>
            </g>
        </g>
    </g>
</svg>