<?xml version="1.0" encoding="UTF-8" standalone="no"?>
<svg width="119px" height="64px" viewBox="0 0 119 64" version="1.1" xmlns="http://www.w3.org/2000/svg" xmlns:xlink="http://www.w3.org/1999/xlink" xmlns:sketch="http://www.bohemiancoding.com/sketch/ns">
    <!-- Generator: Sketch 3.3.2 (12043) - http://www.bohemiancoding.com/sketch -->
    <title>ic-pattern-2</title>
    <desc>Created with Sketch.</desc>
    <defs></defs>
    <g id="New" stroke="none" stroke-width="1" fill="none" fill-rule="evenodd" sketch:type="MSPage">
        <g id="4-1-300-719" sketch:type="MSArtboardGroup" transform="translate(-186.000000, -654.000000)">
            <g id="Plans" sketch:type="MSLayerGroup" transform="translate(15.000000, 364.000000)">
                <g id="1" transform="translate(0.000000, 29.000000)" sketch:type="MSShapeGroup">
                    <g id="ic-pattern-2" transform="translate(241.500000, 297.500000) rotate(-90.000000) translate(-241.500000, -297.500000) translate(196.500000, 221.500000)">
                        <g id="ic-content-copy-2" transform="translate(30.826749, 16.964476) rotate(-10.000000) translate(-30.826749, -16.964476) translate(15.826749, 2.464476)">
                            <path d="M1,-3.23296945e-13 L29.8,-3.23296945e-13 L29.8,28.7619048 L1,28.7619048 L1,-3.23296945e-13 Z" id="Shape"></path>
                            <path d="M9.4,9.58730159 L26.2,9.58730159 L26.2,23.968254 L9.4,23.968254 L9.4,9.58730159 Z M11.8,11.984127 L23.8,11.984127 L23.8,21.5714286 L11.8,21.5714286 L11.8,11.984127 Z" id="Rectangle-2" fill="rgba(0,0,0,0.05)"></path>
                            <path d="M19,11.984127 L21.4,11.984127 L21.4,4.79365079 L4.6,4.79365079 L4.6,19.1746032 L11.8,19.1746032 L11.8,16.7777778 L7,16.7777778 L7,7.19047619 L19,7.19047619 L19,11.984127 Z" id="Rectangle-2-Copy" fill="rgba(0,0,0,0.05)"></path>
                        </g>
                        <g id="ic-cleaned-comments-copy-2" transform="translate(71.644441, 52.948678) rotate(-15.000000) translate(-71.644441, -52.948678) translate(56.644441, 38.448678)">
                            <path d="M1,9.80548975e-13 L29.8,9.80548975e-13 L29.8,28.7619048 L1,28.7619048 L1,9.80548975e-13 Z" id="Shape"></path>
                            <path d="M7,8.3791628 L7,5.9823374 L8.2,5.9823374 L22.6,5.9823374 L23.8,5.9823374 L23.8,8.3791628 L22.6,8.38888889 L22.6,21.5811547 C22.6,22.8995132 21.5176596,23.968254 20.1897638,23.968254 L10.6102362,23.968254 C9.27909952,23.968254 8.2,22.8975953 8.2,21.5811547 L8.2,8.3791628 L7,8.3791628 Z M10.6,8.3791628 L10.6,21.5811547 C10.6,21.5703422 10.6010963,21.5714286 10.6102362,21.5714286 L20.1897638,21.5714286 C20.1982399,21.5714286 20.2,21.5696869 20.2,21.5811547 L20.2,8.3791628 C20.2,8.38997528 20.1989037,8.38888889 20.1897638,8.38888889 L10.6102362,8.38888889 C10.6017601,8.38888889 10.6,8.39063052 10.6,8.3791628 Z M11.8,3.5952381 L19,3.5952381 L19,5.99206349 L11.8,5.99206349 L11.8,3.5952381 Z" id="Shape" fill="rgba(0,0,0,0.05)"></path>
                        </g>
                        <g id="ic-blocked-copy-2" transform="translate(0.000000, 59.920635)">
                            <path d="M0,0 L28.8,0 L28.8,28.7619048 L0,28.7619048 L0,0 Z" id="Shape"></path>
                            <path d="M20.2688975,10.2146295 C21.1070508,11.3900552 21.6,12.8280127 21.6,14.3809524 C21.6,18.3521427 18.3764502,21.5714286 14.4,21.5714286 C12.8450035,21.5714286 11.4051414,21.0791315 10.2281588,20.2420868 L20.2688975,10.2146295 Z M18.5718412,8.51981797 C17.3948586,7.6827733 15.9549965,7.19047619 14.4,7.19047619 C10.4235498,7.19047619 7.2,10.409762 7.2,14.3809524 C7.2,15.933892 7.69294916,17.3718495 8.53110249,18.5472753 L18.5718412,8.51981797 Z M14.4,23.968254 C9.0980664,23.968254 4.8,19.6758728 4.8,14.3809524 C4.8,9.08603192 9.0980664,4.79365079 14.4,4.79365079 C19.7019336,4.79365079 24,9.08603192 24,14.3809524 C24,19.6758728 19.7019336,23.968254 14.4,23.968254 Z" id="Path" fill="rgba(0,0,0,0.05)"></path>
                        </g>
                        <g id="ic-photos-copy-2" transform="translate(61.138846, 104.674740) rotate(-65.000000) translate(-61.138846, -104.674740) translate(46.138846, 90.174740)">
                            <path d="M1,4.54747351e-13 L29.8,4.54747351e-13 L29.8,28.7619048 L1,28.7619048 L1,4.54747351e-13 Z" id="Shape"></path>
                            <path d="M5.8,4.79365079 L14.2,4.79365079 L14.2,13.1825397 L5.8,13.1825397 L5.8,4.79365079 Z M16.6,4.79365079 L25,4.79365079 L25,13.1825397 L16.6,13.1825397 L16.6,4.79365079 Z M5.8,15.5793651 L14.2,15.5793651 L14.2,23.968254 L5.8,23.968254 L5.8,15.5793651 Z M16.6,15.5793651 L25,15.5793651 L25,23.968254 L16.6,23.968254 L16.6,15.5793651 Z M8.2,7.19047619 L11.8,7.19047619 L11.8,10.7857143 L8.2,10.7857143 L8.2,7.19047619 Z M19,7.19047619 L22.6,7.19047619 L22.6,10.7857143 L19,10.7857143 L19,7.19047619 Z M8.2,17.9761905 L11.8,17.9761905 L11.8,21.5714286 L8.2,21.5714286 L8.2,17.9761905 Z M19,17.9761905 L22.6,17.9761905 L22.6,21.5714286 L19,21.5714286 L19,17.9761905 Z" id="Rectangle-9" fill="rgba(0,0,0,0.05)"></path>
                        </g>
                        <g id="ic-list-copy" transform="translate(18.739925, 133.916517) rotate(-10.000000) translate(-18.739925, -133.916517) translate(3.739925, 118.916517)">
                            <path d="M1,1 L29.8,1 L29.8,29.7619048 L1,29.7619048 L1,1 Z" id="Shape"></path>
                            <path d="M5.8,6.99206349 L25,6.99206349 L25,9.38888889 L5.8,9.38888889 L5.8,6.99206349 Z M5.8,14.1825397 L25,14.1825397 L25,16.5793651 L5.8,16.5793651 L5.8,14.1825397 Z M5.8,21.3730159 L25,21.3730159 L25,23.7698413 L5.8,23.7698413 L5.8,21.3730159 Z" id="Rectangle-275" fill="rgba(0,0,0,0.05)"></path>
                        </g>
                    </g>
                </g>
            </g>
        </g>
    </g>
</svg>