<?xml version="1.0" encoding="UTF-8" standalone="no"?>
<svg width="75px" height="123px" viewBox="0 0 75 123" version="1.1" xmlns="http://www.w3.org/2000/svg" xmlns:xlink="http://www.w3.org/1999/xlink" xmlns:sketch="http://www.bohemiancoding.com/sketch/ns">
    <!-- Generator: Sketch 3.3.2 (12043) - http://www.bohemiancoding.com/sketch -->
    <title>ic-pattern-1</title>
    <desc>Created with Sketch.</desc>
    <defs></defs>
    <g id="Guides-&amp;-Graphics" stroke="none" stroke-width="1" fill="none" fill-rule="evenodd" sketch:type="MSPage">
        <g id="ic-pattern-1" sketch:type="MSLayerGroup" transform="translate(-11.000000, -9.000000)">
            <g id="ic-not-spam-copy" transform="translate(21.132633, 55.044137) rotate(-134.000000) translate(-21.132633, -55.044137) translate(6.632633, 40.044137)" sketch:type="MSShapeGroup">
                <path d="M1.27897692e-13,1 L28.8571429,1 L28.8571429,29.7179487 L1.27897692e-13,29.7179487 L1.27897692e-13,1 Z" id="Shape"></path>
                <path d="M14.4285714,24.9316239 C9.11611812,24.9316239 4.80952381,20.6458027 4.80952381,15.3589744 C4.80952381,10.072146 9.11611812,5.78632479 14.4285714,5.78632479 C19.7410247,5.78632479 24.047619,10.072146 24.047619,15.3589744 C24.047619,20.6458027 19.7410247,24.9316239 14.4285714,24.9316239 Z M14.4285714,22.5384615 C18.4129114,22.5384615 21.6428571,19.3240956 21.6428571,15.3589744 C21.6428571,11.3938531 18.4129114,8.17948718 14.4285714,8.17948718 C10.4442314,8.17948718 7.21428571,11.3938531 7.21428571,15.3589744 C7.21428571,19.3240956 10.4442314,22.5384615 14.4285714,22.5384615 Z M13.2261905,17.7521368 L15.6309524,17.7521368 L15.6309524,20.1452991 L13.2261905,20.1452991 L13.2261905,17.7521368 Z M13.2261905,10.5726496 L15.6309524,10.5726496 L15.6309524,16.5555556 L13.2261905,16.5555556 L13.2261905,10.5726496 Z" id="Shape" fill="rgba(0,0,0,0.05)"></path>
            </g>
            <g id="ic-comments-copy-12" transform="translate(20.238095, 94.333333)" sketch:type="MSShapeGroup">
                <path d="M0,0 L28.8571429,0 L28.8571429,28.7179487 L0,28.7179487 L0,0 Z" id="Shape"></path>
                <path d="M5.96844587,19.1705233 C5.2287358,17.9142236 4.80952381,16.4800352 4.80952381,14.957265 C4.80952381,10.0008634 9.25069919,5.98290598 14.7291667,5.98290598 C20.2076341,5.98290598 24.6488095,10.0008634 24.6488095,14.957265 C24.6488095,19.9136666 20.2076341,23.9316239 14.7291667,23.9316239 C12.9374895,23.9316239 11.2567559,23.501883 9.80602893,22.7501182 L5.41071429,23.3333333 L5.96844587,19.1705233 Z" id="Oval-1" stroke="rgba(0,0,0,0.05)" stroke-width="2.4"></path>
            </g>
            <g id="ic-unblock-copy-3" transform="translate(62.900471, 18.918433) rotate(74.000000) translate(-62.900471, -18.918433) translate(48.400471, 3.918433)" sketch:type="MSShapeGroup">
                <path d="M9.59232693e-14,1 L28.8571429,1 L28.8571429,29.7179487 L9.59232693e-14,29.7179487 L9.59232693e-14,1 Z" id="Shape"></path>
                <path d="M14.4189524,5.78632479 C9.1092381,5.78632479 4.80952381,10.0748718 4.80952381,15.3589744 C4.80952381,20.6430769 9.1092381,24.9316239 14.4189524,24.9316239 C19.7382857,24.9316239 24.047619,20.6430769 24.047619,15.3589744 C24.047619,10.0748718 19.7382857,5.78632479 14.4189524,5.78632479 Z M14.4285714,22.5384615 C10.4426786,22.5384615 7.21428571,19.325641 7.21428571,15.3589744 C7.21428571,11.3923077 10.4426786,8.17948718 14.4285714,8.17948718 C18.4144643,8.17948718 21.6428571,11.3923077 21.6428571,15.3589744 C21.6428571,19.325641 18.4144643,22.5384615 14.4285714,22.5384615 Z M18.6368754,13.2051282 C18.6368754,12.4105983 17.9923992,11.7692308 17.1940183,11.7692308 C16.3956373,11.7692308 15.7511611,12.4105983 15.7511611,13.2051282 C15.7511611,13.9996581 16.3956373,14.6410256 17.1940183,14.6410256 C17.9923992,14.6410256 18.6368754,13.9996581 18.6368754,13.2051282 Z M11.6630952,14.6410256 C12.4614762,14.6410256 13.1059524,13.9996581 13.1059524,13.2051282 C13.1059524,12.4105983 12.4614762,11.7692308 11.6630952,11.7692308 C10.8647143,11.7692308 10.2202381,12.4105983 10.2202381,13.2051282 C10.2202381,13.9996581 10.8647143,14.6410256 11.6630952,14.6410256 Z M18.8774398,16.7948681 L9.97982061,16.7948681 C10.6763074,18.7476886 12.4001123,20.1452954 14.4286302,20.1452954 C16.4571481,20.1452954 18.180953,18.7476886 18.8774398,16.7948681 Z" id="Shape-Copy" fill="rgba(0,0,0,0.05)"></path>
            </g>
            <g id="ic-options-copy" transform="translate(65.073155, 73.650336) rotate(10.000000) translate(-65.073155, -73.650336) translate(50.573155, 58.650336)" sketch:type="MSShapeGroup">
                <rect id="Rectangle-1136" x="7.10542736e-14" y="1" width="28.8571429" height="28.7179487"></rect>
                <path d="M7.21428571,17.7521368 C8.54239904,17.7521368 9.61904762,16.6806815 9.61904762,15.3589744 C9.61904762,14.0372673 8.54239904,12.965812 7.21428571,12.965812 C5.88617239,12.965812 4.80952381,14.0372673 4.80952381,15.3589744 C4.80952381,16.6806815 5.88617239,17.7521368 7.21428571,17.7521368 Z M14.4285714,17.7521368 C15.7566848,17.7521368 16.8333333,16.6806815 16.8333333,15.3589744 C16.8333333,14.0372673 15.7566848,12.965812 14.4285714,12.965812 C13.1004581,12.965812 12.0238095,14.0372673 12.0238095,15.3589744 C12.0238095,16.6806815 13.1004581,17.7521368 14.4285714,17.7521368 Z M21.6428571,17.7521368 C22.9709705,17.7521368 24.047619,16.6806815 24.047619,15.3589744 C24.047619,14.0372673 22.9709705,12.965812 21.6428571,12.965812 C20.3147438,12.965812 19.2380952,14.0372673 19.2380952,15.3589744 C19.2380952,16.6806815 20.3147438,17.7521368 21.6428571,17.7521368 Z" id="Oval-226" fill="rgba(0,0,0,0.05)"></path>
            </g>
            <g id="ic-delete-copy" transform="translate(78.250115, 124.382127) rotate(-5.000000) translate(-78.250115, -124.382127) translate(63.750115, 109.882127)" sketch:type="MSShapeGroup">
                <rect id="Rectangle-1137" x="9.9475983e-14" y="4.26325641e-14" width="28.8571429" height="28.7179487"></rect>
                <path d="M16.1289949,14.3589744 L21.2906879,19.4957697 L19.5902645,21.187991 L14.4285714,16.0511957 L9.26687839,21.187991 L7.56645494,19.4957697 L12.728148,14.3589744 L7.56645494,9.22217905 L9.26687839,7.5299577 L14.4285714,12.666753 L19.5902645,7.5299577 L21.2906879,9.22217905 L16.1289949,14.3589744 Z" id="Shape" fill="rgba(0,0,0,0.05)"></path>
            </g>
        </g>
    </g>
</svg>