<?xml version="1.0" encoding="UTF-8" standalone="no"?>
<svg width="77px" height="139px" viewBox="0 0 77 139" version="1.1" xmlns="http://www.w3.org/2000/svg" xmlns:xlink="http://www.w3.org/1999/xlink" xmlns:sketch="http://www.bohemiancoding.com/sketch/ns">
    <!-- Generator: Sketch 3.3.2 (12043) - http://www.bohemiancoding.com/sketch -->
    <title>ic-pattern-2</title>
    <desc>Created with Sketch.</desc>
    <defs></defs>
    <g id="Guides-&amp;-Graphics" stroke="none" stroke-width="1" fill="none" fill-rule="evenodd" sketch:type="MSPage">
        <g id="ic-pattern-2" sketch:type="MSLayerGroup" transform="translate(-4.000000, -7.000000)">
            <g id="ic-content-copy-2" transform="translate(30.739925, 17.472072) rotate(-10.000000) translate(-30.739925, -17.472072) translate(15.739925, 2.472072)" sketch:type="MSShapeGroup">
                <path d="M1,1 L29.8,1 L29.8,29.7619048 L1,29.7619048 L1,1 Z" id="Shape"></path>
                <path d="M9.4,10.5873016 L26.2,10.5873016 L26.2,24.968254 L9.4,24.968254 L9.4,10.5873016 Z M11.8,12.984127 L23.8,12.984127 L23.8,22.5714286 L11.8,22.5714286 L11.8,12.984127 Z" id="Rectangle-2" fill="rgba(0,0,0,0.05)"></path>
                <path d="M19,12.984127 L21.4,12.984127 L21.4,5.79365079 L4.6,5.79365079 L4.6,20.1746032 L11.8,20.1746032 L11.8,17.7777778 L7,17.7777778 L7,8.19047619 L19,8.19047619 L19,12.984127 Z" id="Rectangle-2-Copy" fill="rgba(0,0,0,0.05)"></path>
            </g>
            <g id="ic-cleaned-comments-copy-2" transform="translate(72.127404, 53.819268) rotate(-15.000000) translate(-72.127404, -53.819268) translate(57.627404, 39.319268)" sketch:type="MSShapeGroup">
                <path d="M3.55271368e-14,1.0658141e-13 L28.8,1.0658141e-13 L28.8,28.7619048 L3.55271368e-14,28.7619048 L3.55271368e-14,1.0658141e-13 Z" id="Shape"></path>
                <path d="M6,8.3791628 L6,5.9823374 L7.2,5.9823374 L21.6,5.9823374 L22.8,5.9823374 L22.8,8.3791628 L21.6,8.38888889 L21.6,21.5811547 C21.6,22.8995132 20.5176596,23.968254 19.1897638,23.968254 L9.61023624,23.968254 C8.27909952,23.968254 7.2,22.8975953 7.2,21.5811547 L7.2,8.3791628 L6,8.3791628 Z M9.6,8.3791628 L9.6,21.5811547 C9.6,21.5703422 9.60109631,21.5714286 9.61023624,21.5714286 L19.1897638,21.5714286 C19.1982399,21.5714286 19.2,21.5696869 19.2,21.5811547 L19.2,8.3791628 C19.2,8.38997528 19.1989037,8.38888889 19.1897638,8.38888889 L9.61023624,8.38888889 C9.60176014,8.38888889 9.6,8.39063052 9.6,8.3791628 Z M10.8,3.5952381 L18,3.5952381 L18,5.99206349 L10.8,5.99206349 L10.8,3.5952381 Z" id="Shape" fill="rgba(0,0,0,0.05)"></path>
            </g>
            <g id="ic-blocked-copy-2" transform="translate(0.000000, 60.920635)" sketch:type="MSShapeGroup">
                <path d="M0,0 L28.8,0 L28.8,28.7619048 L0,28.7619048 L0,0 Z" id="Shape"></path>
                <path d="M20.2688975,10.2146295 C21.1070508,11.3900552 21.6,12.8280127 21.6,14.3809524 C21.6,18.3521427 18.3764502,21.5714286 14.4,21.5714286 C12.8450035,21.5714286 11.4051414,21.0791315 10.2281588,20.2420868 L20.2688975,10.2146295 Z M18.5718412,8.51981797 C17.3948586,7.6827733 15.9549965,7.19047619 14.4,7.19047619 C10.4235498,7.19047619 7.2,10.409762 7.2,14.3809524 C7.2,15.933892 7.69294916,17.3718495 8.53110249,18.5472753 L18.5718412,8.51981797 Z M14.4,23.968254 C9.0980664,23.968254 4.8,19.6758728 4.8,14.3809524 C4.8,9.08603192 9.0980664,4.79365079 14.4,4.79365079 C19.7019336,4.79365079 24,9.08603192 24,14.3809524 C24,19.6758728 19.7019336,23.968254 14.4,23.968254 Z" id="Path" fill="rgba(0,0,0,0.05)"></path>
            </g>
            <g id="ic-photos-copy-2" transform="translate(61.350156, 105.221586) rotate(-65.000000) translate(-61.350156, -105.221586) translate(46.850156, 90.721586)" sketch:type="MSShapeGroup">
                <path d="M-2.27373675e-13,-3.41060513e-13 L28.8,-3.41060513e-13 L28.8,28.7619048 L-2.27373675e-13,28.7619048 L-2.27373675e-13,-3.41060513e-13 Z" id="Shape"></path>
                <path d="M4.8,4.79365079 L13.2,4.79365079 L13.2,13.1825397 L4.8,13.1825397 L4.8,4.79365079 Z M15.6,4.79365079 L24,4.79365079 L24,13.1825397 L15.6,13.1825397 L15.6,4.79365079 Z M4.8,15.5793651 L13.2,15.5793651 L13.2,23.968254 L4.8,23.968254 L4.8,15.5793651 Z M15.6,15.5793651 L24,15.5793651 L24,23.968254 L15.6,23.968254 L15.6,15.5793651 Z M7.2,7.19047619 L10.8,7.19047619 L10.8,10.7857143 L7.2,10.7857143 L7.2,7.19047619 Z M18,7.19047619 L21.6,7.19047619 L21.6,10.7857143 L18,10.7857143 L18,7.19047619 Z M7.2,17.9761905 L10.8,17.9761905 L10.8,21.5714286 L7.2,21.5714286 L7.2,17.9761905 Z M18,17.9761905 L21.6,17.9761905 L21.6,21.5714286 L18,21.5714286 L18,17.9761905 Z" id="Rectangle-9" fill="rgba(0,0,0,0.05)"></path>
            </g>
            <g id="ic-list-copy" transform="translate(19.319153, 135.322096) rotate(-10.000000) translate(-19.319153, -135.322096) translate(4.819153, 120.822096)" sketch:type="MSShapeGroup">
                <path d="M3.26849658e-13,1.27897692e-13 L28.8,1.27897692e-13 L28.8,28.7619048 L3.26849658e-13,28.7619048 L3.26849658e-13,1.27897692e-13 Z" id="Shape"></path>
                <path d="M4.8,5.99206349 L24,5.99206349 L24,8.38888889 L4.8,8.38888889 L4.8,5.99206349 Z M4.8,13.1825397 L24,13.1825397 L24,15.5793651 L4.8,15.5793651 L4.8,13.1825397 Z M4.8,20.3730159 L24,20.3730159 L24,22.7698413 L4.8,22.7698413 L4.8,20.3730159 Z" id="Rectangle-275" fill="rgba(0,0,0,0.05)"></path>
            </g>
        </g>
    </g>
</svg>