<?xml version="1.0" encoding="UTF-8" standalone="no"?>
<svg width="518px" height="544px" viewBox="0 0 518 544" version="1.1" xmlns="http://www.w3.org/2000/svg" xmlns:xlink="http://www.w3.org/1999/xlink" xmlns:sketch="http://www.bohemiancoding.com/sketch/ns">
    <!-- Generator: Sketch 3.3.2 (12043) - http://www.bohemiancoding.com/sketch -->
    <title>img-gift</title>
    <desc>Created with Sketch.</desc>
    <defs>
        <path id="path-1" d="M43.1666667,109.5 L0,157.5 L518,157.5 L474.833333,109.5 L43.1666667,109.5 Z"></path>
        <rect id="path-2" x="0" y="0.5" width="480" height="312"></rect>
        <rect id="path-4" x="0" y="157.5" width="518" height="111"></rect>
        <path id="path-5" d="M207,142 C180.924664,71.1282901 137.722235,21.0166772 81.8383626,3.13085298 C40.1178183,-10.2219496 -14.6403993,20.3876385 3.61233973,71.1282867 C24.5822639,129.422417 126.166443,136.658879 207,142 Z"></path>
        <path id="path-6" d="M375,142 C348.924664,71.1282901 305.722235,21.0166772 249.838363,3.13085298 C208.117818,-10.2219496 153.359601,20.3876385 171.61234,71.1282867 C192.582264,129.422417 294.166443,136.658879 375,142 Z"></path>
    </defs>
    <g id="Landing" stroke="none" stroke-width="1" fill="none" fill-rule="evenodd" sketch:type="MSPage">
        <g id="landing-1180" sketch:type="MSArtboardGroup" transform="translate(-752.000000, -4068.000000)">
            <g id="7" sketch:type="MSLayerGroup" transform="translate(170.000000, 4088.500000)">
                <g id="img-gift" transform="translate(582.000000, 0.000000)">
                    <g id="Group">
                        <g id="Rectangle-129">
                            <use fill="#E45959" sketch:type="MSShapeGroup" xlink:href="#path-1"></use>
                            <use fill-opacity="0.15" fill="#000000" xlink:href="#path-1"></use>
                        </g>
                        <g transform="translate(19.000000, 211.000000)">
                            <mask id="mask-3" sketch:name="Rectangle 126" fill="white">
                                <use xlink:href="#path-2"></use>
                            </mask>
                            <use id="Rectangle-126" fill="#E45959" sketch:type="MSShapeGroup" xlink:href="#path-2"></use>
                            <path d="M120.157354,198.697946 C112.816998,195.319811 104.907846,194.913825 97.7186901,196.977784 C90.5319338,199.041744 84.0687731,204.666883 79.6168002,211.169705 C75.1660272,204.666883 68.7028665,199.041744 61.5161102,196.977784 C54.3293539,194.913825 46.4178019,195.319811 39.0774466,198.697946 C30.773497,202.517268 24.7711335,208.688025 21.7783517,216.02394 C18.7867699,223.359854 18.77357,231.877353 22.5439471,240.347917 C30.610298,258.467109 79.3612017,300.992415 79.6168002,301.718732 C79.8723986,300.992415 128.624502,258.467109 136.689653,240.347917 C140.46243,231.87618 140.44803,223.359854 137.456449,216.02394 C134.464867,208.688025 128.462503,202.518441 120.157354,198.697946 Z" id="Mask-10" fill-opacity="0.08" fill="#000000" sketch:type="MSShapeGroup" mask="url(#mask-3)">
                                <g transform="translate(79.571252, 248.498548) rotate(-15.000000) translate(-79.571252, -248.498548) "></g>
                            </path>
                            <path d="M205.794092,12.5882217 C198.453737,9.21008712 190.544585,8.80410081 183.355429,10.8680601 C176.168672,12.9320194 169.705512,18.5571592 165.253539,25.0599803 C160.802766,18.5571592 154.339605,12.9320194 147.152849,10.8680601 C139.966093,8.80410081 132.054541,9.21008712 124.714185,12.5882217 C116.410236,16.4075438 110.407872,22.578301 107.41509,29.9142154 C104.423509,37.2501299 104.410309,45.7676287 108.180686,54.2381928 C116.247037,72.3573852 164.99794,114.882691 165.253539,115.609007 C165.509137,114.882691 214.261241,72.3573852 222.326392,54.2381928 C226.099169,45.7664554 226.084769,37.2501299 223.093187,29.9142154 C220.101605,22.578301 214.099242,16.4087172 205.794092,12.5882217 Z" id="Mask-11" fill-opacity="0.08" fill="#000000" sketch:type="MSShapeGroup" mask="url(#mask-3)">
                                <g transform="translate(165.207991, 62.388824) rotate(-10.000000) translate(-165.207991, -62.388824) "></g>
                            </path>
                            <path d="M451.794092,74.5882217 C444.453737,71.2100871 436.544585,70.8041008 429.355429,72.8680601 C422.168672,74.9320194 415.705512,80.5571592 411.253539,87.0599803 C406.802766,80.5571592 400.339605,74.9320194 393.152849,72.8680601 C385.966093,70.8041008 378.054541,71.2100871 370.714185,74.5882217 C362.410236,78.4075438 356.407872,84.578301 353.41509,91.9142154 C350.423509,99.2501299 350.410309,107.767629 354.180686,116.238193 C362.247037,134.357385 410.99794,176.882691 411.253539,177.609007 C411.509137,176.882691 460.261241,134.357385 468.326392,116.238193 C472.099169,107.766455 472.084769,99.2501299 469.093187,91.9142154 C466.101605,84.578301 460.099242,78.4087172 451.794092,74.5882217 Z" id="Mask-12" fill-opacity="0.08" fill="#000000" sketch:type="MSShapeGroup" mask="url(#mask-3)">
                                <g transform="translate(411.207991, 124.388824) rotate(10.000000) translate(-411.207991, -124.388824) "></g>
                            </path>
                            <path d="M349.794092,266.588222 C342.453737,263.210087 334.544585,262.804101 327.355429,264.86806 C320.168672,266.932019 313.705512,272.557159 309.253539,279.05998 C304.802766,272.557159 298.339605,266.932019 291.152849,264.86806 C283.966093,262.804101 276.054541,263.210087 268.714185,266.588222 C260.410236,270.407544 254.407872,276.578301 251.41509,283.914215 C248.423509,291.25013 248.410309,299.767629 252.180686,308.238193 C260.247037,326.357385 308.99794,368.882691 309.253539,369.609007 C309.509137,368.882691 358.261241,326.357385 366.326392,308.238193 C370.099169,299.766455 370.084769,291.25013 367.093187,283.914215 C364.101605,276.578301 358.099242,270.408717 349.794092,266.588222 Z" id="Mask-13" fill-opacity="0.08" fill="#000000" sketch:type="MSShapeGroup" mask="url(#mask-3)">
                                <g transform="translate(309.207991, 316.388824) rotate(-10.000000) translate(-309.207991, -316.388824) "></g>
                            </path>
                        </g>
                        <g id="Rectangle-127">
                            <use fill="#E45959" sketch:type="MSShapeGroup" xlink:href="#path-4"></use>
                            <use fill-opacity="0.05" fill="#000000" xlink:href="#path-4"></use>
                        </g>
                        <rect id="Rectangle-130" fill="#E4D259" sketch:type="MSShapeGroup" x="221" y="110.5" width="76" height="413"></rect>
                        <rect id="Rectangle-131" fill="#D2C152" sketch:type="MSShapeGroup" x="221" y="109.5" width="76" height="48"></rect>
                        <rect id="Rectangle-128" fill-opacity="0.08" fill="#000000" sketch:type="MSShapeGroup" x="19" y="268.5" width="480" height="20"></rect>
                        <g id="Oval-114-+-Oval-115" transform="translate(72.000000, 0.000000)">
                            <g id="Oval-114">
                                <use stroke="#D2C152" stroke-width="33.6" sketch:type="MSShapeGroup" xlink:href="#path-5"></use>
                                <use stroke="none" xlink:href="#path-5"></use>
                            </g>
                            <g id="Oval-115">
                                <use stroke="#D2C152" stroke-width="33.6" sketch:type="MSShapeGroup" transform="translate(271.500000, 71.000000) scale(-1, 1) translate(-271.500000, -71.000000) " xlink:href="#path-6"></use>
                                <use stroke="none" xlink:href="#path-6"></use>
                            </g>
                        </g>
                    </g>
                </g>
            </g>
        </g>
    </g>
</svg>