<?xml version="1.0" encoding="UTF-8" standalone="no"?>
<svg width="831px" height="474px" viewBox="0 0 831 474" version="1.1" xmlns="http://www.w3.org/2000/svg" xmlns:xlink="http://www.w3.org/1999/xlink" xmlns:sketch="http://www.bohemiancoding.com/sketch/ns">
    <!-- Generator: Sketch 3.3.2 (12043) - http://www.bohemiancoding.com/sketch -->
    <title>img-robots</title>
    <desc>Created with Sketch.</desc>
    <defs>
        <path d="M147,282 L259,282 L259,365.375098 L259,365.375098 C236.495883,370.64051 220,390.412918 220,414 L321,414 C321,390.189507 304.190146,370.266292 282,365.229393 L282,282 L282,282 L304,282 L304,170.577492 C311.902961,173.083293 320.307879,177.141828 328,183 C342.255707,194.562629 354.372107,212.365419 356,242 C341.71758,246.754788 331.113061,259.940175 331,276 L347,276 C347.077497,264.876307 356.016385,256.081855 367,256 C378.083864,256.081855 387.009939,264.872114 387,276 C387.009939,286.524835 378.083864,295.310899 367,295 L367,311 C386.903168,310.987419 403,295.193472 403,276 C402.991458,260.288262 392.878087,247.346117 379,243 C377.165631,206.108231 361.256717,180.664292 342,166 C329.419068,156.189361 316.118415,150.376496 304,147.223623 L304,147.223623 L304,134 L101,134 L101,146.724566 C88.3553741,149.745594 74.2769105,155.646636 61,166 C41.7432831,180.664292 25.8343687,206.108231 24,243 C10.1219133,247.346117 0.00854169902,260.288262 0,276 C0,295.193472 16.0968318,310.987419 36,311 L36,295 C24.916136,295.310899 15.9900606,286.524835 16,276 C15.9900606,264.872114 24.916136,256.081855 36,256 C46.9836155,256.081855 55.9225035,264.876307 56,276 L72,276 C71.886939,259.940175 61.2824196,246.754788 47,242 C48.6278925,212.365419 60.7442926,194.562629 75,183 C83.3447594,176.64479 92.5284022,172.407555 101,169.97306 L101,282 L124,282 L124,365.151542 C100.986251,370.057877 84,390.064903 84,414 L185,414 C185,390.548507 168.693222,370.867956 147,365.467338 L147,282 L147,282 Z M146,0 L259,0 L259,112 L146,112 L146,0 Z M270,67 C285.463973,67 298,54.463973 298,39 C298,23.536027 285.463973,11 270,11 C270,33.4 270,50.2 270,67 Z M135,67 C119.536027,67 107,54.463973 107,39 C107,23.536027 119.536027,11 135,11 C135,33.4 135,50.2 135,67 Z M158,179 L181,179 L181,201 L158,201 L158,179 Z M191,179 L214,179 L214,201 L191,201 L191,179 Z M225,179 L248,179 L248,201 L225,201 L225,179 Z M158,213 L181,213 L181,235 L158,235 L158,213 Z M191,213 L214,213 L214,235 L191,235 L191,213 Z M225,213 L248,213 L248,235 L225,235 L225,213 Z M175,73 C184.388841,73 192,65.3888407 192,56 C192,46.6111593 184.388841,39 175,39 C165.611159,39 158,46.6111593 158,56 C158,65.3888407 165.611159,73 175,73 Z M231,73 C240.388841,73 248,65.3888407 248,56 C248,46.6111593 240.388841,39 231,39 C221.611159,39 214,46.6111593 214,56 C214,65.3888407 221.611159,73 231,73 Z" id="path-1"></path>
    </defs>
    <g id="Landing" stroke="none" stroke-width="1" fill="none" fill-rule="evenodd" sketch:type="MSPage">
        <g id="landing-1180" sketch:type="MSArtboardGroup" transform="translate(-24.000000, -3023.000000)">
            <g id="5" sketch:type="MSLayerGroup" transform="translate(-81.000000, 2933.000000)">
                <g id="img-robots" transform="translate(105.000000, 90.000000)">
                    <path d="M147,282 L259,282 L259,365.375098 L259,365.375098 C236.495883,370.64051 220,390.412918 220,414 L321,414 C321,390.189507 304.190146,370.266292 282,365.229393 L282,282 L282,282 L304,282 L304,170.577492 C311.902961,173.083293 320.307879,177.141828 328,183 C342.255707,194.562629 354.372107,212.365419 356,242 C341.71758,246.754788 331.113061,259.940175 331,276 L347,276 C347.077497,264.876307 356.016385,256.081855 367,256 C378.083864,256.081855 387.009939,264.872114 387,276 C387.009939,286.524835 378.083864,295.310899 367,295 L367,311 C386.903168,310.987419 403,295.193472 403,276 C402.991458,260.288262 392.878087,247.346117 379,243 C377.165631,206.108231 361.256717,180.664292 342,166 C329.419068,156.189361 316.118415,150.376496 304,147.223623 L304,147.223623 L304,134 L101,134 L101,146.724566 C88.3553741,149.745594 74.2769105,155.646636 61,166 C41.7432831,180.664292 25.8343687,206.108231 24,243 C10.1219133,247.346117 0.00854169902,260.288262 0,276 C0,295.193472 16.0968318,310.987419 36,311 L36,295 C24.916136,295.310899 15.9900606,286.524835 16,276 C15.9900606,264.872114 24.916136,256.081855 36,256 C46.9836155,256.081855 55.9225035,264.876307 56,276 L72,276 C71.886939,259.940175 61.2824196,246.754788 47,242 C48.6278925,212.365419 60.7442926,194.562629 75,183 C83.3447594,176.64479 92.5284022,172.407555 101,169.97306 L101,282 L124,282 L124,365.151542 C100.986251,370.057877 84,390.064903 84,414 L185,414 C185,390.548507 168.693222,370.867956 147,365.467338 L147,282 L147,282 Z M146,0 L259,0 L259,112 L146,112 L146,0 Z M270,67 C285.463973,67 298,54.463973 298,39 C298,23.536027 285.463973,11 270,11 C270,33.4 270,50.2 270,67 Z M135,67 C119.536027,67 107,54.463973 107,39 C107,23.536027 119.536027,11 135,11 C135,33.4 135,50.2 135,67 Z M158,179 L181,179 L181,201 L158,201 L158,179 Z M191,179 L214,179 L214,201 L191,201 L191,179 Z M225,179 L248,179 L248,201 L225,201 L225,179 Z M158,213 L181,213 L181,235 L158,235 L158,213 Z M191,213 L214,213 L214,235 L191,235 L191,213 Z M225,213 L248,213 L248,235 L225,235 L225,213 Z M175,73 C184.388841,73 192,65.3888407 192,56 C192,46.6111593 184.388841,39 175,39 C165.611159,39 158,46.6111593 158,56 C158,65.3888407 165.611159,73 175,73 Z M231,73 C240.388841,73 248,65.3888407 248,56 C248,46.6111593 240.388841,39 231,39 C221.611159,39 214,46.6111593 214,56 C214,65.3888407 221.611159,73 231,73 Z" id="robot" fill="#65D470" sketch:type="MSShapeGroup"></path>
                    <g id="robot-2" transform="translate(428.000000, 60.000000)">
                        <mask id="mask-2" sketch:name="Mask" fill="white">
                            <use xlink:href="#path-1"></use>
                        </mask>
                        <use id="Mask" fill="#B959E4" sketch:type="MSShapeGroup" xlink:href="#path-1"></use>
                        <rect id="Rectangle-3742" fill="#F8BC5F" sketch:type="MSShapeGroup" mask="url(#mask-2)" x="65" y="90" width="172" height="167"></rect>
                    </g>
                </g>
            </g>
        </g>
    </g>
</svg>