<?xml version="1.0" encoding="UTF-8" standalone="no"?>
<svg width="20px" height="20px" viewBox="0 0 20 20" version="1.1" xmlns="http://www.w3.org/2000/svg" xmlns:xlink="http://www.w3.org/1999/xlink" xmlns:sketch="http://www.bohemiancoding.com/sketch/ns">
    <!-- Generator: Sketch 3.3.2 (12043) - http://www.bohemiancoding.com/sketch -->
    <title>logo</title>
    <desc>Created with Sketch.</desc>
    <defs></defs>
    <g id="Landing" stroke="none" stroke-width="1" fill="none" fill-rule="evenodd" sketch:type="MSPage">
        <g id="landing-300-719" sketch:type="MSArtboardGroup" transform="translate(-212.000000, -30.000000)" fill="#FFFFFF">
            <g id="Menu" sketch:type="MSLayerGroup" transform="translate(15.000000, 13.000000)">
                <g id="normal" transform="translate(177.000000, 2.000000)" sketch:type="MSShapeGroup">
                    <path d="M37.6927902,35 L22.3072098,35 C21.0331028,35 20,33.9665347 20,32.691533 L20,17.3072302 C20,16.0329352 21.0331028,15 22.3072098,15 L37.6927902,15 C38.9670739,15 40,16.0329352 40,17.3072302 L40,32.691533 C40,33.9665347 38.9670739,35 37.6927902,35 L37.6927902,35 Z M29.9994643,20.5555556 C27.7289011,20.5555556 25.888542,22.3957681 25.888542,24.6663834 C25.888542,26.936621 27.7289011,28.7777778 29.9994643,28.7777778 C32.2700274,28.7777778 34.1107642,26.936621 34.1107642,24.6663834 C34.1107642,22.3957681 32.2700274,20.5555556 29.9994643,20.5555556 L29.9994643,20.5555556 Z M37.7349065,17.8887664 C37.7349065,17.520812 37.440157,17.2222222 37.0761792,17.2222222 L35.1024159,17.2222222 C34.7388916,17.2222222 34.4444444,17.520812 34.4444444,17.8887664 L34.4444444,19.8890114 C34.4444444,20.2569658 34.7388916,20.5555556 35.1024159,20.5555556 L37.0761792,20.5555556 C37.440157,20.5555556 37.7349065,20.2569658 37.7349065,19.8890114 L37.7349065,17.8887664 Z M36.0618014,23.8888889 L37.7774444,23.8888889 L37.7774444,32.0376467 C37.7774444,32.446165 37.4290938,32.7777778 36.9989253,32.7777778 L23.000408,32.7777778 C22.5702396,32.7777778 22.2218889,32.446165 22.2218889,32.0376467 L22.2218889,23.8888889 L23.9375222,23.8888889 C23.9052097,24.1434538 23.8885556,24.402909 23.8885556,24.6662591 C23.8885556,28.0409366 26.6242245,30.7777913 29.9993859,30.7777913 C33.3745474,30.7777913 36.1107778,28.0409366 36.1107778,24.6662591 C36.1107778,24.402909 36.0941202,24.1434538 36.0618014,23.8888889 Z" id="logo"></path>
                </g>
            </g>
        </g>
    </g>
</svg>