<?xml version="1.0" encoding="UTF-8" standalone="no"?>
<svg width="540px" height="593px" viewBox="0 0 540 593" version="1.1" xmlns="http://www.w3.org/2000/svg" xmlns:xlink="http://www.w3.org/1999/xlink" xmlns:sketch="http://www.bohemiancoding.com/sketch/ns">
    <!-- Generator: Sketch 3.3.2 (12043) - http://www.bohemiancoding.com/sketch -->
    <title>img-spam</title>
    <desc>Created with Sketch.</desc>
    <defs>
        <path d="M25.75,65 C25.75,54.99995 27.41665,46.00004 30.75,38 C34.08335,29.99996 38.7083038,23.2500275 44.625,17.75 C50.5416962,12.2499725 57.4582937,8.000015 65.375,5 C73.2917063,1.999985 81.91662,0.5 91.25,0.5 C98.250035,0.5 104.74997,1.5833225 110.75,3.75 C116.75003,5.9166775 121.958311,9.29164375 126.375,13.875 C130.791689,18.4583562 134.291654,24.2082988 136.875,31.125 C139.458346,38.0417012 140.75,46.2499525 140.75,55.75 C140.75,69.0834 139.041684,81.3749438 135.625,92.625 C132.208316,103.875056 127.625029,114.083288 121.875,123.25 C116.124971,132.416712 109.458371,140.583298 101.875,147.75 C94.2916287,154.916703 86.333375,160.999975 78,166 C69.666625,171.000025 61.2083763,174.874986 52.625,177.625 C44.0416237,180.375014 35.916705,181.999998 28.25,182.5 L26.75,157 C35.9167125,155.333325 44.5416263,152.708351 52.625,149.125 C60.7083737,145.541649 67.9999675,141.291691 74.5,136.375 C81.0000325,131.458309 86.6249763,125.958364 91.375,119.875 C96.1250237,113.791636 99.83332,107.500033 102.5,101 C97.6666425,104.833353 92.416695,107.708324 86.75,109.625 C81.083305,111.541676 74.25004,112.5 66.25,112.5 C61.58331,112.5 56.8333575,111.625009 52,109.875 C47.1666425,108.124991 42.8333525,105.375019 39,101.625 C35.1666475,97.8749813 32.0000125,92.9583637 29.5,86.875 C26.9999875,80.7916363 25.75,73.5000425 25.75,65 L25.75,65 Z M56.25,60.25 C56.25,65.0833575 56.8749938,69.0833175 58.125,72.25 C59.3750062,75.4166825 61.0833225,77.99999 63.25,80 C65.4166775,82.00001 67.7916538,83.4166625 70.375,84.25 C72.9583462,85.0833375 75.6666525,85.5 78.5,85.5 C84.833365,85.5 90.7499725,84.50001 96.25,82.5 C101.750027,80.49999 106.083318,77.83335 109.25,74.5 C109.750002,72.6666575 110.208331,70.08335 110.625,66.75 C111.041669,63.41665 111.25,61.0000075 111.25,59.5 C111.25,49.9999525 109.375019,42.2916963 105.625,36.375 C101.874981,30.4583038 95.7500425,27.5 87.25,27.5 C83.24998,27.5 79.416685,28.1249938 75.75,29.375 C72.083315,30.6250062 68.7916813,32.58332 65.875,35.25 C62.9583187,37.91668 60.6250088,41.3333125 58.875,45.5 C57.1249912,49.6666875 56.25,54.583305 56.25,60.25 L56.25,60.25 Z M152.75,179 L235,44.25 L247.75,32 L233.25,34.5 L174.5,34.5 L180.75,4 L288.25,4 L286.25,13.5 L185,179 L152.75,179 Z M287.5,54.25 C287.5,45.249955 289.041651,37.4167 292.125,30.75 C295.208349,24.0833 299.249975,18.5416888 304.25,14.125 C309.250025,9.70831125 314.791636,6.4166775 320.875,4.25 C326.958364,2.0833225 332.99997,1 339,1 C350.000055,1 358.374971,3.54164125 364.125,8.625 C369.875029,13.7083588 372.75,21.1666175 372.75,31 C372.75,40.5000475 371.333347,48.7082988 368.5,55.625 C365.666653,62.5417012 361.833358,68.2499775 357,72.75 C352.166642,77.2500225 346.625031,80.5833225 340.375,82.75 C334.124969,84.9166775 327.6667,86 321,86 C310.666615,86 302.50003,83.1250287 296.5,77.375 C290.49997,71.6249713 287.5,63.916715 287.5,54.25 L287.5,54.25 Z M315,52.75 C314.833332,56.416685 315.666657,59.3749888 317.5,61.625 C319.333343,63.8750112 321.999982,65 325.5,65 C331.000027,65 335.666647,62.1250287 339.5,56.375 C343.333353,50.6249713 345.25,43.250045 345.25,34.25 C345.25,26.0832925 341.666703,22 334.5,22 C331.666653,22 329.083345,22.833325 326.75,24.5 C324.416655,26.166675 322.333343,28.3749862 320.5,31.125 C318.666657,33.8750138 317.250005,37.1249813 316.25,40.875 C315.249995,44.6250187 314.833332,48.5833125 315,52.75 L315,52.75 Z M378.5,146.75 C378.5,137.749955 380.041651,129.9167 383.125,123.25 C386.208349,116.5833 390.249975,111.041689 395.25,106.625 C400.250025,102.208311 405.791636,98.9166775 411.875,96.75 C417.958364,94.5833225 423.99997,93.5 430,93.5 C441.000055,93.5 449.374971,96.0416412 455.125,101.125 C460.875029,106.208359 463.75,113.666618 463.75,123.5 C463.75,133.000047 462.333348,141.208299 459.5,148.125 C456.666653,155.041701 452.833357,160.749978 448,165.25 C443.166643,169.750022 437.625031,173.083323 431.375,175.25 C425.124969,177.416677 418.6667,178.5 412,178.5 C401.666615,178.5 393.50003,175.625029 387.5,169.875 C381.49997,164.124971 378.5,156.416715 378.5,146.75 L378.5,146.75 Z M406,145.25 C405.833332,148.916685 406.666657,151.874989 408.5,154.125 C410.333343,156.375011 412.999982,157.5 416.5,157.5 C422.000027,157.5 426.666647,154.625029 430.5,148.875 C434.333353,143.124971 436.25,135.750045 436.25,126.75 C436.25,118.583292 432.666703,114.5 425.5,114.5 C422.666653,114.5 420.083345,115.333325 417.75,117 C415.416655,118.666675 413.333343,120.874986 411.5,123.625 C409.666657,126.375014 408.250005,129.624981 407.25,133.375 C406.249995,137.125019 405.833332,141.083312 406,145.25 L406,145.25 Z M437.5,0.5 L455.75,17 L311.75,182.5 L293.5,165.25 L437.5,0.5 Z M43,324 C41.999995,328.833358 42.0416613,332.416655 43.125,334.75 C44.2083387,337.083345 45.9999875,338.25 48.5,338.25 C53.16669,338.25 57.5833125,337.333343 61.75,335.5 L61,357.75 C57.999985,359.583343 53.666695,361.083327 48,362.25 C42.333305,363.416673 36.7500275,364 31.25,364 C24.0832975,364 18.6250187,362.625014 14.875,359.875 C11.1249813,357.124986 9.25,352.000037 9.25,344.5 C9.25,340.666647 9.749995,336.250025 10.75,331.25 L41.5,186 L72.25,186 L43,324 Z M169.5,349 C164.333308,353.333355 157.666708,356.999985 149.5,360 C141.333292,363.000015 131.833388,364.5 121,364.5 C107.499932,364.5 96.8750388,360.541706 89.125,352.625 C81.3749612,344.708294 77.5,333.666737 77.5,319.5 C77.5,306.1666 79.5833125,294.125054 83.75,283.375 C87.9166875,272.624946 93.3749662,263.500037 100.125,256 C106.875034,248.499963 114.499957,242.708354 123,238.625 C131.500043,234.541646 139.999957,232.5 148.5,232.5 C155.333368,232.5 161.208309,233.374991 166.125,235.125 C171.041691,236.875009 175.083318,239.291651 178.25,242.375 C181.416682,245.458349 183.749992,248.99998 185.25,253 C186.750008,257.00002 187.5,261.249978 187.5,265.75 C187.5,272.583367 185.750018,278.583308 182.25,283.75 C178.749982,288.916692 173.875031,293.208316 167.625,296.625 C161.374969,300.041684 153.833377,302.624991 145,304.375 C136.166623,306.125009 126.500053,307 116,307 C114.66666,307 113.416673,306.958334 112.25,306.875 C111.083327,306.791666 109.83334,306.75 108.5,306.75 C108.166665,308.75001 107.916668,310.541659 107.75,312.125 C107.583332,313.708341 107.5,315.16666 107.5,316.5 C107.5,324.000037 109.458314,329.583315 113.375,333.25 C117.291686,336.916685 122.833297,338.75 130,338.75 C137.33337,338.75 143.916637,337.666677 149.75,335.5 C155.583363,333.333323 159.999985,331.166677 163,329 L169.5,349 Z M113,287.25 C117.66669,287.25 122.624974,287.083335 127.875,286.75 C133.125026,286.416665 137.999977,285.625006 142.5,284.375 C147.000023,283.124994 150.749985,281.291679 153.75,278.875 C156.750015,276.458321 158.25,273.166688 158.25,269 C158.25,266.499987 157.333342,263.958346 155.5,261.375 C153.666657,258.791654 149.833363,257.5 144,257.5 C136.66663,257.5 130.291694,260.333305 124.875,266 C119.458306,271.666695 115.500013,278.749958 113,287.25 L113,287.25 Z M195,331.75 C198.33335,333.583343 202.624974,335.208326 207.875,336.625 C213.125026,338.041674 218.666637,338.75 224.5,338.75 C230.333363,338.75 234.791651,337.625011 237.875,335.375 C240.958349,333.124989 242.583332,329.66669 242.75,325 C242.75,321.66665 241.75001,318.791679 239.75,316.375 C237.74999,313.958321 235.208349,311.666677 232.125,309.5 C229.041651,307.333323 225.750018,305.125011 222.25,302.875 C218.749982,300.624989 215.458349,298.041681 212.375,295.125 C209.291651,292.208319 206.75001,288.75002 204.75,284.75 C202.74999,280.74998 201.75,275.916695 201.75,270.25 C201.75,264.749973 202.833323,259.66669 205,255 C207.166677,250.33331 210.208314,246.33335 214.125,243 C218.041686,239.66665 222.791639,237.083343 228.375,235.25 C233.958361,233.416657 240.249965,232.5 247.25,232.5 C256.916715,232.5 264.916635,233.208326 271.25,234.625 C277.583365,236.041674 282.583315,237.833323 286.25,240 L277.75,263.5 C274.41665,261.999992 270.375024,260.750005 265.625,259.75 C260.874976,258.749995 255.916692,258.25 250.75,258.25 C245.41664,258.25 241.208349,259.166657 238.125,261 C235.041651,262.833343 233.5,265.74998 233.5,269.75 C233.5,272.41668 234.49999,274.791656 236.5,276.875 C238.50001,278.958344 241.041651,281.083323 244.125,283.25 C247.208349,285.416677 250.499982,287.624989 254,289.875 C257.500018,292.125011 260.791651,294.833318 263.875,298 C266.958349,301.166682 269.49999,304.791646 271.5,308.875 C273.50001,312.958354 274.5,317.833305 274.5,323.5 C274.5,337.333402 270.000045,347.624966 261,354.375 C251.999955,361.125034 240.000075,364.5 225,364.5 C216.499957,364.5 208.708369,363.708341 201.625,362.125 C194.541631,360.541659 189.083353,358.583345 185.25,356.25 L195,331.75 Z M294,331.75 C297.33335,333.583343 301.624974,335.208326 306.875,336.625 C312.125026,338.041674 317.666637,338.75 323.5,338.75 C329.333363,338.75 333.791651,337.625011 336.875,335.375 C339.958349,333.124989 341.583332,329.66669 341.75,325 C341.75,321.66665 340.75001,318.791679 338.75,316.375 C336.74999,313.958321 334.208349,311.666677 331.125,309.5 C328.041651,307.333323 324.750018,305.125011 321.25,302.875 C317.749982,300.624989 314.458349,298.041681 311.375,295.125 C308.291651,292.208319 305.75001,288.75002 303.75,284.75 C301.74999,280.74998 300.75,275.916695 300.75,270.25 C300.75,264.749973 301.833323,259.66669 304,255 C306.166677,250.33331 309.208314,246.33335 313.125,243 C317.041686,239.66665 321.791639,237.083343 327.375,235.25 C332.958361,233.416657 339.249965,232.5 346.25,232.5 C355.916715,232.5 363.916635,233.208326 370.25,234.625 C376.583365,236.041674 381.583315,237.833323 385.25,240 L376.75,263.5 C373.41665,261.999992 369.375024,260.750005 364.625,259.75 C359.874976,258.749995 354.916692,258.25 349.75,258.25 C344.41664,258.25 340.208349,259.166657 337.125,261 C334.041651,262.833343 332.5,265.74998 332.5,269.75 C332.5,272.41668 333.49999,274.791656 335.5,276.875 C337.50001,278.958344 340.041651,281.083323 343.125,283.25 C346.208349,285.416677 349.499982,287.624989 353,289.875 C356.500018,292.125011 359.791651,294.833318 362.875,298 C365.958349,301.166682 368.49999,304.791646 370.5,308.875 C372.50001,312.958354 373.5,317.833305 373.5,323.5 C373.5,337.333402 369.000045,347.624966 360,354.375 C350.999955,361.125034 339.000075,364.5 324,364.5 C315.499957,364.5 307.708369,363.708341 300.625,362.125 C293.541631,360.541659 288.083353,358.583345 284.25,356.25 L294,331.75 Z M10.5,513.75 C13.83335,515.583343 18.1249737,517.208326 23.375,518.625 C28.6250263,520.041674 34.1666375,520.75 40,520.75 C45.8333625,520.75 50.2916512,519.625011 53.375,517.375 C56.4583488,515.124989 58.0833325,511.66669 58.25,507 C58.25,503.66665 57.25001,500.791679 55.25,498.375 C53.24999,495.958321 50.7083488,493.666677 47.625,491.5 C44.5416512,489.333323 41.2500175,487.125011 37.75,484.875 C34.2499825,482.624989 30.9583488,480.041681 27.875,477.125 C24.7916512,474.208319 22.25001,470.75002 20.25,466.75 C18.24999,462.74998 17.25,457.916695 17.25,452.25 C17.25,446.749972 18.3333225,441.66669 20.5,437 C22.6666775,432.33331 25.7083138,428.33335 29.625,425 C33.5416862,421.66665 38.2916387,419.083343 43.875,417.25 C49.4583613,415.416657 55.749965,414.5 62.75,414.5 C72.416715,414.5 80.416635,415.208326 86.75,416.625 C93.083365,418.041674 98.083315,419.833323 101.75,422 L93.25,445.5 C89.91665,443.999992 85.8750237,442.750005 81.125,441.75 C76.3749763,440.749995 71.4166925,440.25 66.25,440.25 C60.91664,440.25 56.7083488,441.166657 53.625,443 C50.5416512,444.833343 49,447.74998 49,451.75 C49,454.41668 49.99999,456.791656 52,458.875 C54.00001,460.958344 56.5416512,463.083323 59.625,465.25 C62.7083488,467.416677 65.9999825,469.624989 69.5,471.875 C73.0000175,474.125011 76.2916512,476.833317 79.375,480 C82.4583488,483.166682 84.99999,486.791646 87,490.875 C89.00001,494.958354 90,499.833305 90,505.5 C90,519.333402 85.500045,529.624966 76.5,536.375 C67.499955,543.125034 55.500075,546.5 40.5,546.5 C31.9999575,546.5 24.2083687,545.708341 17.125,544.125 C10.0416313,542.541659 4.5833525,540.583345 0.75,538.25 L10.5,513.75 Z M130.5,418 L153.25,418 L152,440 L153,440 C155.333345,436.833317 157.999985,433.708349 161,430.625 C164.000015,427.541651 167.333315,424.833345 171,422.5 C174.666685,420.166655 178.583313,418.250007 182.75,416.75 C186.916687,415.249992 191.416642,414.5 196.25,414.5 C204.750043,414.5 211.583308,417.416637 216.75,423.25 C221.916692,429.083362 224.5,438.249937 224.5,450.75 C224.5,464.916737 222.625019,477.874941 218.875,489.625 C215.124981,501.375059 210.125031,511.458291 203.875,519.875 C197.624969,528.291709 190.291709,534.83331 181.875,539.5 C173.458291,544.16669 164.666713,546.5 155.5,546.5 C151.166645,546.5 147.083353,546.083337 143.25,545.25 C139.416647,544.416663 136.583343,543.33334 134.75,542 L124,593 L93.5,593 L130.5,418 Z M140,516.5 C144.166687,519.333347 148.833308,520.75 154,520.75 C159.166692,520.75 164.08331,519.000018 168.75,515.5 C173.41669,511.999982 177.541649,507.333363 181.125,501.5 C184.708351,495.666637 187.541656,488.875039 189.625,481.125 C191.708344,473.374961 192.75,465.250042 192.75,456.75 C192.75,451.916642 191.625011,447.958349 189.375,444.875 C187.124989,441.791651 184.083353,440.25 180.25,440.25 C177.249985,440.25 174.333347,440.999992 171.5,442.5 C168.666653,444.000008 166.000013,445.874989 163.5,448.125 C160.999987,450.375011 158.75001,452.916653 156.75,455.75 C154.74999,458.583347 153.000008,461.33332 151.5,464 L140,516.5 Z M337.5,493 C336.16666,499.333365 335.208336,505.749967 334.625,512.25 C334.041664,518.750033 333.75,524.916637 333.75,530.75 C333.75,533.083345 333.791666,535.291656 333.875,537.375 C333.958334,539.458344 334.083332,541.416657 334.25,543.25 L311.5,543.25 L308,521.75 L307,521.75 C305.166657,524.750015 302.791681,527.708319 299.875,530.625 C296.958319,533.541681 293.750018,536.208321 290.25,538.625 C286.749982,541.041679 283.041686,542.958326 279.125,544.375 C275.208314,545.791674 271.166687,546.5 267,546.5 C255.999945,546.5 247.875026,542.916703 242.625,535.75 C237.374974,528.583297 234.75,519.00006 234.75,507 C234.75,494.833272 236.291651,483.166723 239.375,472 C242.458349,460.833277 247.249968,451.000042 253.75,442.5 C260.250033,433.999957 268.458284,427.208359 278.375,422.125 C288.291716,417.041641 300.083265,414.5 313.75,414.5 C319.583363,414.5 325.958299,415.041661 332.875,416.125 C339.791701,417.208339 346.499967,418.666657 353,420.5 L337.5,493 Z M278.75,520.75 C281.750015,520.75 284.58332,520.125006 287.25,518.875 C289.91668,517.624994 292.374989,516.00001 294.625,514 C296.875011,511.99999 298.874991,509.833345 300.625,507.5 C302.375009,505.166655 303.91666,503.00001 305.25,501 L317.75,442.75 C315.916657,441.916663 313.791679,441.291669 311.375,440.875 C308.958321,440.458331 306.583345,440.25 304.25,440.25 C298.24997,440.25 292.91669,442.041649 288.25,445.625 C283.58331,449.208351 279.625016,453.874971 276.375,459.625 C273.124984,465.375029 270.666675,471.874964 269,479.125 C267.333325,486.375036 266.5,493.66663 266.5,501 C266.5,506.33336 267.374991,510.958314 269.125,514.875 C270.875009,518.791686 274.08331,520.75 278.75,520.75 L278.75,520.75 Z M423,543 L437.25,475 C438.250005,470.33331 439.041664,466.208351 439.625,462.625 C440.208336,459.041649 440.5,455.833347 440.5,453 C440.5,445.333295 437.583363,441.5 431.75,441.5 C428.916653,441.5 426.083347,442.249992 423.25,443.75 C420.416653,445.250007 417.791679,447.166655 415.375,449.5 C412.958321,451.833345 410.708344,454.374986 408.625,457.125 C406.541656,459.875014 404.83334,462.499987 403.5,465 L387.5,543 L356.75,543 L383.25,418 L407.25,418 L405.75,440 L406.75,440 C409.250013,437.33332 411.958319,434.500015 414.875,431.5 C417.791681,428.499985 421.083315,425.750013 424.75,423.25 C428.416685,420.749987 432.499978,418.666675 437,417 C441.500022,415.333325 446.41664,414.5 451.75,414.5 C458.4167,414.5 463.458316,416.916642 466.875,421.75 C470.291684,426.583358 471.833335,432.99996 471.5,441 C474.000013,437.833317 476.874984,434.666682 480.125,431.5 C483.375016,428.333317 486.874981,425.500013 490.625,423 C494.375019,420.499987 498.374979,418.458341 502.625,416.875 C506.875021,415.291659 511.249978,414.5 515.75,414.5 C523.416705,414.5 529.291646,416.291649 533.375,419.875 C537.458354,423.458351 539.5,430.166617 539.5,440 C539.5,447.166703 538.250013,456.499943 535.75,468 L520,543 L489.25,543 L504,472.75 C504.833337,468.916647 505.499998,465.33335 506,462 C506.500002,458.66665 506.75,455.750013 506.75,453.25 C506.75,449.416647 506.041674,446.50001 504.625,444.5 C503.208326,442.49999 500.83335,441.5 497.5,441.5 C494.83332,441.5 492.125014,442.291659 489.375,443.875 C486.624986,445.458341 484.000013,447.458321 481.5,449.875 C478.999987,452.291679 476.708344,454.916652 474.625,457.75 C472.541656,460.583347 470.916673,463.249987 469.75,465.75 L453.75,543 L423,543 Z" id="path-1"></path>
    </defs>
    <g id="Landing" stroke="none" stroke-width="1" fill="none" fill-rule="evenodd" sketch:type="MSPage">
        <g id="landing-1180" sketch:type="MSArtboardGroup" transform="translate(-729.000000, -1422.000000)">
            <g id="3" sketch:type="MSLayerGroup" transform="translate(0.000000, 1332.000000)">
                <g id="img-spam" transform="translate(729.000000, 90.000000)">
                    <mask id="mask-2" sketch:name="Mask" fill="white">
                        <use xlink:href="#path-1"></use>
                    </mask>
                    <use id="Mask" fill="#B959E4" sketch:type="MSShapeGroup" xlink:href="#path-1"></use>
                    <rect id="Rectangle-1103-Copy-3" fill="#44C179" sketch:type="MSShapeGroup" mask="url(#mask-2)" x="244" y="275" width="405" height="318"></rect>
                    <rect id="Rectangle-1103-Copy-2" fill="#5BC3F9" sketch:type="MSShapeGroup" mask="url(#mask-2)" x="1" y="371" width="589" height="222"></rect>
                    <rect id="Rectangle-1103" fill="#65D470" sketch:type="MSShapeGroup" mask="url(#mask-2)" x="5" y="186" width="405" height="222"></rect>
                    <rect id="Rectangle-1103-Copy" fill="#F8BC5F" sketch:type="MSShapeGroup" mask="url(#mask-2)" x="170" y="35" width="589" height="172"></rect>
                </g>
            </g>
        </g>
    </g>
</svg>