<?xml version="1.0" encoding="UTF-8" standalone="no"?>
<svg width="54px" height="50px" viewBox="0 0 54 50" version="1.1" xmlns="http://www.w3.org/2000/svg" xmlns:xlink="http://www.w3.org/1999/xlink" xmlns:sketch="http://www.bohemiancoding.com/sketch/ns">
    <!-- Generator: Sketch 3.3.2 (12043) - http://www.bohemiancoding.com/sketch -->
    <title>logo</title>
    <desc>Created with Sketch.</desc>
    <defs>
        <path id="path-1" d="M14.0058947,18.1753036 L8.31945113,21.6906883 C8.31945113,21.6906883 6.87890977,29.0619433 8.0541203,31.7461538 C9.22933083,34.4297571 14.9226767,21.4690283 14.9226767,21.4690283 L14.0058947,18.1753036"></path>
        <path id="path-2" d="M40.0334887,18.1753036 L45.7199323,21.6906883 C45.7199323,21.6906883 47.1604737,29.0619433 45.9852632,31.7461538 C44.8100526,34.4297571 39.1165038,21.4690283 39.1165038,21.4690283 L40.0334887,18.1753036"></path>
    </defs>
    <g id="New" stroke="none" stroke-width="1" fill="none" fill-rule="evenodd" sketch:type="MSPage">
        <g id="2-1-1180" sketch:type="MSArtboardGroup" transform="translate(-693.000000, -15.000000)">
            <g id="Menu" sketch:type="MSLayerGroup" transform="translate(693.000000, 15.000000)">
                <g id="logo">
                    <path d="M14.9226767,17.5704453 L4.9706391,0.0682186235 C4.9706391,0.0682186235 -0.134390977,15.0376518 0.206864662,23.8076923 L8.05391729,31.7461538 L14.9226767,17.5704453" id="Fill-1" fill="#B959E4" sketch:type="MSShapeGroup"></path>
                    <g id="Fill-2">
                        <use fill="#B959E4" sketch:type="MSShapeGroup" xlink:href="#path-1"></use>
                        <use fill-opacity="0.42" fill="#000000" xlink:href="#path-1"></use>
                    </g>
                    <path d="M19.0004887,15.4937247 L4.84761654,0.0706477733 C4.84761654,0.0706477733 13.0864737,16.6026316 14.5018421,21.8947368 L19.0004887,15.4937247" id="Fill-3" fill="#8E9295" sketch:type="MSShapeGroup"></path>
                    <path d="M26.5030376,26.8791498 L26.5030376,15.2991903 L18.8232632,15.2991903 L4.76803759,36.5813765 C4.76803759,36.5813765 6.81516541,42.3526316 12.2740376,45.3261134" id="Fill-4" fill="#CFD1CD" sketch:type="MSShapeGroup"></path>
                    <path d="M39.1165038,17.5704453 L49.0687444,0.0682186235 C49.0687444,0.0682186235 54.1735714,15.0376518 53.8327218,23.8076923 L45.9852632,31.7461538 L39.1165038,17.5704453" id="Fill-5" fill="#B959E4" sketch:type="MSShapeGroup"></path>
                    <g id="Fill-6">
                        <use fill="#B959E4" sketch:type="MSShapeGroup" xlink:href="#path-2"></use>
                        <use fill-opacity="0.42" fill="#000000" xlink:href="#path-2"></use>
                    </g>
                    <path d="M34.9156692,15.4912955 L49.0685414,0.0682186235 C49.0685414,0.0682186235 40.8294812,16.6002024 39.4143158,21.8923077 L34.9156692,15.4912955" id="Fill-7" fill="#CFD1CD" sketch:type="MSShapeGroup"></path>
                    <path d="M28.3952707,43.691498 L38.1254211,47.6730769 L36.3310376,49.991498 L27.0302481,49.991498 L27.0556241,49.991498 L17.7552406,49.991498 L15.9608571,47.6730769 L25.6910075,43.691498" id="Fill-8" fill="#CFD1CD" sketch:type="MSShapeGroup"></path>
                    <path d="M27.4096692,26.8821862 L27.4096692,15.3022267 L35.0892406,15.3022267 L49.1442632,36.5846154 C49.1442632,36.5846154 47.0971353,42.355668 41.6382632,45.3293522" id="Fill-9" fill="#8E9295" sketch:type="MSShapeGroup"></path>
                    <path d="M35.0892406,15.3022267 L37.1901654,25.659919 L16.7237594,25.659919 L18.8248872,15.3022267 L35.0892406,15.3022267" id="Fill-10" fill="#F3F5F6" sketch:type="MSShapeGroup"></path>
                    <path d="M16.7791805,48.7303644 L17.7552406,49.9917004 L29.835812,49.9917004 L30.8214135,46.6398785 L27.0430376,45.3925101 L16.7791805,48.7303644" id="Fill-11" fill="#FFFFFE" sketch:type="MSShapeGroup"></path>
                    <path d="M16.6811278,25.659919 C16.6654962,25.6591093 16.6447895,25.665587 16.6192105,25.6785425 C15.7367368,26.1214575 9.12437594,34.4046559 9.12437594,34.4046559 L14.1033383,39.8230769 L39.8107895,39.8230769 L44.7895489,34.4046559 C44.7895489,34.4048583 38.177391,26.1214575 37.2949173,25.6785425 C37.2693383,25.665587 37.2486316,25.6591093 37.233,25.659919 C36.6769624,25.6850202 17.2371654,25.6850202 16.6811278,25.659919" id="Fill-12" fill="#151615" sketch:type="MSShapeGroup"></path>
                    <path d="M34.5768496,36.4334008 C40.4401128,38.9787449 44.6102932,44.1449393 44.6102932,44.1449393 L39.2523158,48.8827935 L27.1211955,44.9767206 L26.7927293,44.9767206 L14.661609,48.8827935 L9.30363158,44.1449393 C9.30363158,44.1449393 13.473812,38.9787449 19.3370752,36.4334008 L34.5768496,36.4334008" id="Fill-13" fill="#FFFFFE" sketch:type="MSShapeGroup"></path>
                    <path d="M34.5768496,36.4334008 C40.4401128,38.9787449 44.6102932,44.1449393 44.6102932,44.1449393 L39.2523158,48.8827935 L27.1211955,44.9767206 L26.7927293,44.9767206 L27.5611128,41.3775304 L33.3527143,37.7769231 L34.5768496,36.4334008" id="Fill-14" fill="#CFD1CD" sketch:type="MSShapeGroup"></path>
                    <path d="M26.9569624,44.9781377 L26.7486767,44.9781377 L26.0470827,41.802834 L21.0809098,39.2512146 L20.4554436,37.7769231 L33.4584812,37.7769231 L32.833015,39.2512146 L27.8670451,41.802834 L27.1654511,44.9781377 L26.9569624,44.9781377" id="Fill-15" fill="#151615" sketch:type="MSShapeGroup"></path>
                    <path d="M27.3542481,25.659919 L37.1901654,25.659919 C36.8363233,30.4228745 34.5618271,36.3451417 34.5618271,36.3451417 L19.3679323,36.3451417 C19.3679323,36.3451417 17.0934361,30.4228745 16.739594,25.659919 L26.5755113,25.659919" id="Fill-16" fill="#2E2F2C" sketch:type="MSShapeGroup"></path>
                    <path d="M16.9304211,33.4032389 C16.9304211,34.1163968 16.3506316,34.6945344 15.6354361,34.6945344 C14.9202406,34.6945344 14.3404511,34.1163968 14.3404511,33.4032389 C14.3404511,32.690081 14.9202406,32.1119433 15.6354361,32.1119433 C16.3506316,32.1119433 16.9304211,32.690081 16.9304211,33.4032389" id="Fill-17" fill="#B959E4" sketch:type="MSShapeGroup"></path>
                    <path d="M39.5720526,33.4032389 C39.5720526,34.1163968 38.9922632,34.6945344 38.2770677,34.6945344 C37.5616692,34.6945344 36.9820827,34.1163968 36.9820827,33.4032389 C36.9820827,32.690081 37.5616692,32.1119433 38.2770677,32.1119433 C38.9922632,32.1119433 39.5720526,32.690081 39.5720526,33.4032389" id="Fill-18" fill="#B959E4" sketch:type="MSShapeGroup"></path>
                    <path d="M25.1160902,28.1360324 L25.1160902,32.6720648 L27.7060602,32.8447368 L26.784,35.3560729 L29.7030451,32.1052632 L28.295594,31.9202429 L29.4377143,28.1360324 L25.1160902,28.1360324" id="Fill-19" fill="#B959E4" sketch:type="MSShapeGroup"></path>
                </g>
            </g>
        </g>
    </g>
</svg>