<?xml version="1.0" encoding="UTF-8" standalone="no"?>
<svg width="248px" height="26px" viewBox="0 0 248 26" version="1.1" xmlns="http://www.w3.org/2000/svg" xmlns:xlink="http://www.w3.org/1999/xlink" xmlns:sketch="http://www.bohemiancoding.com/sketch/ns">
    <!-- Generator: Sketch 3.2.2 (9983) - http://www.bohemiancoding.com/sketch -->
    <title>CYBER LOBBY</title>
    <desc>Created with Sketch.</desc>
    <defs>
        <linearGradient x1="50%" y1="0%" x2="50%" y2="100%" id="linearGradient-1">
            <stop stop-color="#FFFFFF" offset="0%"></stop>
            <stop stop-color="#797979" offset="100%"></stop>
        </linearGradient>
        <filter x="-50%" y="-50%" width="200%" height="200%" filterUnits="objectBoundingBox" id="filter-2">
            <feOffset dx="0" dy="2" in="SourceAlpha" result="shadowOffsetOuter1"></feOffset>
            <feGaussianBlur stdDeviation="1" in="shadowOffsetOuter1" result="shadowBlurOuter1"></feGaussianBlur>
            <feColorMatrix values="0 0 0 0 0   0 0 0 0 0   0 0 0 0 0  0 0 0 0.35 0" in="shadowBlurOuter1" type="matrix" result="shadowMatrixOuter1"></feColorMatrix>
            <feOffset dx="0" dy="1" in="SourceAlpha" result="shadowOffsetInner1"></feOffset>
            <feGaussianBlur stdDeviation="0" in="shadowOffsetInner1" result="shadowBlurInner1"></feGaussianBlur>
            <feComposite in="shadowBlurInner1" in2="SourceAlpha" operator="arithmetic" k2="-1" k3="1" result="shadowInnerInner1"></feComposite>
            <feColorMatrix values="0 0 0 0 1   0 0 0 0 1   0 0 0 0 1  0 0 0 0.177853261 0" in="shadowInnerInner1" type="matrix" result="shadowMatrixInner1"></feColorMatrix>
            <feMerge>
                <feMergeNode in="shadowMatrixOuter1"></feMergeNode>
                <feMergeNode in="SourceGraphic"></feMergeNode>
                <feMergeNode in="shadowMatrixInner1"></feMergeNode>
            </feMerge>
        </filter>
        <path d="M272.51,30.69 C267.65,30.69 261.17,33.9 261.17,41.28 C261.17,48.42 266.9,51.57 272.69,51.57 C274.28,51.57 276.89,51.06 277.79,50.76 C278.27,50.19 279.74,47.76 280.16,46.41 L279.65,45.78 C278.48,46.68 276.98,48 275.18,49.77 C274.85,49.86 274.55,49.89 273.98,49.89 C268.64,49.89 265.85,45.69 265.85,41.07 C265.85,36.54 268.64,32.25 273.8,32.25 C275.21,32.25 276.2,32.55 276.74,32.88 C277.04,34.02 277.61,35.76 278.06,36.87 L278.78,36.6 C279.08,35.82 280.01,31.98 280.1,31.08 L279.92,30.93 C279.2,31.02 278,31.26 277.04,31.65 C276.14,31.14 274.73,30.69 272.51,30.69 L272.51,30.69 Z M285.65,32.04 C286.97,32.55 287.63,32.88 288.17,33.39 C290.06,36.51 292.13,40.32 292.79,41.46 C293.09,42.03 293.24,42.36 293.24,42.66 C293.24,47.28 293.09,48.81 293.06,49.17 L289.91,50.22 L289.7,51.03 C291.62,51.03 293.57,51 295.49,51 C297.23,51 299.03,51.03 300.77,51.03 L300.98,50.19 L297.62,49.17 C297.53,48.84 297.5,47.07 297.5,42.45 C297.5,42.21 297.62,41.91 297.77,41.55 C300.2,36.9 301.55,34.95 302.3,33.78 C302.63,33.27 302.87,33.06 303.5,32.82 L305.27,32.07 L305.42,31.23 C304.28,31.23 303.14,31.26 302,31.26 L299.75,31.26 L299.39,32.1 L300.65,32.94 C299.84,34.77 298.37,37.65 296.87,40.62 L296.81,40.62 C294.23,35.82 292.91,33.39 292.67,32.85 L293.51,32.19 L293.72,31.26 L290.24,31.26 C288.83,31.26 287.39,31.23 285.95,31.23 L285.65,32.04 Z M310.28,32.16 L312.59,32.91 L312.59,42.39 C312.59,46.47 312.47,48.57 312.41,49.08 L310.4,50.16 L310.19,51 C312.62,51.09 314.78,51.09 317.15,51.09 C321.56,51.09 327.71,50.28 327.71,45.24 C327.71,42.45 325.94,40.74 321.29,40.32 L321.29,40.11 C323.81,39.78 326.48,38.43 326.48,35.49 C326.48,32.31 323.63,30.99 318.23,30.99 C316.22,30.99 311.66,31.26 310.55,31.38 L310.28,32.16 Z M316.85,32.28 L317.51,32.28 C318.77,32.28 319.73,32.49 320.36,32.82 C321.23,33.3 321.98,34.23 321.98,35.88 C321.98,39.06 319.4,39.87 316.85,39.9 L316.85,32.28 Z M322.97,45.21 C322.97,46.11 322.79,47.19 322.01,48.12 C321.08,49.26 319.64,49.89 316.97,49.89 C316.91,48.12 316.85,44.34 316.85,41.61 L316.85,41.16 C321.83,41.1 322.97,42.99 322.97,45.21 L322.97,45.21 Z M333.53,32.04 L336.11,33.09 L336.11,40.68 C336.11,45.75 336.02,48.75 335.93,49.11 L333.5,50.22 L333.26,51.03 C334.79,51.03 336.59,51 338.06,51 L343.43,51 C345.17,51 346.82,51 348.71,51.09 C349.01,50.37 349.82,46.41 349.88,45.87 L349.25,45.57 C348.29,46.47 346.88,48.27 345.8,49.65 L340.49,49.32 C340.37,47.07 340.37,43.44 340.37,41.67 C341.6,41.67 345.92,42 346.31,42 C346.76,42 348.08,40.35 348.2,39.96 L347.99,39.6 C346.01,39.81 342.95,40.02 340.37,40.02 L340.37,32.94 L345.68,32.64 C346.04,33.33 347.18,35.31 347.57,35.94 L348.11,35.73 C348.32,34.92 348.83,31.74 348.83,30.96 L348.74,30.84 C348.02,30.9 345.86,31.2 345.56,31.26 L338.12,31.26 C336.68,31.26 335.24,31.23 333.8,31.23 L333.53,32.04 Z M355.76,32.46 L358.25,33 L358.25,41.46 C358.25,45.39 358.1,48.09 358.04,49.17 L355.85,50.19 L355.61,51.03 C357.23,51.03 358.85,51 360.44,51 C362.03,51 363.62,51.03 365.18,51.03 L365.39,50.19 L362.6,49.11 C362.51,47.79 362.51,45.54 362.51,41.43 L362.51,32.4 C365.57,32.31 367.91,33.33 367.91,36.69 C367.91,39.63 366.14,40.83 363.35,41.49 L363.29,41.67 C364.97,44.67 366.86,47.73 368.12,49.14 C369.32,50.55 370.7,51.45 374.33,51.48 L374.66,51.12 C374.33,50.67 373.94,50.25 371.99,47.46 C370.76,45.66 368.6,42.3 367.94,41.01 L367.97,40.95 C369.86,40.32 372.47,38.94 372.47,36 C372.47,32.85 370.19,30.99 364.52,30.99 C361.19,30.99 357.32,31.38 356.09,31.59 L355.76,32.46 Z M390.2,32.04 L392.6,33.15 L392.6,40.71 C392.6,45.39 392.54,48.87 392.48,49.11 L390.05,50.19 L389.81,51.03 C391.58,51.03 393.11,51 394.61,51 C402.2,51 403.88,51.12 405.02,51.12 C405.26,50.37 406.04,46.38 406.1,45.51 L405.56,45.27 C404.84,45.99 403.07,48.45 402.23,49.65 L396.98,49.32 C396.92,48.39 396.86,45.45 396.86,40.68 L396.86,33.15 L398.84,32.1 L399.11,31.23 C397.64,31.23 396.17,31.26 394.73,31.26 C393.29,31.26 391.91,31.23 390.47,31.23 L390.2,32.04 Z M422.27,30.69 C416.81,30.69 411.38,34.74 411.38,41.31 C411.38,48.33 417.38,51.57 422.27,51.57 C427.34,51.57 433.04,48.36 433.04,41.07 C433.04,34.53 428.09,30.78 422.27,30.69 L422.27,30.69 Z M421.88,31.92 C426.23,31.92 428.21,37.47 428.21,41.31 C428.21,45.09 427.1,50.37 422.72,50.37 C418.46,50.37 416.21,45.45 416.21,40.77 C416.21,36.06 418.07,31.92 421.88,31.92 L421.88,31.92 Z M439.19,32.16 L441.5,32.91 L441.5,42.39 C441.5,46.47 441.38,48.57 441.32,49.08 L439.31,50.16 L439.1,51 C441.53,51.09 443.69,51.09 446.06,51.09 C450.47,51.09 456.62,50.28 456.62,45.24 C456.62,42.45 454.85,40.74 450.2,40.32 L450.2,40.11 C452.72,39.78 455.39,38.43 455.39,35.49 C455.39,32.31 452.54,30.99 447.14,30.99 C445.13,30.99 440.57,31.26 439.46,31.38 L439.19,32.16 Z M445.76,32.28 L446.42,32.28 C447.68,32.28 448.64,32.49 449.27,32.82 C450.14,33.3 450.89,34.23 450.89,35.88 C450.89,39.06 448.31,39.87 445.76,39.9 L445.76,32.28 Z M451.88,45.21 C451.88,46.11 451.7,47.19 450.92,48.12 C449.99,49.26 448.55,49.89 445.88,49.89 C445.82,48.12 445.76,44.34 445.76,41.61 L445.76,41.16 C450.74,41.1 451.88,42.99 451.88,45.21 L451.88,45.21 Z M462.71,32.16 L465.02,32.91 L465.02,42.39 C465.02,46.47 464.9,48.57 464.84,49.08 L462.83,50.16 L462.62,51 C465.05,51.09 467.21,51.09 469.58,51.09 C473.99,51.09 480.14,50.28 480.14,45.24 C480.14,42.45 478.37,40.74 473.72,40.32 L473.72,40.11 C476.24,39.78 478.91,38.43 478.91,35.49 C478.91,32.31 476.06,30.99 470.66,30.99 C468.65,30.99 464.09,31.26 462.98,31.38 L462.71,32.16 Z M469.28,32.28 L469.94,32.28 C471.2,32.28 472.16,32.49 472.79,32.82 C473.66,33.3 474.41,34.23 474.41,35.88 C474.41,39.06 471.83,39.87 469.28,39.9 L469.28,32.28 Z M475.4,45.21 C475.4,46.11 475.22,47.19 474.44,48.12 C473.51,49.26 472.07,49.89 469.4,49.89 C469.34,48.12 469.28,44.34 469.28,41.61 L469.28,41.16 C474.26,41.1 475.4,42.99 475.4,45.21 L475.4,45.21 Z M485.03,32.04 C486.35,32.55 487.01,32.88 487.55,33.39 C489.44,36.51 491.51,40.32 492.17,41.46 C492.47,42.03 492.62,42.36 492.62,42.66 C492.62,47.28 492.47,48.81 492.44,49.17 L489.29,50.22 L489.08,51.03 C491,51.03 492.95,51 494.87,51 C496.61,51 498.41,51.03 500.15,51.03 L500.36,50.19 L497,49.17 C496.91,48.84 496.88,47.07 496.88,42.45 C496.88,42.21 497,41.91 497.15,41.55 C499.58,36.9 500.93,34.95 501.68,33.78 C502.01,33.27 502.25,33.06 502.88,32.82 L504.65,32.07 L504.8,31.23 C503.66,31.23 502.52,31.26 501.38,31.26 L499.13,31.26 L498.77,32.1 L500.03,32.94 C499.22,34.77 497.75,37.65 496.25,40.62 L496.19,40.62 C493.61,35.82 492.29,33.39 492.05,32.85 L492.89,32.19 L493.1,31.26 L489.62,31.26 C488.21,31.26 486.77,31.23 485.33,31.23 L485.03,32.04 Z" id="path-3"></path>
    </defs>
    <g id="Другое" stroke="none" stroke-width="1" fill="none" fill-rule="evenodd" sketch:type="MSPage">
        <g id="Меню" sketch:type="MSArtboardGroup" transform="translate(-259.000000, -30.000000)" filter="url(#filter-2)">
            <g id="Хедер---Планшет" sketch:type="MSLayerGroup">
                <g id="CYBER-LOBBY">
                    <use fill="url(#linearGradient-1)" fill-rule="evenodd" sketch:type="MSShapeGroup" xlink:href="#path-3"></use>
                    <use fill="none" xlink:href="#path-3"></use>
                </g>
            </g>
        </g>
    </g>
</svg>