<?xml version="1.0" encoding="UTF-8" standalone="no"?>
<svg width="233px" height="50px" viewBox="0 0 233 50" version="1.1" xmlns="http://www.w3.org/2000/svg" xmlns:xlink="http://www.w3.org/1999/xlink" xmlns:sketch="http://www.bohemiancoding.com/sketch/ns">
    <!-- Generator: Sketch 3.3.2 (12043) - http://www.bohemiancoding.com/sketch -->
    <title>logo</title>
    <desc>Created with Sketch.</desc>
    <defs>
        <path id="path-1" d="M14.2292398,18.1753036 L8.45211727,21.6906883 C8.45211727,21.6906883 6.98860432,29.0619433 8.18255535,31.7461538 C9.37650637,34.4297571 15.1606412,21.4690283 15.1606412,21.4690283 L14.2292398,18.1753036"></path>
        <path id="path-2" d="M40.6718828,18.1753036 L46.4490053,21.6906883 C46.4490053,21.6906883 47.9125183,29.0619433 46.7185673,31.7461538 C45.5246162,34.4297571 39.7402752,21.4690283 39.7402752,21.4690283 L40.6718828,18.1753036"></path>
    </defs>
    <g id="Guides-&amp;-Graphics" stroke="none" stroke-width="1" fill="none" fill-rule="evenodd" sketch:type="MSPage">
        <g id="Logo" sketch:type="MSArtboardGroup" transform="translate(-275.000000, -103.000000)">
            <g id="logo" sketch:type="MSLayerGroup" transform="translate(275.000000, 103.000000)">
                <g id="cat">
                    <path d="M15.1606412,17.5704453 L5.0499034,0.0682186235 C5.0499034,0.0682186235 -0.136534043,15.0376518 0.210163429,23.8076923 L8.1823491,31.7461538 L15.1606412,17.5704453" id="Fill-1" fill="#B959E4" sketch:type="MSShapeGroup"></path>
                    <g id="Fill-2">
                        <use fill="#B959E4" sketch:type="MSShapeGroup" xlink:href="#path-1"></use>
                        <use fill-opacity="0.42" fill="#000000" xlink:href="#path-1"></use>
                    </g>
                    <path d="M19.3034801,15.4937247 L4.92491907,0.0706477733 C4.92491907,0.0706477733 13.2951572,16.6026316 14.7330958,21.8947368 L19.3034801,15.4937247" id="Fill-3" fill="#8E9295" sketch:type="MSShapeGroup"></path>
                    <path d="M26.9256683,26.8791498 L26.9256683,15.2991903 L19.1234284,15.2991903 L4.84407112,36.5813765 C4.84407112,36.5813765 6.92384346,42.3526316 12.4697656,45.3261134" id="Fill-4" fill="#CFD1CD" sketch:type="MSShapeGroup"></path>
                    <path d="M39.7402752,17.5704453 L49.8512192,0.0682186235 C49.8512192,0.0682186235 55.0374504,15.0376518 54.6911654,23.8076923 L46.7185673,31.7461538 L39.7402752,17.5704453" id="Fill-5" fill="#B959E4" sketch:type="MSShapeGroup"></path>
                    <g id="Fill-6">
                        <use fill="#B959E4" sketch:type="MSShapeGroup" xlink:href="#path-2"></use>
                        <use fill-opacity="0.42" fill="#000000" xlink:href="#path-2"></use>
                    </g>
                    <path d="M35.472452,15.4912955 L49.8510129,0.0682186235 C49.8510129,0.0682186235 41.4805686,16.6002024 40.0428363,21.8923077 L35.472452,15.4912955" id="Fill-7" fill="#CFD1CD" sketch:type="MSShapeGroup"></path>
                    <path d="M28.8480759,43.691498 L38.7333882,47.6730769 L36.9103906,49.991498 L27.461286,49.991498 L27.4870666,49.991498 L18.0383746,49.991498 L16.215377,47.6730769 L26.1006892,43.691498" id="Fill-8" fill="#CFD1CD" sketch:type="MSShapeGroup"></path>
                    <path d="M27.8467575,26.8821862 L27.8467575,15.3022267 L35.6487912,15.3022267 L49.9279423,36.5846154 C49.9279423,36.5846154 47.8481699,42.355668 42.3022478,45.3293522" id="Fill-9" fill="#8E9295" sketch:type="MSShapeGroup"></path>
                    <path d="M35.6487912,15.3022267 L37.7832185,25.659919 L16.9904449,25.659919 L19.1250783,15.3022267 L35.6487912,15.3022267" id="Fill-10" fill="#F3F5F6" sketch:type="MSShapeGroup"></path>
                    <path d="M17.0467497,48.7303644 L18.0383746,49.9917004 L30.3115889,49.9917004 L31.3129073,46.6398785 L27.4742794,45.3925101 L17.0467497,48.7303644" id="Fill-11" fill="#FFFFFE" sketch:type="MSShapeGroup"></path>
                    <path d="M16.9471335,25.659919 C16.9312526,25.6591093 16.9102156,25.665587 16.8842288,25.6785425 C15.9876827,26.1214575 9.26987782,34.4046559 9.26987782,34.4046559 L14.3282373,39.8230769 L40.4456323,39.8230769 L45.5037855,34.4046559 C45.5037855,34.4048583 38.7861868,26.1214575 37.8896408,25.6785425 C37.8636539,25.665587 37.842617,25.6591093 37.8267361,25.659919 C37.2618317,25.6850202 17.5120379,25.6850202 16.9471335,25.659919" id="Fill-12" fill="#151615" sketch:type="MSShapeGroup"></path>
                    <path d="M35.1282294,36.4334008 C41.0849911,38.9787449 45.3216714,44.1449393 45.3216714,44.1449393 L39.8782529,48.8827935 L27.5536837,44.9767206 L27.2199796,44.9767206 L14.8954104,48.8827935 L9.45199196,44.1449393 C9.45199196,44.1449393 13.6886722,38.9787449 19.6454339,36.4334008 L35.1282294,36.4334008" id="Fill-13" fill="#FFFFFE" sketch:type="MSShapeGroup"></path>
                    <path d="M35.1282294,36.4334008 C41.0849911,38.9787449 45.3216714,44.1449393 45.3216714,44.1449393 L39.8782529,48.8827935 L27.5536837,44.9767206 L27.2199796,44.9767206 L28.0006161,41.3775304 L33.8845734,37.7769231 L35.1282294,36.4334008" id="Fill-14" fill="#CFD1CD" sketch:type="MSShapeGroup"></path>
                    <path d="M27.3868317,44.9781377 L27.1752245,44.9781377 L26.4624426,41.802834 L21.4170765,39.2512146 L20.7816364,37.7769231 L33.9920269,37.7769231 L33.3565868,39.2512146 L28.311427,41.802834 L27.5986451,44.9781377 L27.3868317,44.9781377" id="Fill-15" fill="#151615" sketch:type="MSShapeGroup"></path>
                    <path d="M27.7904527,25.659919 L37.7832185,25.659919 C37.4237338,30.4228745 35.1129673,36.3451417 35.1129673,36.3451417 L19.6767831,36.3451417 C19.6767831,36.3451417 17.3660166,30.4228745 17.006532,25.659919 L26.9992977,25.659919" id="Fill-16" fill="#2E2F2C" sketch:type="MSShapeGroup"></path>
                    <path d="M17.200402,33.4032389 C17.200402,34.1163968 16.611367,34.6945344 15.8847666,34.6945344 C15.1581662,34.6945344 14.5691312,34.1163968 14.5691312,33.4032389 C14.5691312,32.690081 15.1581662,32.1119433 15.8847666,32.1119433 C16.611367,32.1119433 17.200402,32.690081 17.200402,33.4032389" id="Fill-17" fill="#B959E4" sketch:type="MSShapeGroup"></path>
                    <path d="M40.2030885,33.4032389 C40.2030885,34.1163968 39.6140534,34.6945344 38.887453,34.6945344 C38.1606464,34.6945344 37.5718176,34.1163968 37.5718176,33.4032389 C37.5718176,32.690081 38.1606464,32.1119433 38.887453,32.1119433 C39.6140534,32.1119433 40.2030885,32.690081 40.2030885,33.4032389" id="Fill-18" fill="#B959E4" sketch:type="MSShapeGroup"></path>
                    <path d="M25.516604,28.1360324 L25.516604,32.6720648 L28.1478749,32.8447368 L27.2111111,35.3560729 L30.1767048,32.1052632 L28.7468097,31.9202429 L29.9071429,28.1360324 L25.516604,28.1360324" id="Fill-19" fill="#B959E4" sketch:type="MSShapeGroup"></path>
                </g>
                <g id="text" transform="translate(65.818329, 16.711957)" fill="#B959E4" sketch:type="MSShapeGroup">
                    <path d="M9.79421769,19.9698129 C8.4702381,19.9698129 7.22959184,19.7487245 6.07397959,19.3078231 C4.91709184,18.8664966 3.91113946,18.2312925 3.05484694,17.4013605 C2.19855442,16.5718537 1.52763605,15.5565476 1.04251701,14.3558673 C0.556547619,13.1556122 0.31420068,11.7963435 0.31420068,10.2780612 C0.31420068,8.75977891 0.569727891,7.4005102 1.08205782,6.19982993 C1.59396259,4.99957483 2.2869898,3.98469388 3.16071429,3.1547619 C4.03486395,2.3252551 5.06292517,1.68920068 6.2457483,1.24787415 C7.42857143,0.806972789 8.68197279,0.585884354 10.0063776,0.585884354 C11.047619,0.585884354 11.9613095,0.669642857 12.7470238,0.837585034 C13.5323129,1.00552721 14.1016156,1.16836735 14.454932,1.32738095 L13.2631803,5.45833333 C13.0688776,5.38818027 12.8397109,5.32185374 12.5748299,5.25977891 C12.309949,5.19812925 12.0361395,5.14073129 11.7538265,5.08758503 C11.4710884,5.03486395 11.1977041,4.99489796 10.9328231,4.96853741 C10.6683673,4.94217687 10.4472789,4.9289966 10.2708333,4.9289966 C9.42346939,4.9289966 8.67304422,5.06122449 8.01998299,5.32610544 C7.36692177,5.59098639 6.81505102,5.96598639 6.36522109,6.45153061 C5.91496599,6.93707483 5.57482993,7.51530612 5.34566327,8.18579932 C5.11607143,8.85714286 5.00127551,9.59863946 5.00127551,10.4102891 C5.00127551,11.2223639 5.10714286,11.9638605 5.31887755,12.6347789 C5.53103741,13.3056973 5.83971088,13.8839286 6.2457483,14.3690476 C6.65178571,14.8554422 7.16369048,15.2342687 7.78188776,15.5080782 C8.39965986,15.7814626 9.10586735,15.9183673 9.9005102,15.9183673 C10.0412415,15.9183673 10.1781463,15.9141156 10.3107993,15.9047619 C10.4430272,15.8962585 10.5973639,15.8741497 10.7742347,15.8388605 L10.7742347,10.6751701 L15.1437075,10.6751701 L15.1437075,19.0956633 C14.8784014,19.2019558 14.5344388,19.3078231 14.1105442,19.4136905 C13.6870748,19.5195578 13.2278912,19.6122449 12.7338435,19.6917517 C12.2389456,19.7712585 11.7359694,19.8371599 11.2236395,19.8903061 C10.7121599,19.9434524 10.2355442,19.9698129 9.79421769,19.9698129" id="Fill-1"></path>
                    <path d="M36.0892857,19.5994898 L31.0314626,19.5994898 L27.7746599,14.4621599 C27.5272109,14.480017 27.2840136,14.4927721 27.0459184,14.5017007 C26.807398,14.5106293 26.565051,14.5153061 26.3180272,14.5153061 L25.2589286,14.5153061 L25.2589286,19.5994898 L20.730017,19.5994898 L20.730017,0.930272109 L24.8881803,0.930272109 C26.547619,0.930272109 28.0085034,1.0582483 29.2708333,1.31420068 C30.5327381,1.57015306 31.587585,1.97619048 32.4353741,2.53231293 C33.2823129,3.08843537 33.9221939,3.80782313 34.355017,4.69047619 C34.7869898,5.57312925 35.0038265,6.64115646 35.0038265,7.89455782 C35.0038265,9.14880952 34.7517007,10.2159864 34.2491497,11.0986395 C33.7461735,11.9821429 33.0178571,12.6964286 32.0646259,13.2440476 L36.0892857,19.5994898 L36.0892857,19.5994898 Z M26.2117347,10.6220238 C27.8010204,10.6220238 28.9039116,10.3886054 29.522534,9.9204932 C30.1403061,9.45280612 30.4489796,8.77806122 30.4489796,7.89455782 C30.4489796,7.01190476 30.1403061,6.33673469 29.522534,5.86862245 C28.9039116,5.40136054 27.8010204,5.16709184 26.2117347,5.16709184 L25.2589286,5.16709184 L25.2589286,10.6220238 L26.2117347,10.6220238 L26.2117347,10.6220238 Z" id="Fill-2"></path>
                    <path d="M48.7733844,0.347363946 C50.079932,0.347363946 51.2848639,0.603316327 52.3881803,1.11564626 C53.4914966,1.62797619 54.4447279,2.3252551 55.2482993,3.20748299 C56.0514456,4.09056122 56.6781463,5.12329932 57.1284014,6.30612245 C57.5782313,7.48852041 57.8035714,8.75977891 57.8035714,10.1190476 C57.8035714,11.4787415 57.5782313,12.7542517 57.1284014,13.9455782 C56.6781463,15.1373299 56.0514456,16.1747449 55.2482993,17.0569728 C54.4447279,17.9396259 53.4914966,18.6373299 52.3881803,19.1492347 C51.2848639,19.6607143 50.079932,19.9170918 48.7733844,19.9170918 C47.4494048,19.9170918 46.2355442,19.6607143 45.1326531,19.1492347 C44.0289116,18.6373299 43.0710034,17.9396259 42.2593537,17.0569728 C41.4468537,16.1747449 40.8159014,15.1373299 40.3660714,13.9455782 C39.9158163,12.7542517 39.6904762,11.4787415 39.6904762,10.1190476 C39.6904762,8.75977891 39.9158163,7.48852041 40.3660714,6.30612245 C40.8159014,5.12329932 41.4468537,4.09056122 42.2593537,3.20748299 C43.0710034,2.3252551 44.0289116,1.62797619 45.1326531,1.11564626 C46.2355442,0.603316327 47.4494048,0.347363946 48.7733844,0.347363946 M48.8265306,15.4944728 C49.4264456,15.4944728 50.0004252,15.3584184 50.547619,15.0837585 C51.0948129,14.8107993 51.5761054,14.4353741 51.9910714,13.9591837 C52.4056122,13.482568 52.732568,12.9306973 52.9706633,12.3035714 C53.2091837,11.6772959 53.3282313,11.0106293 53.3282313,10.3039966 C53.3282313,9.58035714 53.2091837,8.90093537 52.9706633,8.26530612 C52.732568,7.62967687 52.4056122,7.07397959 51.9910714,6.59736395 C51.5761054,6.12032313 51.0948129,5.7457483 50.547619,5.47193878 C50.0004252,5.19812925 49.4264456,5.06122449 48.8265306,5.06122449 C48.2083333,5.06122449 47.6215986,5.19812925 47.0654762,5.47193878 C46.5093537,5.7457483 46.0280612,6.12032313 45.6220238,6.59736395 C45.2159864,7.07397959 44.8941327,7.62967687 44.6556122,8.26530612 C44.417517,8.90093537 44.2984694,9.58035714 44.2984694,10.3039966 C44.2984694,11.0106293 44.417517,11.6772959 44.6556122,12.3035714 C44.8941327,12.9306973 45.2159864,13.482568 45.6220238,13.9591837 C46.0280612,14.4353741 46.5093537,14.8107993 47.0654762,15.0837585 C47.6215986,15.3584184 48.2083333,15.4944728 48.8265306,15.4944728" id="Fill-3"></path>
                    <path d="M62.3052721,0.691751701 L72.315051,10.7015306 L82.3252551,0.691751701 L82.3252551,19.5994898 L77.7172619,19.5994898 L77.7172619,11.5229592 L72.1296769,17.3482143 L66.7538265,11.5229592 L66.8864796,19.5994898 L62.3052721,19.5994898 L62.3052721,0.691751701" id="Fill-4"></path>
                    <path d="M96.7563776,0.347363946 C98.0629252,0.347363946 99.2678571,0.603316327 100.371173,1.11564626 C101.47449,1.62797619 102.427721,2.3252551 103.231718,3.20748299 C104.034439,4.09056122 104.661139,5.12329932 105.111395,6.30612245 C105.56165,7.48852041 105.78699,8.75977891 105.78699,10.1190476 C105.78699,11.4787415 105.56165,12.7542517 105.111395,13.9455782 C104.661139,15.1373299 104.034439,16.1747449 103.231718,17.0569728 C102.427721,17.9396259 101.47449,18.6373299 100.371173,19.1492347 C99.2678571,19.6607143 98.0629252,19.9170918 96.7563776,19.9170918 C95.432398,19.9170918 94.2189626,19.6607143 93.1160714,19.1492347 C92.0119048,18.6373299 91.0539966,17.9396259 90.2423469,17.0569728 C89.4306973,16.1747449 88.7988946,15.1373299 88.3494898,13.9455782 C87.8988095,12.7542517 87.6734694,11.4787415 87.6734694,10.1190476 C87.6734694,8.75977891 87.8988095,7.48852041 88.3494898,6.30612245 C88.7988946,5.12329932 89.4306973,4.09056122 90.2423469,3.20748299 C91.0539966,2.3252551 92.0119048,1.62797619 93.1160714,1.11564626 C94.2189626,0.603316327 95.432398,0.347363946 96.7563776,0.347363946 M96.8095238,15.4944728 C97.4094388,15.4944728 97.9834184,15.3584184 98.5306122,15.0837585 C99.0778061,14.8107993 99.5590986,14.4353741 99.9740646,13.9591837 C100.388605,13.482568 100.715986,12.9306973 100.953656,12.3035714 C101.192177,11.6772959 101.311224,11.0106293 101.311224,10.3039966 C101.311224,9.58035714 101.192177,8.90093537 100.953656,8.26530612 C100.715986,7.62967687 100.388605,7.07397959 99.9740646,6.59736395 C99.5590986,6.12032313 99.0778061,5.7457483 98.5306122,5.47193878 C97.9834184,5.19812925 97.4094388,5.06122449 96.8095238,5.06122449 C96.1913265,5.06122449 95.6045918,5.19812925 95.0488946,5.47193878 C94.4923469,5.7457483 94.0110544,6.12032313 93.6054422,6.59736395 C93.1989796,7.07397959 92.8771259,7.62967687 92.6390306,8.26530612 C92.4005102,8.90093537 92.2818878,9.58035714 92.2818878,10.3039966 C92.2818878,11.0106293 92.4005102,11.6772959 92.6390306,12.3035714 C92.8771259,12.9306973 93.1989796,13.482568 93.6054422,13.9591837 C94.0110544,14.4353741 94.4923469,14.8107993 95.0488946,15.0837585 C95.6045918,15.3584184 96.1913265,15.4944728 96.8095238,15.4944728" id="Fill-5"></path>
                    <path d="M110.261905,0.930697279 L115.001701,0.930697279 C116.414541,0.930697279 117.680697,1.00977891 118.802296,1.16836735 C119.923044,1.32738095 120.876276,1.5922619 121.66199,1.9630102 C122.447279,2.33333333 123.047619,2.83248299 123.462585,3.45918367 C123.877126,4.08588435 124.085034,4.86692177 124.085034,5.80272109 C124.085034,6.88010204 123.784864,7.75807823 123.184949,8.43792517 C122.584184,9.11734694 121.860544,9.58078231 121.01318,9.82780612 C121.542942,9.95153061 122.041241,10.1190476 122.509354,10.3307823 C122.977041,10.542517 123.38733,10.8303571 123.741071,11.1913265 C124.093537,11.5535714 124.372024,11.9859694 124.57483,12.4889456 C124.777636,12.9927721 124.879677,13.5973639 124.879677,14.3035714 C124.879677,16.1743197 124.088861,17.525085 122.509354,18.3545918 C120.929422,19.1845238 118.55017,19.5994898 115.372449,19.5994898 L110.261905,19.5994898 L110.261905,0.930697279 L110.261905,0.930697279 Z M116.008503,8.31845238 C117.26148,8.31845238 118.16199,8.19897959 118.709609,7.96130952 C119.256378,7.72236395 119.530187,7.27678571 119.530187,6.62372449 C119.530187,6.00595238 119.269983,5.57312925 118.74915,5.32568027 C118.227891,5.07865646 117.314626,4.95493197 116.008503,4.95493197 L114.525085,4.95493197 L114.525085,8.31845238 L116.008503,8.31845238 L116.008503,8.31845238 Z M115.955357,15.7329932 C116.83801,15.7329932 117.56165,15.6887755 118.126701,15.6003401 C118.691327,15.5123299 119.13733,15.3847789 119.463861,15.2164116 C119.790816,15.0488946 120.015306,14.8329082 120.139031,14.5680272 C120.26233,14.3035714 120.32483,13.9940476 120.32483,13.6407313 C120.32483,12.8465136 119.962585,12.3035714 119.238946,12.0123299 C118.515306,11.7206633 117.43835,11.5761054 116.008503,11.5761054 L114.525085,11.5761054 L114.525085,15.7329932 L115.955357,15.7329932 L115.955357,15.7329932 Z" id="Fill-6"></path>
                    <path d="M138.039966,0.347363946 C139.346088,0.347363946 140.55102,0.603316327 141.654762,1.11564626 C142.758078,1.62797619 143.71131,2.3252551 144.514456,3.20748299 C145.317602,4.09056122 145.944728,5.12329932 146.394558,6.30612245 C146.845238,7.48852041 147.070153,8.75977891 147.070153,10.1190476 C147.070153,11.4787415 146.845238,12.7542517 146.394558,13.9455782 C145.944728,15.1373299 145.317602,16.1747449 144.514456,17.0569728 C143.71131,17.9396259 142.758078,18.6373299 141.654762,19.1492347 C140.55102,19.6607143 139.346088,19.9170918 138.039966,19.9170918 C136.715986,19.9170918 135.502126,19.6607143 134.399235,19.1492347 C133.295493,18.6373299 132.337585,17.9396259 131.525935,17.0569728 C130.714286,16.1747449 130.082483,15.1373299 129.632653,13.9455782 C129.182398,12.7542517 128.957058,11.4787415 128.957058,10.1190476 C128.957058,8.75977891 129.182398,7.48852041 129.632653,6.30612245 C130.082483,5.12329932 130.714286,4.09056122 131.525935,3.20748299 C132.337585,2.3252551 133.295493,1.62797619 134.399235,1.11564626 C135.502126,0.603316327 136.715986,0.347363946 138.039966,0.347363946 M138.093112,15.4944728 C138.693027,15.4944728 139.267007,15.3584184 139.814201,15.0837585 C140.361395,14.8107993 140.842687,14.4353741 141.257228,13.9591837 C141.672194,13.482568 141.99915,12.9306973 142.237245,12.3035714 C142.47534,11.6772959 142.594813,11.0106293 142.594813,10.3039966 C142.594813,9.58035714 142.47534,8.90093537 142.237245,8.26530612 C141.99915,7.62967687 141.672194,7.07397959 141.257228,6.59736395 C140.842687,6.12032313 140.361395,5.7457483 139.814201,5.47193878 C139.267007,5.19812925 138.693027,5.06122449 138.093112,5.06122449 C137.474915,5.06122449 136.88818,5.19812925 136.332058,5.47193878 C135.775935,5.7457483 135.294643,6.12032313 134.889031,6.59736395 C134.482568,7.07397959 134.160714,7.62967687 133.922194,8.26530612 C133.684099,8.90093537 133.565051,9.58035714 133.565051,10.3039966 C133.565051,11.0106293 133.684099,11.6772959 133.922194,12.3035714 C134.160714,12.9306973 134.482568,13.482568 134.889031,13.9591837 C135.294643,14.4353741 135.775935,14.8107993 136.332058,15.0837585 C136.88818,15.3584184 137.474915,15.4944728 138.093112,15.4944728" id="Fill-7"></path>
                    <path d="M149.347364,0.929846939 L154.352041,0.929846939 L158.218537,8.37117347 L162.190476,0.929846939 L166.957483,0.929846939 L160.442602,13.0314626 L160.442602,15.3473639 L158.741922,15.3473639 L158.694728,20.4494048 L154.465986,15.360119 L155.887755,15.3473639 L155.887755,13.269983 L149.347364,0.929846939" id="Fill-8"></path>
                </g>
            </g>
        </g>
    </g>
</svg>