<?xml version="1.0" encoding="UTF-8" standalone="no"?>
<svg width="64px" height="56px" viewBox="0 0 64 56" version="1.1" xmlns="http://www.w3.org/2000/svg" xmlns:xlink="http://www.w3.org/1999/xlink" xmlns:sketch="http://www.bohemiancoding.com/sketch/ns">
    <!-- Generator: Sketch 3.3.2 (12043) - http://www.bohemiancoding.com/sketch -->
    <title>ic-images</title>
    <desc>Created with Sketch.</desc>
    <defs></defs>
    <g id="Landing" stroke="none" stroke-width="1" fill="none" fill-rule="evenodd" sketch:type="MSPage">
        <g id="landing-300-719" sketch:type="MSArtboardGroup" transform="translate(-128.000000, -1320.000000)">
            <g id="2" sketch:type="MSLayerGroup" transform="translate(0.000000, 847.000000)">
                <g id="3" transform="translate(15.000000, 473.000000)" sketch:type="MSShapeGroup">
                    <g id="ic-images" transform="translate(113.000000, 0.000000)">
                        <path d="M41,7 L44,7 L44,0 L0,0 L0,37 L7,37 L7,34 L3,34 L3,3 L41,3 L41,7 Z" id="Rectangle-2-Copy-4" fill="#65D470"></path>
                        <path d="M51,17 L54,17 L54,10 L10,10 L10,47 L17,47 L17,44 L13,44 L13,13 L51,13 L51,17 Z" id="Rectangle-2-Copy-3" fill="#F8BC5F"></path>
                        <path d="M20,20 L64,20 L64,46.6909091 L64,56 L40.7777778,56 L20,56 L20,20 Z M23.0697674,23.0857143 L60.9302326,23.0857143 L60.9302326,52.9142857 L23.0697674,52.9142857 L23.0697674,23.0857143 Z" id="Rectangle-2-Copy-2" fill="#B959E4"></path>
                    </g>
                </g>
            </g>
        </g>
    </g>
</svg>