<?xml version="1.0" encoding="UTF-8" standalone="no"?>
<svg width="411px" height="651px" viewBox="0 0 411 651" version="1.1" xmlns="http://www.w3.org/2000/svg" xmlns:xlink="http://www.w3.org/1999/xlink" xmlns:sketch="http://www.bohemiancoding.com/sketch/ns">
    <!-- Generator: Sketch 3.3.2 (12043) - http://www.bohemiancoding.com/sketch -->
    <title>p-mobile</title>
    <desc>Created with Sketch.</desc>
    <defs></defs>
    <g id="Page-1" stroke="none" stroke-width="1" fill="none" fill-rule="evenodd" sketch:type="MSPage">
        <g id="p-mobile" sketch:type="MSLayerGroup" transform="translate(-24.000000, -22.000000)">
            <g id="Landing" sketch:type="MSShapeGroup">
                <g id="landing-300-719">
                    <g id="6">
                        <g id="bg-icons" transform="translate(0.500000, 0.000000)">
                            <g id="Group" transform="translate(0.000000, 583.000000)">
                                <g id="ic-unblock" transform="translate(55.956488, 56.973764) rotate(10.000000) translate(-55.956488, -56.973764) translate(7.956488, 8.473764)">
                                    <path d="M6.82121026e-13,1 L96,1 L96,97 L6.82121026e-13,97 L6.82121026e-13,1 L6.82121026e-13,1 Z" id="Shape"></path>
                                    <path d="M47.968,17 C30.304,17 16,31.336 16,49 C16,66.664 30.304,81 47.968,81 C65.664,81 80,66.664 80,49 C80,31.336 65.664,17 47.968,17 L47.968,17 Z M48,73 C34.74,73 24,62.26 24,49 C24,35.74 34.74,25 48,25 C61.26,25 72,35.74 72,49 C72,62.26 61.26,73 48,73 L48,73 Z M61.9999023,41.8 C61.9999023,39.144 59.8559023,37 57.1999023,37 C54.5439023,37 52.3999023,39.144 52.3999023,41.8 C52.3999023,44.456 54.5439023,46.6 57.1999023,46.6 C59.8559023,46.6 61.9999023,44.456 61.9999023,41.8 L61.9999023,41.8 Z M38.8,46.6 C41.456,46.6 43.6,44.456 43.6,41.8 C43.6,39.144 41.456,37 38.8,37 C36.144,37 34,39.144 34,41.8 C34,44.456 36.144,46.6 38.8,46.6 L38.8,46.6 Z M62.8001957,53.7999878 L33.2001953,53.7999878 C35.5172208,60.3279877 41.2518588,64.9999876 48.0001955,64.9999876 C54.7485322,64.9999876 60.4831702,60.3279877 62.8001957,53.7999878 L62.8001957,53.7999878 Z" id="Shape-Copy" fill-opacity="0.08" fill="#FFFFFF"></path>
                                </g>
                            </g>
                            <g id="Group-Copy-3" transform="translate(58.000000, 0.000000)">
                                <g id="ic-content" transform="translate(276.475548, 107.491944) rotate(-10.000000) translate(-276.475548, -107.491944) translate(228.475548, 59.491944)">
                                    <path d="M1.10844667e-12,4.8316906e-13 L96,4.8316906e-13 L96,96 L1.10844667e-12,96 L1.10844667e-12,4.8316906e-13 L1.10844667e-12,4.8316906e-13 Z" id="Shape"></path>
                                    <path d="M28,32 L84,32 L84,80 L28,80 L28,32 L28,32 Z M36,40 L76,40 L76,72 L36,72 L36,40 L36,40 Z" id="Rectangle-2" fill-opacity="0.08" fill="#FFFFFF"></path>
                                    <path d="M60,40 L68,40 L68,16 L12,16 L12,64 L36,64 L36,56 L20,56 L20,24 L60,24 L60,40 L60,40 Z" id="Rectangle-2-Copy" fill-opacity="0.08" fill="#FFFFFF"></path>
                                </g>
                                <g id="ic-blocked-copy" transform="translate(84.000000, 183.000000)">
                                    <path d="M0,0 L96,0 L96,96 L0,96 L0,0 L0,0 Z" id="Shape"></path>
                                    <path d="M67.5629917,34.0938626 C70.3568361,38.017138 72,42.8166783 72,48 C72,61.254834 61.254834,72 48,72 C42.8166783,72 38.017138,70.3568361 34.0938626,67.5629917 L67.5629917,34.0938626 L67.5629917,34.0938626 Z M61.9061374,28.4370083 C57.982862,25.6431639 53.1833217,24 48,24 C34.745166,24 24,34.745166 24,48 C24,53.1833217 25.6431639,57.982862 28.4370083,61.9061374 L61.9061374,28.4370083 L61.9061374,28.4370083 Z M48,80 C30.326888,80 16,65.673112 16,48 C16,30.326888 30.326888,16 48,16 C65.673112,16 80,30.326888 80,48 C80,65.673112 65.673112,80 48,80 L48,80 Z" id="Path" fill-opacity="0.08" fill="#FFFFFF"></path>
                                </g>
                                <g id="ic-not-spam" transform="translate(69.000000, 54.000000) rotate(7.000000) translate(-69.000000, -54.000000) translate(21.000000, 6.000000)">
                                    <path d="M0,0 L96,0 L96,96 L0,96 L0,0 L0,0 Z" id="Shape"></path>
                                    <path d="M48,80 C30.326888,80 16,65.673112 16,48 C16,30.326888 30.326888,16 48,16 C65.673112,16 80,30.326888 80,48 C80,65.673112 65.673112,80 48,80 L48,80 Z M48,72 C61.254834,72 72,61.254834 72,48 C72,34.745166 61.254834,24 48,24 C34.745166,24 24,34.745166 24,48 C24,61.254834 34.745166,72 48,72 L48,72 Z M44,56 L52,56 L52,64 L44,64 L44,56 L44,56 Z M44,32 L52,32 L52,52 L44,52 L44,32 L44,32 Z" id="Shape" fill-opacity="0.08" fill="#FFFFFF"></path>
                                </g>
                                <g id="ic-unblock" transform="translate(343.869664, 510.466168) rotate(10.000000) translate(-343.869664, -510.466168) translate(295.869664, 462.466168)">
                                    <path d="M1.13686838e-12,0 L96,0 L96,96 L1.13686838e-12,96 L1.13686838e-12,0 L1.13686838e-12,0 Z" id="Shape"></path>
                                    <path d="M47.968,16 C30.304,16 16,30.336 16,48 C16,65.664 30.304,80 47.968,80 C65.664,80 80,65.664 80,48 C80,30.336 65.664,16 47.968,16 L47.968,16 Z M48,72 C34.74,72 24,61.26 24,48 C24,34.74 34.74,24 48,24 C61.26,24 72,34.74 72,48 C72,61.26 61.26,72 48,72 L48,72 Z M61.9999023,40.8 C61.9999023,38.144 59.8559023,36 57.1999023,36 C54.5439023,36 52.3999023,38.144 52.3999023,40.8 C52.3999023,43.456 54.5439023,45.6 57.1999023,45.6 C59.8559023,45.6 61.9999023,43.456 61.9999023,40.8 L61.9999023,40.8 Z M38.8,45.6 C41.456,45.6 43.6,43.456 43.6,40.8 C43.6,38.144 41.456,36 38.8,36 C36.144,36 34,38.144 34,40.8 C34,43.456 36.144,45.6 38.8,45.6 L38.8,45.6 Z M62.8001957,52.7999878 L33.2001953,52.7999878 C35.5172208,59.3279877 41.2518588,63.9999876 48.0001955,63.9999876 C54.7485322,63.9999876 60.4831702,59.3279877 62.8001957,52.7999878 L62.8001957,52.7999878 Z" id="Shape-Copy" fill-opacity="0.08" fill="#FFFFFF"></path>
                                </g>
                                <g id="ic-delete" transform="translate(56.492404, 415.086824) rotate(10.000000) translate(-56.492404, -415.086824) translate(7.992404, 367.086824)">
                                    <rect id="Rectangle-1137" x="5.4001248e-13" y="0" width="96" height="96"></rect>
                                    <path d="M53.6568542,48 L70.8284271,65.1715729 L65.1715729,70.8284271 L48,53.6568542 L30.8284271,70.8284271 L25.1715729,65.1715729 L42.3431458,48 L25.1715729,30.8284271 L30.8284271,25.1715729 L48,42.3431458 L65.1715729,25.1715729 L70.8284271,30.8284271 L53.6568542,48 L53.6568542,48 Z" id="Shape" fill-opacity="0.08" fill="#FFFFFF"></path>
                                </g>
                                <path d="M147.231709,616.834525 C153.279394,618.198712 157.794092,623.575238 157.794092,630 L130.633678,630 C130.633678,623.575238 135.148377,618.198712 141.196062,616.834525 L141.196062,594 L147.231709,594 L147.231709,616.834525 L147.231709,616.834525 Z M183.445595,616.834525 L183.445595,594 L177.409947,594 L177.409947,616.834525 C171.362262,618.198712 166.847564,623.575238 166.847564,630 L194.007978,630 C194.007978,623.575238 189.493279,618.198712 183.445595,616.834525 L183.445595,616.834525 L183.445595,616.834525 Z M189.481242,558.610269 C192.713632,559.452649 196.24352,560.984608 199.532175,563.511076 C204.791328,567.53922 209.063101,574.344776 209.522961,584.08703 C213.282121,585.37478 215.997706,588.836449 216,592.959941 C216,598.172636 211.677769,602.397083 206.352102,602.400449 L206.352102,598.208531 C209.309659,598.204044 211.706439,595.854013 211.715613,592.959941 C211.706439,590.062504 209.309659,587.711351 206.352102,587.707986 C203.384224,587.711351 200.984004,590.063626 200.98171,592.959941 L196.693883,592.959941 C196.697323,588.743345 199.544789,585.216616 203.44271,584.004022 C202.942712,576.018402 199.689284,571.256645 195.761547,568.165147 C193.784447,566.613982 191.57561,565.534597 189.481242,564.825069 L189.481242,594 L135.160414,594 L135.160414,564.61794 C132.880802,565.317742 130.418722,566.454582 128.238453,568.165147 C124.310716,571.256645 121.057288,576.018402 120.55729,584.004022 C124.455211,585.216616 127.302677,588.743345 127.306117,592.959941 L123.01829,592.959941 C123.015996,590.063626 120.615776,587.711351 117.647898,587.707986 C114.690341,587.711351 112.293561,590.062504 112.284387,592.959941 C112.293561,595.854013 114.690341,598.204044 117.647898,598.208531 L117.647898,602.400449 C112.322231,602.397083 108,598.172636 108,592.959941 C108.002294,588.836449 110.717879,585.37478 114.477039,584.08703 C114.936899,574.344776 119.208672,567.53922 124.467825,563.511076 C127.975485,560.816361 131.757577,559.253021 135.160414,558.45106 L135.160414,555 L189.481242,555 L189.481242,558.610269 L189.481242,558.610269 Z M147.231709,519 L177.409947,519 L177.409947,549 L147.231709,549 L147.231709,519 L147.231709,519 Z M180.427771,537 C184.594516,537 187.97233,533.642136 187.97233,529.5 C187.97233,525.357864 184.594516,522 180.427771,522 L180.427771,537 L180.427771,537 Z M144.213885,537 C140.04714,537 136.669326,533.642136 136.669326,529.5 C136.669326,525.357864 140.04714,522 144.213885,522 L144.213885,537 L144.213885,537 Z M150.249533,567 L156.28518,567 L156.28518,573 L150.249533,573 L150.249533,567 L150.249533,567 Z M159.303004,567 L165.338652,567 L165.338652,573 L159.303004,573 L159.303004,567 L159.303004,567 Z M168.356476,567 L174.392123,567 L174.392123,573 L168.356476,573 L168.356476,567 L168.356476,567 Z M150.249533,576 L156.28518,576 L156.28518,582 L150.249533,582 L150.249533,576 L150.249533,576 Z M159.303004,576 L165.338652,576 L165.338652,582 L159.303004,582 L159.303004,576 L159.303004,576 Z M168.356476,576 L174.392123,576 L174.392123,582 L168.356476,582 L168.356476,576 L168.356476,576 Z M154.776269,538.5 C157.276316,538.5 159.303004,536.485281 159.303004,534 C159.303004,531.514719 157.276316,529.5 154.776269,529.5 C152.276222,529.5 150.249533,531.514719 150.249533,534 C150.249533,536.485281 152.276222,538.5 154.776269,538.5 L154.776269,538.5 Z M169.865388,538.5 C172.365435,538.5 174.392123,536.485281 174.392123,534 C174.392123,531.514719 172.365435,529.5 169.865388,529.5 C167.36534,529.5 165.338652,531.514719 165.338652,534 C165.338652,536.485281 167.36534,538.5 169.865388,538.5 L169.865388,538.5 Z" id="Path-Copy-2" fill-opacity="0.08" fill="#FFFFFF" transform="translate(162.000000, 574.500000) rotate(10.000000) translate(-162.000000, -574.500000) "></path>
                                <g id="ic-comments-copy-2" transform="translate(228.000000, 289.000000)">
                                    <path d="M0,0 L96,0 L96,96 L0,96 L0,0 L0,0 Z" id="Shape"></path>
                                    <path d="M19.8554239,64.0843208 C17.3946062,59.8846905 16,55.0904033 16,50 C16,33.4314575 30.7746033,20 49,20 C67.2253967,20 82,33.4314575 82,50 C82,66.5685425 67.2253967,80 49,80 C43.0395689,80 37.4482176,78.5634376 32.6220368,76.0503951 L18,78 L19.8554239,64.0843208 L19.8554239,64.0843208 Z" id="Oval-1" stroke-opacity="0.08" stroke="#FFFFFF" stroke-width="8"></path>
                                </g>
                            </g>
                        </g>
                    </g>
                </g>
            </g>
        </g>
    </g>
</svg>