<?xml version="1.0" encoding="UTF-8" standalone="no"?>
<svg width="79px" height="20px" viewBox="0 0 79 20" version="1.1" xmlns="http://www.w3.org/2000/svg" xmlns:xlink="http://www.w3.org/1999/xlink" xmlns:sketch="http://www.bohemiancoding.com/sketch/ns">
    <!-- Generator: Sketch 3.3.2 (12043) - http://www.bohemiancoding.com/sketch -->
    <title>paypal</title>
    <desc>Created with Sketch.</desc>
    <defs>
        <path id="path-1" d="M0,0.458378378 L78.7409021,0.458378378 L78.7409021,19.9675676 L0,19.9675676"></path>
        <path id="path-3" d="M0,0.458378378 L78.7409021,0.458378378 L78.7409021,19.9675676 L0,19.9675676"></path>
    </defs>
    <g id="New" stroke="none" stroke-width="1" fill="none" fill-rule="evenodd" sketch:type="MSPage">
        <g id="3-1-1180" sketch:type="MSArtboardGroup" transform="translate(-389.000000, -859.000000)">
            <g id="Foote" sketch:type="MSLayerGroup" transform="translate(170.000000, 859.000000)">
                <g id="paypal" transform="translate(219.000000, 0.000000)">
                    <g id="Group-3">
                        <mask id="mask-2" sketch:name="Clip 2" fill="white">
                            <use xlink:href="#path-1"></use>
                        </mask>
                        <g id="Clip-2"></g>
                        <path d="M14.4105944,1.93189189 C13.4857972,0.900540541 11.8140909,0.458378378 9.67556643,0.458378378 L3.46881818,0.458378378 C3.03127972,0.458378378 2.65948252,0.76972973 2.59097902,1.19189189 L0.00662937063,17.2291892 C-0.0447482517,17.5454054 0.20551049,17.8318919 0.533111888,17.8318919 L4.36488811,17.8318919 L5.32725175,11.8594595 L5.29741958,12.0464865 C5.36592308,11.6243243 5.73495804,11.312973 6.17194406,11.312973 L7.99281119,11.312973 C11.5699091,11.312973 14.3708182,9.89135135 15.188993,5.77891892 C15.2133007,5.6572973 15.2342937,5.53891892 15.2525245,5.42324324 C15.1492168,5.36972973 15.1492168,5.36972973 15.2525245,5.42324324 C15.4961538,3.90324324 15.2508671,2.86864865 14.4105944,1.93189189" id="Fill-1" fill="#27346A" sketch:type="MSShapeGroup" mask="url(#mask-2)"></path>
                    </g>
                    <path d="M61.3205734,9.56324324 C61.0863357,11.0681081 59.9118322,11.0681081 58.7754476,11.0681081 L58.1290839,11.0681081 L58.5826434,8.25837838 C58.6097133,8.08864865 58.7594266,7.96378378 58.9351049,7.96378378 L59.2317692,7.96378378 C60.0051958,7.96378378 60.7355315,7.96378378 61.1123007,8.39459459 C61.3376993,8.65243243 61.4056503,9.03513514 61.3205734,9.56324324 M60.8261329,5.63675676 L56.5413497,5.63675676 C56.248,5.63675676 55.9988462,5.84540541 55.952993,6.12864865 L54.2205175,16.8789189 C54.1862657,17.0908108 54.3542098,17.2827027 54.572979,17.2827027 L56.7717203,17.2827027 C56.9766783,17.2827027 57.1512517,17.1367568 57.1832937,16.9389189 L57.674972,13.8908108 C57.7202727,13.6075676 57.969979,13.3989189 58.2627762,13.3989189 L59.6184825,13.3989189 C62.4409371,13.3989189 64.0701049,12.0627027 64.4954895,9.41351351 C64.6871888,8.25567568 64.5032238,7.34540541 63.9491189,6.70810811 C63.3397692,6.00756757 62.2597343,5.63675676 60.8261329,5.63675676" id="Fill-4" fill="#2790C3" sketch:type="MSShapeGroup"></path>
                    <path d="M30.7591748,9.56324324 C30.5249371,11.0681081 29.3504336,11.0681081 28.214049,11.0681081 L27.5676853,11.0681081 L28.0212448,8.25837838 C28.0483147,8.08864865 28.198028,7.96378378 28.3737063,7.96378378 L28.6703706,7.96378378 C29.4437972,7.96378378 30.1741329,7.96378378 30.5509021,8.39459459 C30.7763007,8.65243243 30.8442517,9.03513514 30.7591748,9.56324324 M30.2647343,5.63675676 L25.979951,5.63675676 C25.6866014,5.63675676 25.4374476,5.84540541 25.3915944,6.12864865 L23.6591189,16.8789189 C23.6248671,17.0908108 23.7922587,17.2827027 24.0115804,17.2827027 L26.0578462,17.2827027 C26.3506434,17.2827027 26.5997972,17.0740541 26.6456503,16.7913514 L27.1135734,13.8908108 C27.1588741,13.6075676 27.4085804,13.3989189 27.7013776,13.3989189 L29.0570839,13.3989189 C31.8795385,13.3989189 33.5087063,12.0627027 33.9340909,9.41351351 C34.1257902,8.25567568 33.9418252,7.34540541 33.3877203,6.70810811 C32.7783706,6.00756757 31.6983357,5.63675676 30.2647343,5.63675676" id="Fill-5" fill="#27346A" sketch:type="MSShapeGroup"></path>
                    <path d="M40.2121049,13.4227027 C40.0137762,14.5697297 39.0834545,15.34 37.8962448,15.34 C37.3012587,15.34 36.8244965,15.1524324 36.5184406,14.7978378 C36.2151469,14.4464865 36.1007902,13.9454054 36.1969161,13.3881081 C36.3814336,12.2508108 37.3272238,11.4562162 38.4962028,11.4562162 C39.079035,11.4562162 39.5519301,11.6454054 39.8640629,12.0032432 C40.1784056,12.3637838 40.3021538,12.8675676 40.2121049,13.4227027 M43.0715734,9.51513514 L41.0197832,9.51513514 C40.8441049,9.51513514 40.6943916,9.64 40.6667692,9.81027027 L40.5767203,10.3713514 L40.4336364,10.1681081 C39.9889161,9.5372973 38.9983776,9.32594595 38.0094965,9.32594595 C35.7428042,9.32594595 33.8064755,11.007027 33.4297063,13.3643243 C33.2335874,14.5405405 33.512021,15.6643243 34.1937413,16.4486486 C34.8196643,17.1691892 35.712972,17.4691892 36.7775385,17.4691892 C38.605035,17.4691892 39.6182238,16.3210811 39.6182238,16.3210811 L39.5265175,16.8789189 C39.4922657,17.0908108 39.6596573,17.2827027 39.8795315,17.2827027 L41.7269161,17.2827027 C42.0202657,17.2827027 42.2694196,17.0745946 42.3152727,16.7913514 L43.4245874,9.91891892 C43.4588392,9.70702703 43.2908951,9.51513514 43.0715734,9.51513514" id="Fill-6" fill="#27346A" sketch:type="MSShapeGroup"></path>
                    <g id="Group-14">
                        <mask id="mask-4" sketch:name="Clip 8" fill="white">
                            <use xlink:href="#path-3"></use>
                        </mask>
                        <g id="Clip-8"></g>
                        <path d="M70.7735035,13.4227027 C70.5751748,14.5697297 69.6448531,15.34 68.4576434,15.34 C67.8626573,15.34 67.3858951,15.1524324 67.0798392,14.7978378 C66.775993,14.4464865 66.6621888,13.9454054 66.7583147,13.3881081 C66.9428322,12.2508108 67.8886224,11.4562162 69.0576014,11.4562162 C69.6404336,11.4562162 70.1133287,11.6454054 70.4254615,12.0032432 C70.7398042,12.3637838 70.8635524,12.8675676 70.7735035,13.4227027 M73.632972,9.51513514 L71.5811818,9.51513514 C71.4055035,9.51513514 71.2557902,9.64 71.2281678,9.81027027 L71.1381189,10.3713514 L70.9944825,10.1681081 C70.5503147,9.5372973 69.5597762,9.32594595 68.5708951,9.32594595 C66.3042028,9.32594595 64.3678741,11.007027 63.9911049,13.3643243 C63.794986,14.5405405 64.0734196,15.6643243 64.7551399,16.4486486 C65.3810629,17.1691892 66.2743706,17.4691892 67.3389371,17.4691892 C69.1664336,17.4691892 70.1796224,16.3210811 70.1796224,16.3210811 L70.0879161,16.8789189 C70.0536643,17.0908108 70.2210559,17.2827027 70.4409301,17.2827027 L72.2883147,17.2827027 C72.5816643,17.2827027 72.8308182,17.0745946 72.8766713,16.7913514 L73.985986,9.91891892 C74.0202378,9.70702703 73.8522937,9.51513514 73.632972,9.51513514" id="Fill-7" fill="#2790C3" sketch:type="MSShapeGroup" mask="url(#mask-4)"></path>
                        <path d="M53.9995385,9.51513514 L51.9372517,9.51513514 C51.740028,9.51513514 51.5555105,9.61081081 51.445021,9.77081081 L48.5999161,13.8702703 L47.3944755,9.93081081 C47.3187902,9.68432432 47.0867622,9.51513514 46.8237972,9.51513514 L44.7968671,9.51513514 C44.5521329,9.51513514 44.3797692,9.75081081 44.4587692,9.9772973 L46.7293287,16.4994595 L44.5935664,19.4481081 C44.4261748,19.6794595 44.5952238,19.9994595 44.8852587,19.9994595 L46.9453357,19.9994595 C47.1403497,19.9994595 47.3232098,19.9059459 47.4348042,19.7491892 L54.2928881,10.0637838 C54.456965,9.83189189 54.2879161,9.51513514 53.9995385,9.51513514" id="Fill-9" fill="#27346A" sketch:type="MSShapeGroup" mask="url(#mask-4)"></path>
                        <path d="M76.051035,5.93243243 L74.2925944,16.8794595 C74.2583427,17.0913514 74.4257343,17.2832432 74.6450559,17.2832432 L76.413993,17.2832432 C76.7067902,17.2832432 76.9564965,17.0745946 77.0017972,16.7913514 L78.7359301,6.04108108 C78.7701818,5.82918919 78.6027902,5.6372973 78.3829161,5.6372973 L76.404049,5.6372973 C76.2278182,5.6372973 76.0781049,5.76216216 76.051035,5.93243243" id="Fill-10" fill="#2790C3" sketch:type="MSShapeGroup" mask="url(#mask-4)"></path>
                        <path d="M14.4105944,1.93189189 C13.4857972,0.900540541 11.8140909,0.458378378 9.67556643,0.458378378 L3.46881818,0.458378378 C3.03127972,0.458378378 2.65948252,0.76972973 2.59097902,1.19189189 L0.00662937063,17.2291892 C-0.0447482517,17.5454054 0.20551049,17.8318919 0.533111888,17.8318919 L4.36488811,17.8318919 L5.32725175,11.8594595 L5.29741958,12.0464865 C5.36592308,11.6243243 5.73495804,11.312973 6.17194406,11.312973 L7.99281119,11.312973 C11.5699091,11.312973 14.3708182,9.89135135 15.188993,5.77891892 C15.2133007,5.6572973 15.2342937,5.53891892 15.2525245,5.42324324 C15.1492168,5.36972973 15.1492168,5.36972973 15.2525245,5.42324324 C15.4961538,3.90324324 15.2508671,2.86864865 14.4105944,1.93189189" id="Fill-11" fill="#27346A" sketch:type="MSShapeGroup" mask="url(#mask-4)"></path>
                        <path d="M6.36143357,5.44324324 C6.40231469,5.18918919 6.56915385,4.98108108 6.79344755,4.87567568 C6.89565035,4.82810811 7.00945455,4.80162162 7.12878322,4.80162162 L11.9947413,4.80162162 C12.5709441,4.80162162 13.1084755,4.83837838 13.5996014,4.91567568 C13.7404755,4.93783784 13.8769301,4.96324324 14.0095175,4.99243243 C14.1421049,5.02108108 14.2708252,5.05351351 14.3956783,5.08918919 C14.4581049,5.10702703 14.5194266,5.12540541 14.5796434,5.14486486 C14.8210629,5.22378378 15.0459091,5.31567568 15.2525245,5.42324324 C15.4961538,3.9027027 15.2508671,2.86864865 14.4105944,1.93189189 C13.4852448,0.900540541 11.8140909,0.458378378 9.67556643,0.458378378 L3.46826573,0.458378378 C3.03127972,0.458378378 2.65948252,0.76972973 2.59097902,1.19189189 L0.00662937063,17.2286486 C-0.0447482517,17.5454054 0.20551049,17.8313514 0.532559441,17.8313514 L4.36488811,17.8313514 L6.36143357,5.44324324" id="Fill-12" fill="#27346A" sketch:type="MSShapeGroup" mask="url(#mask-4)"></path>
                        <path d="M15.2525245,5.42324324 L15.2525245,5.42324324 C15.2337413,5.53945946 15.2133007,5.6572973 15.188993,5.77891892 C14.3708182,9.89081081 11.5699091,11.312973 7.99281119,11.312973 L6.17139161,11.312973 C5.73440559,11.312973 5.36537063,11.6243243 5.29741958,12.0464865 L4.10026573,19.4724324 C4.05551748,19.7491892 4.27428671,20 4.56045455,20 L7.79061538,20 C8.17290909,20 8.4983007,19.7275676 8.55796503,19.3583784 L8.58945455,19.1972973 L9.19825175,15.4221622 L9.23747552,15.2135135 C9.29713986,14.8443243 9.62253147,14.5718919 10.0048252,14.5718919 L10.4882168,14.5718919 C13.6172797,14.5718919 16.0673846,13.3281081 16.7833566,9.73081081 C17.0822308,8.22756757 16.9275455,6.97243243 16.136993,6.09081081 C15.8972308,5.82378378 15.5994615,5.60324324 15.2525245,5.42324324" id="Fill-13" fill="#2790C3" sketch:type="MSShapeGroup" mask="url(#mask-4)"></path>
                    </g>
                    <path d="M14.3962308,5.08918919 C14.2713776,5.05351351 14.1426573,5.02108108 14.0100699,4.99243243 C13.8774825,4.96378378 13.7404755,4.93837838 13.6001538,4.91621622 C13.1084755,4.83837838 12.5714965,4.80162162 11.9947413,4.80162162 L7.12933566,4.80162162 C7.00945455,4.80162162 6.89565035,4.82810811 6.794,4.87621622 C6.56915385,4.98162162 6.40286713,5.18918919 6.36198601,5.44378378 L5.3278042,11.8594595 L5.29797203,12.0464865 C5.36592308,11.6243243 5.73495804,11.312973 6.17194406,11.312973 L7.99336364,11.312973 C11.5704615,11.312973 14.3713706,9.89135135 15.1895455,5.77891892 C15.2138531,5.6572973 15.2342937,5.53945946 15.2530769,5.42324324 C15.0459091,5.31621622 14.8216154,5.22378378 14.5801958,5.14540541 C14.519979,5.12594595 14.4586573,5.10702703 14.3962308,5.08918919" id="Fill-15" fill="#1F264F" sketch:type="MSShapeGroup"></path>
                </g>
            </g>
        </g>
    </g>
</svg>