<?xml version="1.0" encoding="UTF-8" standalone="no"?>
<svg width="62px" height="60px" viewBox="0 0 62 60" version="1.1" xmlns="http://www.w3.org/2000/svg" xmlns:xlink="http://www.w3.org/1999/xlink" xmlns:sketch="http://www.bohemiancoding.com/sketch/ns">
    <!-- Generator: Sketch 3.3.2 (12043) - http://www.bohemiancoding.com/sketch -->
    <title>ic-filter</title>
    <desc>Created with Sketch.</desc>
    <defs></defs>
    <g id="Landing" stroke="none" stroke-width="1" fill="none" fill-rule="evenodd" sketch:type="MSPage">
        <g id="landing-300-719" sketch:type="MSArtboardGroup" transform="translate(-128.000000, -1119.000000)">
            <g id="2" sketch:type="MSLayerGroup" transform="translate(0.000000, 847.000000)">
                <g transform="translate(15.000000, 271.000000)" id="ic-filter" sketch:type="MSShapeGroup">
                    <g transform="translate(113.000000, 0.000000)">
                        <path d="M27,59.7142857 L27,59.7142857 L25.8182421,60.2207534 L24,59.0218115 L24,57.7360972 L36.8182421,52.2425649 L35,55 L35,28 L35,26.8593395 L35.7578446,26.0068268 L57.9877657,1 L60.654628,1 L61.1067377,2.00682681 L59.3348983,4 L2.66666667,4 L0.895029763,2.00690848 L1.34719819,1 L4.01386486,1 L26.242228,26.0069085 L27,26.859402 L27,28 L27,59.7142857 Z M24,61 L24,28 L0,1 L62.0017605,1 L38,28 L38,55 L24,61 L24,61 Z" id="Shape" fill="#5BC3F9"></path>
                        <path d="M20.5,15 L31,26.5 L41.5,15 L20.5,15 Z" id="Path-1434" fill="#F8BC5F"></path>
                    </g>
                </g>
            </g>
        </g>
    </g>
</svg>