<?xml version="1.0" standalone="no"?>
<!DOCTYPE svg PUBLIC "-//W3C//DTD SVG 1.1//EN" "http://www.w3.org/Graphics/SVG/1.1/DTD/svg11.dtd" >
<svg xmlns="http://www.w3.org/2000/svg">
<metadata>
Created by FontPrep 20130207 at Thu Jan 22 16:43:40 2015
 By Nikita Drozd
Copyright (c) 1990 Adobe Systems Incorporated. All Rights Reserved.Gill Sans is a trademark of The Monotype Corporation Plc.
</metadata>
<defs>
<font id="70637c5addb3954a784141b26be833e6" horiz-adv-x='1024' >
  <font-face 
    font-family="GillSansC"
    font-weight="400"
    font-stretch="normal"
    units-per-em="2048"
    panose-1="0 0 5 0 0 0 0 0 0 0"
    ascent="1575"
    descent="-473"
    x-height="920"
    cap-height="1397"
    bbox="-127 -473 2171 1864"
    underline-thickness="102"
    underline-position="-102"
    unicode-range="U+0020-2122"
  />
<missing-glyph 
 />
    <glyph glyph-name=".notdef" 
 />
    <glyph glyph-name=".null" horiz-adv-x="0" 
 />
    <glyph glyph-name="nonmarkingreturn" horiz-adv-x="681" 
 />
    <glyph glyph-name="space" unicode=" " horiz-adv-x="569" 
 />
    <glyph glyph-name="space" unicode="&#xa0;" horiz-adv-x="569" 
 />
    <glyph glyph-name="exclam" unicode="!" horiz-adv-x="555" 
d="M279 227q51 0 87 -36t36 -87t-36 -87q-36 -35 -87 -35t-88 35q-36 36 -35 87q0 51 35 87q37 36 88 36zM162 1112q0 303 114 303t115 -303q0 -135 -12 -219l-51 -352q-18 -129 -52 -129t-51 129l-51 352q-12 84 -12 219z" />
    <glyph glyph-name="quotedbl" unicode="&#x22;" horiz-adv-x="724" 
d="M98 1466h181v-239l-48 -281h-86l-47 281v239zM446 1466h181v-239l-47 -281h-86l-48 281v239z" />
    <glyph glyph-name="numbersign" unicode="#" horiz-adv-x="1196" 
d="M436 723l-74 -348h398l74 348h-398zM1196 864v-141h-215l-74 -348h289v-142h-317l-84 -399h-148l84 399h-397l-84 -399h-148l84 399h-184v142h213l74 348h-287v141h315l84 400h148l-84 -400h397l84 400h148l-84 -400h186z" />
    <glyph glyph-name="dollar" unicode="$" horiz-adv-x="1110" 
d="M831 344q0 63 -39 110q-41 46 -135 83v-369q174 41 174 176zM307 993q0 -121 182 -182v350q-80 -10 -131 -57t-51 -111zM1028 364q0 -136 -97 -250t-274 -132v-224h-168v224q-154 8 -385 143v248q102 -92 180 -135t205 -72v442q-186 48 -284 148t-99 211q0 151 102 249
t281 125v74h168v-74q71 -7 161 -41t145 -79v-222q-53 53 -139 99t-167 63v-405q175 -48 273 -152t98 -240z" />
    <glyph glyph-name="percent" unicode="%" horiz-adv-x="1392" 
d="M366 938q68 0 114 47t46 114t-46 115t-114 48q-67 0 -115 -48t-48 -116q0 -66 48 -113t115 -47zM364 1413q128 0 221 -92t93 -221t-93 -221q-93 -93 -221 -93t-220 92t-93 221q0 130 92 222q93 92 221 92zM1233 1415l-920 -1435h-153l919 1435h154zM1027 606
q128 0 221 -92t93 -221t-93 -221t-221 -92t-220 91t-92 221t92 222t220 92zM1029 455q-67 0 -115 -48t-48 -115t48 -114t115 -47t114 47t47 114t-47 115t-114 48z" />
    <glyph glyph-name="ampersand" unicode="&#x26;" horiz-adv-x="1280" 
d="M426 1067q0 -113 129 -238q106 68 144 119q38 50 38 110t-45 101q-44 41 -112 41t-111 -38t-43 -95zM430 166q135 0 299 164l-227 262q-128 -82 -186 -142t-58 -137q4 -59 54 -103t118 -44zM229 1042q1 152 99 240t252 88t248 -87q96 -87 96 -203t-60 -203
q-60 -88 -196 -183l196 -225q91 90 150 225h200q-63 -182 -227 -366l283 -328h-258l-160 190q-231 -209 -442 -208q-143 0 -248 96q-104 96 -105 235q0 221 330 412q-158 165 -158 317z" />
    <glyph glyph-name="quotesingle" unicode="'" horiz-adv-x="385" 
d="M102 1466h181v-239l-47 -281h-86l-48 281v239z" />
    <glyph glyph-name="parenleft" unicode="(" horiz-adv-x="661" 
d="M342 475q0 -553 295 -946h-109q-184 182 -290 435t-107 511q0 258 107 511q106 253 290 435h109q-295 -393 -295 -946z" />
    <glyph glyph-name="parenright" unicode=")" horiz-adv-x="661" 
d="M319 475q0 553 -294 946h108q185 -182 291 -435t106 -511t-106 -511t-291 -435h-108q294 393 294 946z" />
    <glyph glyph-name="asterisk" unicode="*" horiz-adv-x="854" 
d="M430 1487q45 0 59 -36t7 -83l-52 -266q27 -6 41 -25l205 178q81 71 135 0q23 -39 -1 -69t-68 -47l-256 -88q4 -12 0 -47l256 -89q42 -14 66 -47t1 -71q-54 -69 -135 2l-205 178q-20 -14 -41 -21l52 -268q8 -43 -8 -80t-60 -39q-86 2 -66 119l52 268q-25 10 -39 25
l-207 -180q-33 -29 -70 -33t-65 33q-23 39 1 69t68 48l260 90q-8 20 2 43l-262 90q-42 14 -66 47t-1 72q54 69 135 -3l205 -178q23 18 41 23l-52 266q-8 43 8 81t60 38z" />
    <glyph glyph-name="plus" unicode="+" horiz-adv-x="1196" 
d="M514 1206h168v-399h399v-168h-399v-399h-168v399h-399v168h399v399z" />
    <glyph glyph-name="comma" unicode="," horiz-adv-x="448" 
d="M94 135q0 51 34 84t94 33t99 -54t39 -146t-62 -177q-62 -84 -177 -117v39q49 33 68 100t6 123q-45 2 -73 33t-28 82z" />
    <glyph glyph-name="hyphen" unicode="-" horiz-adv-x="661" 
d="M580 547v-191h-498v191h498z" />
    <glyph glyph-name="hyphen" unicode="&#xad;" horiz-adv-x="661" 
d="M580 547v-191h-498v191h498z" />
    <glyph glyph-name="period" unicode="." horiz-adv-x="448" 
d="M223 227q51 0 87 -36t36 -87t-36 -87q-36 -35 -87 -35t-87 36t-36 86q0 51 36 87t87 36z" />
    <glyph glyph-name="slash" unicode="/" horiz-adv-x="575" 
d="M16 -18l402 1433h143l-401 -1433h-144z" />
    <glyph glyph-name="zero" unicode="0" 
d="M762 698q0 246 -67 386t-183 140t-184 -140q-66 -140 -66 -386t67 -386t183 -140t184 140q66 140 66 386zM963 699q0 -323 -124 -521t-327 -196q-203 0 -327 198t-124 520t124 519t327 197t327 -198q124 -196 124 -519z" />
    <glyph glyph-name="one" unicode="1" 
d="M672 0h-209v1071l-266 -219l-78 174l477 389h76v-1415z" />
    <glyph glyph-name="two" unicode="2" 
d="M954 190v-190h-884v14q334 406 446 580q92 152 115 216t23 162t-68 173q-68 74 -172 74q-168 0 -316 -189v252q166 133 342 133t295 -122t119 -300t-95 -345t-339 -458h534z" />
    <glyph glyph-name="three" unicode="3" 
d="M454 1415q166 0 279 -99t113 -265q0 -117 -41 -189t-137 -125q98 -31 149 -123t51 -208q0 -186 -123 -306t-317 -118q-141 0 -297 79v218q158 -106 311 -107q102 0 164 60t62 166t-78 172t-221 59v184q137 0 207 53q70 54 69 150q0 96 -65 152q-66 56 -174 56t-240 -59
v191q122 59 288 59z" />
    <glyph glyph-name="four" unicode="4" 
d="M614 639v397h-4l-319 -397h323zM815 1415v-776h150v-180h-150v-459h-201v459h-591v92l706 864h86z" />
    <glyph glyph-name="five" unicode="5" 
d="M827 1397v-180h-438v-351q231 14 370 -112q138 -127 138 -324q0 -196 -129 -322q-128 -126 -312 -126t-354 86v206q152 -102 288 -102t222 75q84 75 84 177q0 143 -135 221t-354 25v727h620z" />
    <glyph glyph-name="six" unicode="6" 
d="M519 172q109 0 171 64t62 160t-66 158t-166 62q-63 0 -109 -15t-112 -58q-37 -163 37 -267t183 -104zM561 807q168 0 280 -117q111 -117 111 -289t-122 -296t-289 -123q-201 0 -326 137t-125 358q0 266 146 512q145 246 413 426l121 -153q-150 -86 -268 -226t-160 -286
q111 57 219 57z" />
    <glyph glyph-name="seven" unicode="7" 
d="M100 1206v191h904l-633 -1415l-178 77l512 1147h-605z" />
    <glyph glyph-name="eight" unicode="8" 
d="M758 395q0 95 -68 157t-178 62t-178 -61t-68 -159t70 -160t182 -62t176 64t64 159zM737 1017q0 87 -60 147q-59 60 -157 60t-160 -56t-61 -146q0 -90 66 -154q67 -64 155 -63q88 0 153 62q64 63 64 150zM958 377q0 -168 -128 -282q-128 -113 -316 -113t-318 114t-130 283
q0 217 198 334q-166 121 -166 297t123 290t302 115q179 0 297 -116q118 -115 118 -293t-174 -293q94 -49 144 -138t50 -198z" />
    <glyph glyph-name="nine" unicode="9" 
d="M502 1225q-98 -1 -163 -63t-65 -155t70 -158t172 -65t211 76q10 49 10 113q0 102 -68 177q-69 75 -167 75zM469 594q-166 0 -281 119q-114 119 -114 285t120 292q120 125 310 125t314 -144q126 -144 126 -382q0 -237 -158 -497t-403 -410l-123 147q174 113 286 252
t140 272q-98 -59 -217 -59z" />
    <glyph glyph-name="colon" unicode=":" horiz-adv-x="448" 
d="M223 227q51 0 87 -36t36 -87t-36 -87q-36 -35 -87 -35t-87 36t-36 86q0 51 36 87t87 36zM223 938q51 0 87 -36t36 -87t-36 -87t-87 -36t-87 36t-36 87t36 87t87 36z" />
    <glyph glyph-name="semicolon" unicode=";" horiz-adv-x="448" 
d="M346 815q0 -51 -36 -87t-87 -36t-87 36t-36 87t36 87t87 36t87 -36t36 -87zM98 148q0 54 35 88t92 32q57 0 95 -55t38 -153t-60 -180q-60 -83 -173 -116v39q57 49 71 97t11 123q-49 7 -79 39t-30 86z" />
    <glyph glyph-name="less" unicode="&#x3c;" horiz-adv-x="1196" 
d="M113 641v168l970 414v-179l-770 -319l770 -319v-179z" />
    <glyph glyph-name="equal" unicode="=" horiz-adv-x="1196" 
d="M115 584h966v-168h-966v168zM115 1030h966v-168h-966v168z" />
    <glyph glyph-name="greater" unicode="&#x3e;" horiz-adv-x="1196" 
d="M1083 641l-970 -414v179l770 319l-770 319v179l970 -414v-168z" />
    <glyph glyph-name="question" unicode="?" horiz-adv-x="681" 
d="M315 227q51 0 87 -36t36 -87t-36 -87q-36 -35 -87 -35t-87 36t-35 86q0 51 35 87q36 36 87 36zM594 1124q0 -108 -52 -224t-114 -199t-107 -178q-46 -95 -36 -165q-121 59 -121 189q0 92 57 189q57 96 115 188t57 162q0 70 -37 107q-37 38 -98 38q-22 0 -90 -12l96 196
q166 2 248 -90q82 -93 82 -201z" />
    <glyph glyph-name="at" unicode="@" horiz-adv-x="2068" 
d="M678 436q0 -131 61 -211t160 -80q133 0 245 157t111 345q0 133 -62 212t-169 79q-134 0 -240 -154t-106 -348zM111 469q0 291 141 547q76 137 187 241q112 104 283 170t378 66q374 0 616 -220t242 -560q0 -178 -85 -345q-85 -168 -224 -270t-289 -102q-199 0 -199 168
q-143 -166 -302 -166t-263 128t-104 325q0 241 162 437t354 196q194 0 305 -185l35 156h180l-168 -772q-27 -123 65 -123q35 0 95 36q164 98 240 277q48 113 48 242q0 272 -203 452q-204 180 -513 181q-358 0 -595 -245t-237 -614t227 -571t637 -201q246 0 426 82t275 219
h184q-272 -449 -887 -448q-471 0 -741 240t-270 659z" />
    <glyph glyph-name="A" unicode="A" horiz-adv-x="1366" 
d="M668 1098l-209 -506h434zM741 1405l625 -1405h-205l-186 412h-594l-176 -412h-205l600 1405h141z" />
    <glyph glyph-name="B" unicode="B" horiz-adv-x="1153" 
d="M354 618v-438h252q162 0 231 65t69 159t-79 154q-78 60 -231 60h-242zM354 1217v-418h133q295 0 295 223q0 195 -243 195h-185zM154 0v1397h405q211 1 321 -105t109 -252q0 -213 -213 -299v-4q158 -29 247 -126t89 -243t-119 -256q-119 -112 -360 -112h-479z" />
    <glyph glyph-name="C" unicode="C" horiz-adv-x="1449" 
d="M305 692q0 -232 157 -379q156 -147 404 -147t492 158v-220q-236 -123 -506 -122q-186 0 -337 66t-237 172q-180 218 -180 458q0 319 216 528t550 209q205 0 479 -115v-215q-249 145 -485 145t-394 -152q-158 -154 -159 -386z" />
    <glyph glyph-name="D" unicode="D" horiz-adv-x="1536" 
d="M356 1217v-1037h320q129 0 231 38t162 94q59 56 99 130q67 124 67 256q0 226 -145 372t-424 147h-310zM156 0v1397h542q186 -1 332 -63t234 -164q178 -206 178 -480t-205 -482t-537 -208h-544z" />
    <glyph glyph-name="E" unicode="E" 
d="M946 1397v-180h-592v-422h572v-181h-572v-434h611v-180h-811v1397h792z" />
    <glyph glyph-name="F" unicode="F" horiz-adv-x="960" 
d="M901 1397v-180h-545v-388h545v-180h-545v-649h-200v1397h745z" />
    <glyph glyph-name="G" unicode="G" horiz-adv-x="1515" 
d="M1378 688v-592q-260 -115 -532 -114q-322 0 -533 200t-211 509q0 308 215 516t535 208q123 -1 228 -25t270 -94v-202q-250 137 -490 137t-395 -154q-156 -154 -156 -384q0 -231 159 -379t406 -148q129 0 304 55v287h-269v180h469z" />
    <glyph glyph-name="H" unicode="H" horiz-adv-x="1492" 
d="M1337 1397v-1397h-200v608h-783v-608h-200v1397h200v-609h783v609h200z" />
    <glyph glyph-name="I" unicode="I" horiz-adv-x="512" 
d="M356 1397v-1397h-200v1397h200z" />
    <glyph glyph-name="J" unicode="J" horiz-adv-x="512" 
d="M356 1397v-1413q0 -209 -92 -332t-293 -123q-20 0 -61 4l-37 186h51q150 0 191 71t41 253v1354h200z" />
    <glyph glyph-name="K" unicode="K" horiz-adv-x="1343" 
d="M354 0h-200v1397h200v-639l588 639h250l-608 -662l757 -735h-276l-711 690v-690z" />
    <glyph glyph-name="L" unicode="L" horiz-adv-x="1003" 
d="M352 1397v-1217h631v-180h-831v1397h200z" />
    <glyph glyph-name="M" unicode="M" horiz-adv-x="1599" 
d="M1452 1397v-1397h-201v1087h-4l-430 -540h-33l-430 540h-4v-1087h-200v1397h188l463 -574l465 574h186z" />
    <glyph glyph-name="N" unicode="N" horiz-adv-x="1599" 
d="M1446 1397v-1397h-172l-934 1075v-1075h-188v1397h159l946 -1082v1082h189z" />
    <glyph glyph-name="O" unicode="O" horiz-adv-x="1685" 
d="M299 698q0 -229 155 -381q156 -151 390 -151t388 152t154 380q0 229 -154 381q-155 152 -389 152t-389 -152t-155 -381zM844 1415q334 0 542 -208t207 -506q0 -299 -207 -509q-208 -210 -544 -210t-543 210t-207 508q0 297 209 506t543 209z" />
    <glyph glyph-name="P" unicode="P" horiz-adv-x="1044" 
d="M344 1217v-433h227q113 0 180 58t67 156q0 96 -57 157q-56 61 -181 62h-236zM143 1397h437q220 0 332 -113t112 -288q0 -176 -120 -284t-351 -108h-209v-604h-201v1397z" />
    <glyph glyph-name="Q" unicode="Q" horiz-adv-x="1685" 
d="M854 1231q-121 0 -218 -36q-250 -93 -320 -361q-17 -70 -17 -138q0 -225 146 -378t413 -152q229 0 381 155t152 377t-153 378q-153 155 -384 155zM92 698q0 315 215 516t541 201t538 -207q211 -207 211 -514q1 -254 -163 -450t-418 -244v-2q190 -80 302 -102t220 4l6 -6
l-180 -179q-334 25 -686 285q-260 49 -423 244t-163 454z" />
    <glyph glyph-name="R" unicode="R" horiz-adv-x="1236" 
d="M358 1225v-439h129q274 0 275 228q0 211 -275 211h-129zM158 1397h352q213 1 336 -105t123 -286q-1 -121 -61 -209t-173 -133q59 -39 117 -105t91 -118q35 -51 97 -153t197 -288h-240l-184 287q-127 199 -205 259t-166 60h-84v-606h-200v1397z" />
    <glyph glyph-name="S" unicode="S" horiz-adv-x="937" 
d="M489 1235q-96 0 -158 -46q-63 -45 -63 -113t45 -122t112 -89q67 -36 145 -84t146 -98t112 -134t44 -189q0 -164 -110 -272t-281 -106q-219 0 -391 129v254q158 -203 369 -203q109 0 168 55t59 128t-62 139t-150 118t-178 108q-89 56 -152 141q-62 85 -62 191
q0 170 116 272t294 101q178 0 325 -98v-227q-154 145 -328 145z" />
    <glyph glyph-name="T" unicode="T" horiz-adv-x="1236" 
d="M1202 1397v-180h-483v-1217h-201v1217h-483v180h1167z" />
    <glyph glyph-name="U" unicode="U" horiz-adv-x="1449" 
d="M1327 1397v-848q0 -264 -158 -416t-462 -151q-242 0 -412 139t-170 407v869h201v-826q0 -117 18 -178t66 -108q120 -119 318 -119t310 113q88 88 88 305v813h201z" />
    <glyph glyph-name="V" unicode="V" horiz-adv-x="1236" 
d="M1237 1397l-592 -1409h-41l-604 1409h201l420 -981l417 981h199z" />
    <glyph glyph-name="W" unicode="W" horiz-adv-x="2134" 
d="M2132 1397l-567 -1409h-39l-459 1142l-463 -1142h-39l-565 1409h201l385 -963l387 963h190l389 -963l381 963h199z" />
    <glyph glyph-name="X" unicode="X" horiz-adv-x="1449" 
d="M1407 1397l-557 -674l596 -723h-242l-475 578l-481 -578h-244l602 723l-559 674h244l438 -533l436 533h242z" />
    <glyph glyph-name="Y" unicode="Y" horiz-adv-x="1236" 
d="M719 0h-201v739l-518 658h242l374 -482l379 482h242l-518 -660v-737z" />
    <glyph glyph-name="Z" unicode="Z" horiz-adv-x="1323" 
d="M88 1217v180h1204l-889 -1217h889v-180h-1259l889 1217h-834z" />
    <glyph glyph-name="bracketleft" unicode="[" horiz-adv-x="681" 
d="M653 1397v-164h-280v-1522h280v-164h-477v1850h477z" />
    <glyph glyph-name="backslash" unicode="\" horiz-adv-x="575" 
d="M561 -18h-143l-402 1433h144z" />
    <glyph glyph-name="bracketright" unicode="]" horiz-adv-x="681" 
d="M29 -453v164h280v1522h-280v164h477v-1850h-477z" />
    <glyph glyph-name="asciicircum" unicode="^" horiz-adv-x="960" 
d="M238 596h-185l355 801h145l354 -801h-182l-246 598z" />
    <glyph glyph-name="underscore" unicode="_" 
d="M-12 -154h1048v-102h-1048v102z" />
    <glyph glyph-name="grave" unicode="`" horiz-adv-x="681" 
d="M328 1339l137 -301h-113l-229 301h205z" />
    <glyph glyph-name="a" unicode="a" horiz-adv-x="874" 
d="M380 110q68 0 148 76v269q-145 -49 -218 -95q-72 -46 -72 -112q0 -65 36 -102q38 -36 106 -36zM294 -18q-113 0 -177 66q-63 66 -63 170t74 163q75 59 239 117l161 57v49q0 162 -165 162t-291 -152v199q106 125 305 125q147 0 240 -77t94 -226v-473q1 -47 33 -47t98 49
v-111q-109 -72 -176 -71q-117 0 -140 94q-119 -94 -232 -94z" />
    <glyph glyph-name="b" unicode="b" 
d="M768 460q0 138 -71 226t-181 88t-213 -94v-498q94 -29 184 -28q123 0 202 84t79 222zM303 1397v-543q117 84 254 84q172 0 285 -130q112 -130 112 -346t-130 -348t-344 -132t-359 69v1346h182z" />
    <glyph glyph-name="c" unicode="c" horiz-adv-x="897" 
d="M548 770q-122 0 -200 -86t-78 -226t84 -222t209 -82t262 61v-180q-115 -53 -274 -53q-205 0 -336 129t-131 343t123 350q123 134 332 134q123 -1 266 -64v-194q-135 90 -257 90z" />
    <glyph glyph-name="d" unicode="d" horiz-adv-x="1044" 
d="M741 154v585q-86 35 -170 35q-133 0 -214 -88t-81 -231q0 -301 281 -301h184zM924 1397v-1397h-387q-205 0 -326 130t-121 341t129 339t330 128q90 0 192 -37v496h183z" />
    <glyph glyph-name="e" unicode="e" horiz-adv-x="980" 
d="M518 780q-209 0 -248 -227h463q-4 103 -61 165t-154 62zM84 475q0 205 120 334t309 129t295 -128t105 -378h-647q43 -276 309 -276q152 -1 322 110v-176q-164 -108 -368 -108q-205 0 -325 144t-120 349z" />
    <glyph glyph-name="f" unicode="f" horiz-adv-x="512" 
d="M524 1235q-106 0 -150 -57t-44 -170v-88h166v-164h-166v-756h-183v756h-129v164h129v67q0 127 29 204t88 136q129 129 342 70v-178q-41 16 -82 16z" />
    <glyph glyph-name="g" unicode="g" horiz-adv-x="874" 
d="M682 -198q0 58 -54 94q-87 58 -247 59q-93 0 -151 -39t-58 -100q0 -141 256 -142q122 0 188 35t66 93zM606 595q0 71 -53 119t-127 48t-127 -49t-53 -121t51 -118t131 -46t129 48t49 119zM82 602q0 147 107 233q108 85 294 85h379v-142h-188q96 -96 96 -200
q0 -52 -26 -112t-60 -95q-51 -55 -147 -77t-161 -37t-65 -60q0 -37 67 -64t214 -55q266 -53 266 -256q0 -137 -115 -215t-310 -78t-314 79t-119 190q0 110 56 172t175 91q-92 57 -92 109q0 103 146 139v4q-203 87 -203 289z" />
    <glyph glyph-name="h" unicode="h" 
d="M307 1397v-598h4q111 139 263 139t239 -96q86 -96 86 -279v-563h-182v569q0 103 -49 163t-131 61q-111 0 -230 -134v-659h-182v1397h182z" />
    <glyph glyph-name="i" unicode="i" horiz-adv-x="448" 
d="M334 1198q0 -45 -32 -77q-32 -31 -77 -31t-77 32t-31 76q0 45 31 77q32 32 77 32t77 -32t32 -77zM315 920v-920h-182v920h182z" />
    <glyph glyph-name="j" unicode="j" horiz-adv-x="448" 
d="M326 1198q0 -45 -32 -77q-32 -31 -77 -31t-77 32t-31 76q0 45 31 77q32 32 77 32t77 -32t32 -77zM307 920v-1041q0 -141 -44 -220t-138 -130l-137 135q137 55 137 201v1055h182z" />
    <glyph glyph-name="k" unicode="k" horiz-adv-x="980" 
d="M309 1397v-1397h-182v1397h182zM942 920l-393 -451l475 -469h-246l-461 469l408 451h217z" />
    <glyph glyph-name="l" unicode="l" horiz-adv-x="448" 
d="M315 1397v-1397h-182v1397h182z" />
    <glyph glyph-name="m" unicode="m" horiz-adv-x="1579" 
d="M121 920h182v-121q139 139 268 139q180 0 275 -166q146 166 296 166t233 -98t83 -262v-578h-182v569q0 99 -54 157t-140 59t-201 -117v-668h-183v571q0 105 -47 159t-118 54t-123 -26t-107 -90v-668h-182v920z" />
    <glyph glyph-name="n" unicode="n" 
d="M307 920v-121h4q111 139 261 139t239 -95q88 -95 88 -276v-567h-182v569q0 103 -49 163t-131 61q-111 0 -230 -134v-659h-182v920h182z" />
    <glyph glyph-name="o" unicode="o" horiz-adv-x="1130" 
d="M561 774q-133 0 -217 -86t-84 -225t82 -229t221 -89q139 0 223 86q84 85 84 227t-88 229t-221 87zM565 938q211 0 351 -132t140 -343t-137 -346q-139 -135 -355 -135t-353 137t-137 343t140 341t351 135z" />
    <glyph glyph-name="p" unicode="p" 
d="M299 756v-570q86 -41 172 -41q127 0 210 88q83 89 83 225t-85 217t-214 81h-166zM299 -471h-182v1391h315q252 0 385 -120t133 -337t-131 -349t-336 -132q-84 0 -184 41v-494z" />
    <glyph glyph-name="q" unicode="q" 
d="M725 756h-166q-121 0 -210 -78t-89 -218t83 -232t210 -93q86 0 172 41v580zM725 -471v485q-109 -33 -184 -32q-205 0 -336 132t-131 339q0 118 43 206q43 89 95 140t145 86t214 35h336v-1391h-182z" />
    <glyph glyph-name="r" unicode="r" horiz-adv-x="811" 
d="M141 920h183v-211h4q131 229 266 229q106 0 219 -107l-96 -157q-94 90 -179 90t-150 -82t-64 -201v-481h-183v920z" />
    <glyph glyph-name="s" unicode="s" horiz-adv-x="788" 
d="M397 778q-55 0 -88 -24t-33 -57q0 -35 50 -75t174 -112q114 -76 160 -132t47 -126q0 -121 -86 -196q-86 -74 -231 -74t-306 84v196q176 -121 301 -121q59 4 97 31t38 71t-67 91q-68 47 -148 87q-79 39 -147 111t-68 156q0 118 82 184t216 66t276 -76v-180
q-145 96 -267 96z" />
    <glyph glyph-name="t" unicode="t" horiz-adv-x="681" 
d="M342 920h291v-164h-291v-471q0 -74 41 -107t90 -33q96 0 207 68v-170q-112 -61 -238 -61t-204 80t-78 208v486h-160v20l342 334v-190z" />
    <glyph glyph-name="u" unicode="u" 
d="M895 0h-182v117q-57 -61 -131 -99t-142 -36q-143 0 -230 97t-87 269v572h182v-584q0 -203 189 -203q127 0 219 129v658h182v-920z" />
    <glyph glyph-name="v" unicode="v" horiz-adv-x="897" 
d="M422 -18l-416 938h199l248 -566l241 566h195l-406 -938h-61z" />
    <glyph glyph-name="w" unicode="w" horiz-adv-x="1472" 
d="M805 920l233 -558l240 558h195l-406 -938h-57l-273 643l-270 -643h-57l-410 938h195l241 -558l234 558h135z" />
    <glyph glyph-name="x" unicode="x" 
d="M997 920l-379 -453l406 -467h-233l-289 330l-273 -330h-229l387 467l-387 453h229l273 -316l262 316h233z" />
    <glyph glyph-name="y" unicode="y" horiz-adv-x="897" 
d="M897 920l-651 -1391h-203l313 668l-356 723h207l248 -519l237 519h205z" />
    <glyph glyph-name="z" unicode="z" horiz-adv-x="854" 
d="M829 164v-164h-806l487 756h-467v164h784l-489 -756h491z" />
    <glyph glyph-name="braceleft" unicode="{" horiz-adv-x="681" 
d="M57 449v163q119 0 163 82t44 252v180q0 186 66 276t225 89h80v-156h-31q-106 0 -139 -39t-33 -168v-147q0 -205 -46 -303t-163 -148q117 -49 163 -147t46 -303v-148q0 -129 33 -168t139 -38h31v-156h-80q-159 0 -225 89t-66 275v181q0 170 -44 252t-163 82z" />
    <glyph glyph-name="bar" unicode="|" horiz-adv-x="532" 
d="M188 -471v1868h156v-1868h-156z" />
    <glyph glyph-name="braceright" unicode="}" horiz-adv-x="681" 
d="M625 612v-163q-119 0 -163 -82t-44 -252v-181q0 -186 -66 -275t-225 -89h-80v156h31q106 0 139 38t33 168v148q0 205 46 303t163 147q-117 50 -163 148t-46 303v147q0 129 -33 168t-139 39h-31v156h80q159 0 225 -89t66 -276v-180q0 -170 44 -252t163 -82z" />
    <glyph glyph-name="asciitilde" unicode="~" horiz-adv-x="1196" 
d="M860 551q119 0 287 137v-170q-154 -131 -299 -131q-84 0 -258 78t-248 78q-113 0 -291 -137v169q156 131 305 132q86 0 258 -78t246 -78z" />
    <glyph glyph-name="currency" unicode="&#xa4;" horiz-adv-x="1130" 
d="M565 958q-106 0 -183 -76t-77 -184t77 -184t183 -76t184 76q77 76 77 184t-77 185q-78 75 -184 75zM566 274q-130 0 -236 72l-137 -137l-117 117l137 137q-72 102 -72 233t72 238l-137 137l117 117l137 -137q100 71 231 71t240 -71l137 137l117 -117l-137 -137
q72 -98 72 -234t-72 -237l137 -137l-117 -117l-137 137q-105 -72 -235 -72z" />
    <glyph glyph-name="brokenbar" unicode="&#xa6;" horiz-adv-x="532" 
d="M188 700v697h156v-697h-156zM188 -471v831h156v-831h-156z" />
    <glyph glyph-name="section" unicode="&#xa7;" horiz-adv-x="831" 
d="M221 649q0 -120 96 -237q33 -39 107 -115t106 -113q76 76 76 165t-43 155t-144 158t-132 124q-66 -66 -66 -137zM307 1141q0 -70 47 -141t115 -133q67 -62 135 -130t115 -162t47 -200q0 -158 -152 -309q72 -106 72 -234t-94 -215q-94 -88 -232 -88q-98 0 -164 53t-67 133
q0 51 34 87t78 36q43 0 71 -28t28 -68q0 -2 -7 -30t2 -40t56 -12t91 44t44 102q0 113 -126 243q-126 129 -196 214q-140 168 -139 341q1 174 136 297q-117 202 8 395q33 51 97 85t160 34q95 0 163 -49t67 -125q0 -49 -30 -81t-71 -32q-42 0 -65 26q-22 26 -22 54t-2 42
q-5 34 -64 34t-97 -36t-38 -107z" />
    <glyph glyph-name="copyright" unicode="&#xa9;" horiz-adv-x="1515" 
d="M1386 736q0 262 -184 446t-445 184t-445 -183t-185 -445q0 -262 184 -447q185 -185 445 -185t445 184t185 446zM1511 737q0 -313 -221 -534t-534 -221t-534 221q-220 221 -220 534t220 533t534 221q314 -1 534 -221q221 -220 221 -533zM734 305q-162 0 -267 119
q-105 118 -105 314t111 309t293 112q131 0 220 -61t122 -174l-119 -29q-61 154 -233 154q-117 0 -187 -88q-69 -89 -69 -233t68 -225t174 -81q104 0 170 52t87 140l123 -36q-31 -131 -129 -202q-97 -71 -259 -71z" />
    <glyph glyph-name="guillemotleft" unicode="&#xab;" horiz-adv-x="1003" 
d="M240 461l303 -461h-181l-301 461l301 461h181zM655 461l303 -461h-180l-301 461l301 461h180z" />
    <glyph glyph-name="logicalnot" unicode="&#xac;" horiz-adv-x="1196" 
d="M1081 258h-168v436h-800v168h968v-604z" />
    <glyph glyph-name="registered" unicode="&#xae;" horiz-adv-x="1515" 
d="M1511 737q0 -313 -221 -534t-534 -221t-534 221q-220 221 -220 534t220 533t534 221q314 -1 534 -221q221 -220 221 -533zM1386 736q0 262 -184 446t-445 184t-445 -183t-185 -445q0 -262 184 -447q185 -185 445 -185t445 184t185 446zM557 776h188q168 0 168 123
q0 55 -40 88t-105 33h-211v-244zM426 319v811h358q137 0 203 -66t66 -156q0 -88 -65 -153t-167 -71v-4q49 -16 90 -64t99 -139l98 -158h-160l-71 127q-76 138 -121 178t-121 40h-78v-345h-131z" />
    <glyph glyph-name="degree" unicode="&#xb0;" horiz-adv-x="811" 
d="M403 1491q115 0 196 -81t81 -196q0 -116 -81 -196t-196 -80t-195 81t-81 195q1 114 81 196q80 81 195 81zM403 1382q-71 0 -119 -48t-48 -120t49 -120t119 -50q70 0 120 50q49 50 49 120t-49 119t-121 49z" />
    <glyph glyph-name="plusminus" unicode="&#xb1;" horiz-adv-x="1196" 
d="M514 1206h168v-399h399v-168h-399v-399h-168v399h-399v168h399v399zM115 168h966v-168h-966v168z" />
    <glyph glyph-name="mu" unicode="&#xb5;" horiz-adv-x="1130" 
d="M961 920v-920h-168v109h-5q-72 -127 -210 -127t-213 110h-5v-444h-182v1272h182v-508q0 -143 56 -218t152 -75q97 0 154 76q56 76 56 213v512h183z" />
    <glyph glyph-name="mu" unicode="&#x3bc;" horiz-adv-x="1130" 
d="M961 920v-920h-168v109h-5q-72 -127 -210 -127t-213 110h-5v-444h-182v1272h182v-508q0 -143 56 -218t152 -75q97 0 154 76q56 76 56 213v512h183z" />
    <glyph glyph-name="paragraph" unicode="&#xb6;" horiz-adv-x="1110" 
d="M406 -408v1045q-188 10 -296 122q-108 113 -108 303t123 298t348 106h633v-163h-143v-1711h-170v1711h-224v-1711h-163z" />
    <glyph glyph-name="periodcentered" unicode="&#xb7;" horiz-adv-x="532" 
d="M266 829q51 1 87 -35t36 -87t-36 -87t-87 -36t-87 36t-36 87t36 87t87 35z" />
    <glyph glyph-name="periodcentered" unicode="&#x2219;" horiz-adv-x="532" 
d="M266 829q51 1 87 -35t36 -87t-36 -87t-87 -36t-87 36t-36 87t36 87t87 35z" />
    <glyph glyph-name="guillemotright" unicode="&#xbb;" horiz-adv-x="1003" 
d="M348 461l-303 461h180l301 -461l-301 -461h-180zM764 461l-303 461h180l301 -461l-301 -461h-180z" />
    <glyph glyph-name="afii10023" unicode="&#x401;" 
d="M713 1765q41 -1 67 -27t27 -67q0 -41 -28 -69q-27 -28 -67 -27q-40 0 -68 28q-28 27 -28 67t28 68t69 27zM332 1765q42 -1 68 -27t26 -67t-28 -69t-68 -27q-40 0 -67 28q-27 27 -27 67t27 68q28 27 69 27zM946 1397v-180h-592v-422h572v-181h-572v-434h611v-180h-811
v1397h792z" />
    <glyph glyph-name="afii10051" unicode="&#x402;" horiz-adv-x="1521" 
d="M1202 1397v-180h-483v-476q41 70 134 125t202 56q176 0 295 -121t118 -303q0 -226 -144 -362t-347 -136h-49v164h69q109 0 190 91t81 219t-72 198t-192 70t-203 -83q-82 -82 -82 -210v-449h-201v1217h-483v180h1167z" />
    <glyph glyph-name="afii10052" unicode="&#x403;" horiz-adv-x="970" 
d="M602 1864h248l-277 -363h-135zM946 1397v-180h-592v-1217h-200v1397h792z" />
    <glyph glyph-name="afii10053" unicode="&#x404;" horiz-adv-x="1449" 
d="M1028 795v-181h-721q29 -204 181 -326t386 -122q236 0 480 158v-220q-236 -123 -506 -122q-186 0 -337 66t-238 172q-179 216 -179 458q0 319 216 528t550 209q205 0 479 -115v-215q-250 145 -472 145q-223 0 -373 -120q-150 -122 -185 -315h719z" />
    <glyph glyph-name="afii10054" unicode="&#x405;" horiz-adv-x="937" 
d="M489 1235q-96 0 -158 -46q-63 -45 -63 -113t45 -122t112 -89q67 -36 145 -84t146 -98t112 -134t44 -189q0 -164 -110 -272t-281 -106q-219 0 -391 129v254q158 -203 369 -203q109 0 168 55t59 128t-62 139t-150 118t-178 108q-89 56 -152 141q-62 85 -62 191
q0 170 116 272t294 101q178 0 325 -98v-227q-154 145 -328 145z" />
    <glyph glyph-name="afii10055" unicode="&#x406;" horiz-adv-x="512" 
d="M147 1659q0 45 32 75t78 31q46 -1 76 -31q29 -30 29 -75t-30 -77t-76 -32q-45 0 -77 32t-32 77zM356 1397v-1397h-200v1397h200z" />
    <glyph glyph-name="afii10056" unicode="&#x407;" horiz-adv-x="512" 
d="M442 1763q41 1 68 -27t27 -68t-28 -68t-68 -27q-39 0 -67 29q-28 30 -28 68t28 66t68 27zM61 1763q41 1 68 -27t27 -68t-28 -68t-68 -27q-40 0 -68 29q-28 30 -27 68q-1 38 27 66t69 27zM356 1397v-1397h-200v1397h200z" />
    <glyph glyph-name="afii10057" unicode="&#x408;" horiz-adv-x="512" 
d="M356 1397v-1413q0 -209 -92 -332t-293 -123q-20 0 -61 4l-37 186h51q150 0 191 71t41 253v1354h200z" />
    <glyph glyph-name="afii10058" unicode="&#x409;" horiz-adv-x="1851" 
d="M1339 629h-254l201 -449h53q127 0 192 64t65 158q0 95 -72 161t-185 66zM1802 408q0 -168 -118 -280t-318 -126v-2h-205l-80 180v2l-413 951l-463 -1133h-205l600 1405h141l265 -596h301q233 2 364 -116t131 -285z" />
    <glyph glyph-name="afii10059" unicode="&#x40a;" horiz-adv-x="2113" 
d="M1337 608v-428h258q127 0 192 64t65 157q0 94 -71 151q-71 56 -186 56h-258zM1569 0h-432v608h-783v-608h-200v1397h200v-609h783v609h200v-609h226q235 0 365 -108t130 -280t-133 -286t-356 -114z" />
    <glyph glyph-name="afii10060" unicode="&#x40b;" horiz-adv-x="1472" 
d="M518 0v1217h-483v180h1184v-180h-500v-326h272q207 0 318 -109t110 -311v-471h-200v467q0 127 -68 185t-174 59h-258v-711h-201z" />
    <glyph glyph-name="afii10061" unicode="&#x40c;" horiz-adv-x="1343" 
d="M154 1397h200v-568h58q120 -1 194 51t138 216t154 232q89 69 241 69h30v-180q-127 1 -177 -47t-87 -152t-92 -176q-55 -70 -111 -97q166 -78 304 -319l241 -426h-227l-217 377q-168 289 -391 289h-58v-666h-200v1397zM649 1800h248l-276 -362h-136z" />
    <glyph glyph-name="afii10062" unicode="&#x40e;" horiz-adv-x="1347" 
d="M469 -154q47 0 101 44t61 110l-613 1397h201l502 -1168l412 1168h196l-520 -1397q-63 -168 -145 -243t-192 -75t-187 50v180q63 -66 184 -66zM725 1819h248l-277 -363h-135z" />
    <glyph glyph-name="afii10145" unicode="&#x40f;" horiz-adv-x="1607" 
d="M1337 1397v-1397h-456v-256h-201v256h-526v1397h200v-1217h783v1217h200z" />
    <glyph glyph-name="afii10017" unicode="&#x410;" horiz-adv-x="1366" 
d="M668 1098l-209 -506h434zM741 1405l625 -1405h-205l-186 412h-594l-176 -412h-205l600 1405h141z" />
    <glyph glyph-name="afii10018" unicode="&#x411;" horiz-adv-x="1202" 
d="M354 657v-477h308q122 0 196 69t74 169q0 240 -311 239h-267zM154 0v1397h890v-180h-690v-379h283q225 0 363 -113t138 -307t-138 -306t-363 -112h-483z" />
    <glyph glyph-name="afii10019" unicode="&#x412;" horiz-adv-x="1153" 
d="M354 618v-438h252q162 0 231 65t69 159t-79 154q-78 60 -231 60h-242zM354 1217v-418h133q295 0 295 223q0 195 -243 195h-185zM154 0v1397h405q211 1 321 -105t109 -252q0 -213 -213 -299v-4q158 -29 247 -126t89 -243t-119 -256q-119 -112 -360 -112h-479z" />
    <glyph glyph-name="afii10020" unicode="&#x413;" horiz-adv-x="970" 
d="M946 1397v-180h-592v-1217h-200v1397h792z" />
    <glyph glyph-name="afii10021" unicode="&#x414;" horiz-adv-x="1531" 
d="M750 1112l-328 -932h682zM1511 180v-436h-204v256h-1086v-256h-205v436h205l461 1225h141l484 -1225h204z" />
    <glyph glyph-name="afii10022" unicode="&#x415;" 
d="M946 1397v-180h-592v-422h572v-181h-572v-434h611v-180h-811v1397h792z" />
    <glyph glyph-name="afii10024" unicode="&#x416;" horiz-adv-x="2105" 
d="M942 829v568h201v-568q119 -1 193 51t140 216q64 164 153 232q89 69 241 69h31v-180q-127 1 -177 -47t-88 -152q-37 -104 -96 -176q-59 -70 -125 -101q89 -43 149 -92t122 -141l335 -508h-231l-272 426q-60 98 -162 169t-213 71v-666h-201v666q-111 0 -212 -71t-163 -169
l-272 -426h-232l336 508q61 92 121 141t150 92q-66 31 -125 102t-96 175t-87 151t-178 48v180h31q152 0 241 -69q89 -68 153 -232t139 -216t194 -51z" />
    <glyph glyph-name="afii10025" unicode="&#x417;" horiz-adv-x="1054" 
d="M965 383q-1 -193 -141 -297t-339 -104q-83 0 -193 20t-179 55v217q152 -102 351 -102t270 110q30 46 30 111q0 96 -80 161t-254 64h-207v179h262q113 1 191 71t78 163t-75 143t-194 51q-200 0 -360 -88v186q86 41 211 67t209 25q178 0 294 -89t115 -275q0 -123 -72 -213
t-177 -123q109 -33 185 -118t75 -214z" />
    <glyph glyph-name="afii10026" unicode="&#x418;" horiz-adv-x="1492" 
d="M1337 1397v-1397h-200v1026l-887 -1042h-96v1413h200v-1063l885 1063h98z" />
    <glyph glyph-name="afii10027" unicode="&#x419;" horiz-adv-x="1492" 
d="M807 1796h248l-277 -362h-135zM1337 1397v-1397h-200v1026l-887 -1042h-96v1413h200v-1063l885 1063h98z" />
    <glyph glyph-name="afii10028" unicode="&#x41a;" horiz-adv-x="1361" 
d="M154 1397h200v-568h58q120 -1 194 51t138 216t154 232q89 69 241 69h30v-180q-127 1 -177 -47t-87 -152t-92 -176q-55 -70 -111 -97q166 -78 304 -319l241 -426h-227l-217 377q-168 289 -391 289h-58v-666h-200v1397z" />
    <glyph glyph-name="afii10029" unicode="&#x41b;" horiz-adv-x="1366" 
d="M741 1405l625 -1405h-205l-493 1133l-463 -1133h-205l600 1405h141z" />
    <glyph glyph-name="afii10030" unicode="&#x41c;" horiz-adv-x="1599" 
d="M1452 1397v-1397h-201v1087h-4l-430 -540h-33l-430 540h-4v-1087h-200v1397h188l463 -574l465 574h186z" />
    <glyph glyph-name="afii10031" unicode="&#x41d;" horiz-adv-x="1492" 
d="M1337 1397v-1397h-200v608h-783v-608h-200v1397h200v-609h783v609h200z" />
    <glyph glyph-name="afii10032" unicode="&#x41e;" horiz-adv-x="1685" 
d="M299 698q0 -229 155 -381q156 -151 390 -151t388 152t154 380q0 229 -154 381q-155 152 -389 152t-389 -152t-155 -381zM844 1415q334 0 542 -208t207 -506q0 -299 -207 -509q-208 -210 -544 -210t-543 210t-207 508q0 297 209 506t543 209z" />
    <glyph glyph-name="afii10033" unicode="&#x41f;" horiz-adv-x="1492" 
d="M1337 1397v-1397h-200v1217h-783v-1217h-200v1397h1183z" />
    <glyph glyph-name="afii10034" unicode="&#x420;" horiz-adv-x="1044" 
d="M344 1217v-433h227q113 0 180 58t67 156q0 96 -57 157q-56 61 -181 62h-236zM143 1397h437q220 0 332 -113t112 -288q0 -176 -120 -284t-351 -108h-209v-604h-201v1397z" />
    <glyph glyph-name="afii10035" unicode="&#x421;" horiz-adv-x="1449" 
d="M305 692q0 -232 157 -379q156 -147 404 -147t492 158v-220q-236 -123 -506 -122q-186 0 -337 66t-237 172q-180 218 -180 458q0 319 216 528t550 209q205 0 479 -115v-215q-249 145 -485 145t-394 -152q-158 -154 -159 -386z" />
    <glyph glyph-name="afii10036" unicode="&#x422;" horiz-adv-x="1236" 
d="M1202 1397v-180h-483v-1217h-201v1217h-483v180h1167z" />
    <glyph glyph-name="afii10037" unicode="&#x423;" horiz-adv-x="1347" 
d="M451 -154q47 0 101 44t60 110l-612 1397h201l501 -1168l412 1168h197l-520 -1397q-63 -168 -145 -243t-192 -75t-188 50v180q63 -66 185 -66z" />
    <glyph glyph-name="afii10038" unicode="&#x424;" horiz-adv-x="1685" 
d="M299 700q0 -188 124 -286t318 -99v772q-195 1 -319 -99t-123 -288zM942 315q196 1 320 99t124 286t-124 288q-125 99 -320 99v-772zM741 1272v125h201v-125q279 0 465 -154t186 -415t-187 -417t-464 -155v-131h-201v131q-276 0 -462 156q-187 157 -187 417t185 414
t464 154z" />
    <glyph glyph-name="afii10039" unicode="&#x425;" horiz-adv-x="1449" 
d="M1407 1397l-557 -674l596 -723h-242l-475 578l-481 -578h-244l602 723l-559 674h244l438 -533l436 533h242z" />
    <glyph glyph-name="afii10040" unicode="&#x426;" horiz-adv-x="1607" 
d="M1337 1397v-1217h213v-436h-200v256h-1196v1397h200v-1217h783v1217h200z" />
    <glyph glyph-name="afii10041" unicode="&#x427;" horiz-adv-x="1245" 
d="M1090 1397v-1397h-201v512h-166q-286 0 -468 113q-95 59 -147 167t-53 255v350h201v-369q0 -205 134 -274q115 -60 327 -62h172v705h201z" />
    <glyph glyph-name="afii10042" unicode="&#x428;" horiz-adv-x="1886" 
d="M846 1397h201v-1217h485v1217h201v-1397h-1579v1397h200v-1217h486l6 -6v1223z" />
    <glyph glyph-name="afii10043" unicode="&#x429;" horiz-adv-x="1988" 
d="M846 1397h201v-1217h485v1217h201v-1217h206v-436h-200v256h-1585v1397h200v-1217h486l6 -6v1223z" />
    <glyph glyph-name="afii10044" unicode="&#x42a;" horiz-adv-x="1263" 
d="M465 629v-449h258q125 0 182 62t57 160q0 97 -64 162q-65 65 -175 65h-258zM696 0h-432v1227h-315v170h516v-588h225q232 0 356 -117t124 -290q0 -174 -127 -288q-126 -114 -347 -114z" />
    <glyph glyph-name="afii10045" unicode="&#x42b;" horiz-adv-x="1665" 
d="M354 629v-449h258q124 0 182 62t58 160q0 97 -65 162t-175 65h-258zM586 0h-432v1397h200v-588h226q231 0 355 -117t124 -290q0 -174 -126 -288t-347 -114zM1507 1397v-1397h-200v1397h200z" />
    <glyph glyph-name="afii10046" unicode="&#x42c;" horiz-adv-x="1142" 
d="M354 629v-449h258q124 0 182 62t58 160q0 97 -65 162t-175 65h-258zM586 0h-432v1397h200v-588h226q231 0 355 -117t124 -290q0 -174 -126 -288t-347 -114z" />
    <glyph glyph-name="afii10047" unicode="&#x42d;" horiz-adv-x="1449" 
d="M422 795h719q-35 193 -186 315t-373 121q-222 0 -471 -146v215q274 115 479 115q334 0 550 -209t216 -528q0 -242 -179 -458q-87 -105 -238 -172t-337 -66q-270 0 -506 122v224q250 -162 482 -162t385 123q152 123 180 325h-721v181z" />
    <glyph glyph-name="afii10048" unicode="&#x42e;" horiz-adv-x="2158" 
d="M772 698q0 -229 155 -381q155 -151 389 -151t390 152q154 152 154 380q0 229 -155 381t-389 152t-389 -152t-155 -381zM354 1397v-615h217q31 270 234 452t525 181q322 0 529 -208t207 -506q0 -299 -206 -509t-549 -210q-303 0 -503 178t-235 442h-219v-602h-200v1397
h200z" />
    <glyph glyph-name="afii10049" unicode="&#x42f;" horiz-adv-x="1236" 
d="M879 745v480h-209q-143 1 -219 -61t-76 -166t78 -178q78 -75 227 -75h199zM659 1397h420v-1397h-200v573h-56q-127 0 -218 -63t-197 -238l-168 -272h-240l199 311q133 211 256 301q-133 58 -210 144t-77 241q0 195 135 297t356 103z" />
    <glyph glyph-name="afii10065" unicode="&#x430;" horiz-adv-x="874" 
d="M380 110q68 0 148 76v269q-145 -49 -218 -95q-72 -46 -72 -112q0 -65 36 -102q38 -36 106 -36zM294 -18q-113 0 -177 66q-63 66 -63 170t74 163q75 59 239 117l161 57v49q0 162 -165 162t-291 -152v199q106 125 305 125q147 0 240 -77t94 -226v-473q1 -47 33 -47t98 49
v-111q-109 -72 -176 -71q-117 0 -140 94q-119 -94 -232 -94z" />
    <glyph glyph-name="afii10066" unicode="&#x431;" horiz-adv-x="1091" 
d="M268 466q0 -140 85 -226t204 -86t199 86t80 226q0 142 -82 228t-197 86t-202 -87t-87 -227zM555 -18q-359 0 -450 370q-24 98 -23 213q0 410 155 609t531 235l207 21l-17 -191l-188 -12q-113 -8 -195 -30q-81 -22 -155 -73q-152 -105 -152 -381q86 129 175 169t186 40
q169 0 281 -135t112 -343t-130 -350t-337 -142z" />
    <glyph glyph-name="afii10067" unicode="&#x432;" horiz-adv-x="897" 
d="M307 399v-235h166q158 0 158 119q-1 57 -59 87t-152 29h-113zM307 756v-236h137q164 0 164 133q0 51 -50 77t-114 26h-137zM125 0v920h348q147 0 235 -67t87 -177q0 -74 -39 -128t-97 -81q74 -33 116 -81t42 -144t-76 -168q-76 -74 -237 -74h-379z" />
    <glyph glyph-name="afii10068" unicode="&#x433;" horiz-adv-x="741" 
d="M315 756v-756h-182v920h586v-164h-404z" />
    <glyph glyph-name="afii10069" unicode="&#x434;" horiz-adv-x="1136" 
d="M788 164l-219 483l-223 -483h442zM1110 -207h-180v207h-729v-207h-181v371h138l372 774h103l346 -774h131v-371z" />
    <glyph glyph-name="afii10070" unicode="&#x435;" horiz-adv-x="980" 
d="M518 780q-209 0 -248 -227h463q-4 103 -61 165t-154 62zM84 475q0 205 120 334t309 129t295 -128t105 -378h-647q43 -276 309 -276q152 -1 322 110v-176q-164 -108 -368 -108q-205 0 -325 144t-120 349z" />
    <glyph glyph-name="afii10072" unicode="&#x436;" horiz-adv-x="1460" 
d="M639 539v381h182v-381h60q92 0 184 161l127 220h199l-152 -252q-80 -133 -166 -199q59 -27 103 -72t96 -137l149 -260h-221l-125 250q-72 145 -196 145h-58v-395h-182v395h-57q-123 0 -197 -145l-125 -250h-221l149 260q52 92 96 137t103 72q-86 66 -166 199l-151 252
h198l127 -220q92 -162 185 -161h59z" />
    <glyph glyph-name="afii10073" unicode="&#x437;" horiz-adv-x="798" 
d="M221 547q166 1 237 25t70 98q0 98 -163 98t-293 -80v162q47 36 139 62t164 26q154 0 256 -64t102 -174q0 -78 -54 -137t-128 -74q80 -29 141 -88t62 -145q0 -147 -115 -212t-283 -64q-74 0 -173 22t-138 64v182q53 -41 136 -70t145 -28q221 0 221 129q0 63 -65 95
t-156 32h-105v141z" />
    <glyph glyph-name="afii10074" unicode="&#x438;" horiz-adv-x="1075" 
d="M948 920v-920h-182v590l-530 -610h-103v940h182v-627l535 627h98z" />
    <glyph glyph-name="afii10075" unicode="&#x439;" horiz-adv-x="1075" 
d="M948 920v-920h-182v590l-530 -610h-103v940h182v-627l535 627h98zM616 1313h205l-229 -301h-113z" />
    <glyph glyph-name="afii10076" unicode="&#x43a;" horiz-adv-x="964" 
d="M309 920v-381h76q92 0 184 161l127 220h199l-152 -252q-80 -133 -165 -199q59 -27 102 -72t96 -137l150 -260h-221l-125 250q-72 145 -197 145h-74v-395h-182v920h182z" />
    <glyph glyph-name="afii10077" unicode="&#x43b;" horiz-adv-x="897" 
d="M428 920h68l393 -938h-195l-239 606l-250 -606h-199z" />
    <glyph glyph-name="afii10078" unicode="&#x43c;" horiz-adv-x="1204" 
d="M326 920l284 -568l271 568h184l65 -920h-172l-57 627l-291 -627l-311 633l-47 -633h-172l61 920h185z" />
    <glyph glyph-name="afii10079" unicode="&#x43d;" horiz-adv-x="1075" 
d="M948 920v-920h-182v393h-451v-393h-182v920h182v-363h451v363h182z" />
    <glyph glyph-name="afii10080" unicode="&#x43e;" horiz-adv-x="1130" 
d="M561 774q-133 0 -217 -86t-84 -225t82 -229t221 -89q139 0 223 86q84 85 84 227t-88 229t-221 87zM565 938q211 0 351 -132t140 -343t-137 -346q-139 -135 -355 -135t-353 137t-137 343t140 341t351 135z" />
    <glyph glyph-name="afii10081" unicode="&#x43f;" horiz-adv-x="1075" 
d="M948 920v-920h-182v756h-451v-756h-182v920h815z" />
    <glyph glyph-name="afii10082" unicode="&#x440;" 
d="M299 756v-570q86 -41 172 -41q127 0 210 88q83 89 83 225t-85 217t-214 81h-166zM299 -471h-182v1391h315q252 0 385 -120t133 -337t-131 -349t-336 -132q-84 0 -184 41v-494z" />
    <glyph glyph-name="afii10083" unicode="&#x441;" horiz-adv-x="897" 
d="M548 770q-122 0 -200 -86t-78 -226t84 -222t209 -82t262 61v-180q-115 -53 -274 -53q-205 0 -336 129t-131 343t123 350q123 134 332 134q123 -1 266 -64v-194q-135 90 -257 90z" />
    <glyph glyph-name="afii10084" unicode="&#x442;" horiz-adv-x="905" 
d="M543 756v-756h-183v756h-323v164h829v-164h-323z" />
    <glyph glyph-name="afii10085" unicode="&#x443;" horiz-adv-x="897" 
d="M897 920l-651 -1391h-203l313 668l-356 723h207l248 -519l237 519h205z" />
    <glyph glyph-name="afii10086" unicode="&#x444;" horiz-adv-x="1288" 
d="M256 461q0 -125 81 -219t216 -95v625q-133 0 -215 -93t-82 -218zM735 147q135 1 216 95t81 219t-82 218t-215 93v-625zM553 930v467h182v-467q195 0 339 -133t144 -329t-144 -337t-339 -141v-463h-182v463q-195 0 -339 141t-144 337t144 329t339 133z" />
    <glyph glyph-name="afii10087" unicode="&#x445;" 
d="M997 920l-379 -453l406 -467h-233l-289 330l-273 -330h-229l387 467l-387 453h229l273 -316l262 316h233z" />
    <glyph glyph-name="afii10088" unicode="&#x446;" horiz-adv-x="1163" 
d="M948 920v-756h180v-371h-180v207h-815v920h182v-756h451v756h182z" />
    <glyph glyph-name="afii10089" unicode="&#x447;" horiz-adv-x="970" 
d="M844 920v-920h-182v408q-70 -84 -261 -84q-342 0 -342 409v187h183v-232q0 -123 44 -162t150 -39q170 0 226 80v353h182z" />
    <glyph glyph-name="afii10090" unicode="&#x448;" horiz-adv-x="1495" 
d="M1354 920v-920h-1229v920h182v-756h340v756h182v-756h342v756h183z" />
    <glyph glyph-name="afii10091" unicode="&#x449;" horiz-adv-x="1587" 
d="M1354 920v-756h180v-371h-180v207h-1229v920h182v-756h340v756h182v-756h342v756h183z" />
    <glyph glyph-name="afii10092" unicode="&#x44a;" horiz-adv-x="935" 
d="M334 446v-282h166q188 0 188 145q0 137 -188 137h-166zM152 0v799h-191v121h373v-310h211q157 0 241 -92t84 -212t-84 -213t-241 -93h-393z" />
    <glyph glyph-name="afii10093" unicode="&#x44b;" horiz-adv-x="1288" 
d="M307 446v-282h164q190 0 191 145q0 137 -189 137h-166zM125 0v920h182v-310h211q158 0 242 -92t84 -212t-84 -213t-242 -93h-393zM1161 920v-920h-182v920h182z" />
    <glyph glyph-name="afii10094" unicode="&#x44c;" horiz-adv-x="911" 
d="M307 446v-282h162q193 0 193 145q0 137 -193 137h-162zM125 0v920h182v-310h211q158 0 242 -92t84 -212t-84 -213t-242 -93h-393z" />
    <glyph glyph-name="afii10095" unicode="&#x44d;" horiz-adv-x="897" 
d="M250 379v164h379q-23 104 -94 166q-72 61 -184 61t-247 -90v194q143 63 267 64q209 0 331 -134t123 -350q0 -216 -131 -344t-336 -128q-160 0 -274 53v180q139 -61 251 -61q113 0 193 59t103 166h-381z" />
    <glyph glyph-name="afii10096" unicode="&#x44e;" horiz-adv-x="1499" 
d="M940 774q-133 0 -217 -86t-84 -225t82 -229t221 -89q139 0 223 86q84 85 84 227t-88 229t-221 87zM307 920v-373h152q29 171 162 281t333 110t341 -132t141 -343t-138 -346t-344 -135q-204 0 -334 110t-159 291h-154v-383h-182v920h182z" />
    <glyph glyph-name="afii10097" unicode="&#x44f;" horiz-adv-x="976" 
d="M670 479v277h-160q-180 0 -180 -133q0 -57 45 -101t135 -43h160zM510 920h342v-920h-182v336h-52q-158 0 -249 -146l-121 -190h-215l135 197q88 131 176 172q-201 74 -201 264q0 127 111 207t256 80z" />
    <glyph glyph-name="afii10071" unicode="&#x451;" horiz-adv-x="980" 
d="M688 1286q41 0 68 -26q26 -26 26 -68q0 -41 -28 -69q-28 -27 -67 -27t-67 28t-28 67t28 67t68 28zM307 1286q41 0 68 -26t27 -68q0 -41 -28 -69q-28 -27 -68 -27t-68 28t-27 67q-1 39 27 67t69 28zM518 780q-209 0 -248 -227h463q-4 103 -61 165t-154 62zM84 475
q0 205 120 334t309 129t295 -128t105 -378h-647q43 -276 309 -276q152 -1 322 110v-176q-164 -108 -368 -108q-205 0 -325 144t-120 349z" />
    <glyph glyph-name="afii10099" unicode="&#x452;" horiz-adv-x="1034" 
d="M614 1270v-164h-297v-307h5q111 139 263 139t238 -96t86 -279v-672q0 -362 -334 -362h-118v164h69q127 0 164 48t37 185v643q0 103 -49 163t-131 61q-111 0 -230 -134v-659h-182v1106h-125v164h125v127h182v-127h297z" />
    <glyph glyph-name="afii10100" unicode="&#x453;" horiz-adv-x="741" 
d="M492 1321h198l-221 -289h-109zM315 756v-756h-182v920h586v-164h-404z" />
    <glyph glyph-name="afii10101" unicode="&#x454;" horiz-adv-x="897" 
d="M659 543v-164h-380q23 -106 103 -166q82 -59 194 -59t249 61v-180q-115 -53 -274 -53q-205 0 -336 129t-131 343t123 350q123 134 332 134q123 0 266 -64v-194q-135 90 -247 90t-183 -61q-72 -61 -94 -166h378z" />
    <glyph glyph-name="afii10102" unicode="&#x455;" horiz-adv-x="788" 
d="M397 778q-55 0 -88 -24t-33 -57q0 -35 50 -75t174 -112q114 -76 160 -132t47 -126q0 -121 -86 -196q-86 -74 -231 -74t-306 84v196q176 -121 301 -121q59 4 97 31t38 71t-67 91q-68 47 -148 87q-79 39 -147 111t-68 156q0 118 82 184t216 66t276 -76v-180
q-145 96 -267 96z" />
    <glyph glyph-name="afii10103" unicode="&#x456;" horiz-adv-x="448" 
d="M334 1198q0 -45 -32 -77q-32 -31 -77 -31t-77 32t-31 76q0 45 31 77q32 32 77 32t77 -32t32 -77zM315 920v-920h-182v920h182z" />
    <glyph glyph-name="afii10104" unicode="&#x457;" horiz-adv-x="448" 
d="M373 1208q41 0 67 -26t27 -68q0 -40 -28 -68q-27 -28 -67 -28t-68 28t-28 68t28 66q28 28 69 28zM78 1208q42 0 68 -26t26 -68q0 -40 -28 -68t-68 -28t-67 28t-27 68t27 67q28 27 69 27zM315 920v-920h-182v920h182z" />
    <glyph glyph-name="afii10105" unicode="&#x458;" horiz-adv-x="448" 
d="M326 1198q0 -45 -32 -77q-32 -31 -77 -31t-77 32t-31 76q0 45 31 77q32 32 77 32t77 -32t32 -77zM307 920v-1041q0 -141 -44 -220t-138 -130l-137 135q137 55 137 201v1055h182z" />
    <glyph glyph-name="afii10106" unicode="&#x459;" horiz-adv-x="1265" 
d="M866 395h-155l116 -250h39q178 0 178 131q0 119 -178 119zM905 559q150 0 238 -81t88 -206q0 -126 -88 -208t-254 -82h-195l-243 606l-246 -606h-199l422 938h68l161 -361h248z" />
    <glyph glyph-name="afii10107" unicode="&#x45a;" horiz-adv-x="1486" 
d="M948 393v-229h156q96 0 139 29t43 91t-43 86t-139 23h-156zM766 0v393h-451v-393h-182v920h182v-363h451v363h182v-363h201q147 0 233 -83t86 -190t-80 -196q-81 -88 -239 -88h-383z" />
    <glyph glyph-name="afii10108" unicode="&#x45b;" 
d="M717 1284v-164h-410v-321h4q111 139 263 139t239 -96q86 -96 86 -279v-563h-182v569q0 103 -49 163t-131 61q-111 0 -230 -134v-659h-182v1120h-125v164h125v113h182v-113h410z" />
    <glyph glyph-name="afii10109" unicode="&#x45c;" horiz-adv-x="974" 
d="M309 920v-381h76q92 0 184 161l127 220h199l-152 -252q-80 -133 -165 -199q59 -27 102 -72t96 -137l150 -260h-221l-125 250q-72 145 -197 145h-74v-395h-182v920h182zM502 1276h198l-221 -289h-108z" />
    <glyph glyph-name="afii10110" unicode="&#x45e;" horiz-adv-x="897" 
d="M473 1339h205l-229 -301h-113zM897 920l-651 -1391h-203l313 668l-356 723h207l248 -519l237 519h205z" />
    <glyph glyph-name="afii10193" unicode="&#x45f;" horiz-adv-x="1085" 
d="M465 -205v205h-332v920h182v-756h451v756h182v-920h-303v-205h-180z" />
    <glyph glyph-name="afii10050" unicode="&#x490;" horiz-adv-x="970" 
d="M946 1505v-288h-592v-1217h-200v1397h591v108h201z" />
    <glyph glyph-name="afii10098" unicode="&#x491;" horiz-adv-x="741" 
d="M315 756v-756h-182v920h404v86h182v-250h-404z" />
    <glyph glyph-name="endash" unicode="&#x2013;" 
d="M1042 584v-131h-1060v131h1060z" />
    <glyph glyph-name="emdash" unicode="&#x2014;" horiz-adv-x="2048" 
d="M2066 584v-131h-2084v131h2084z" />
    <glyph glyph-name="quoteleft" unicode="&#x2018;" horiz-adv-x="448" 
d="M227 911q-57 -1 -95 55t-38 154t60 180t174 115v-39q-58 -49 -72 -97t-10 -122q49 -6 79 -39q29 -33 29 -87t-35 -87t-92 -33z" />
    <glyph glyph-name="quoteright" unicode="&#x2019;" horiz-adv-x="448" 
d="M94 1295q0 54 35 87t92 33t95 -55q38 -54 38 -152t-60 -181t-173 -116v39q57 50 71 98t11 121q-49 6 -79 39t-30 87z" />
    <glyph glyph-name="quotesinglbase" unicode="&#x201a;" horiz-adv-x="448" 
d="M94 148q0 54 35 88t92 32q57 0 95 -55t38 -153t-60 -180q-60 -83 -173 -116v39q57 49 71 97t11 123q-49 7 -79 39t-30 86z" />
    <glyph glyph-name="quotedblleft" unicode="&#x201c;" horiz-adv-x="874" 
d="M344 1031q0 -54 -35 -87t-92 -33q-57 -1 -95 55t-38 154t60 180t173 115v-39q-57 -49 -71 -97t-10 -122q48 -6 78 -39t30 -87zM791 1031q0 -54 -35 -87t-92 -33q-58 -1 -96 55t-38 154t60 180t174 115v-39q-58 -49 -72 -97t-10 -122q49 -6 79 -39t30 -87z" />
    <glyph glyph-name="quotedblright" unicode="&#x201d;" horiz-adv-x="874" 
d="M84 1295q0 54 35 87t92 33t95 -55q38 -54 38 -152t-60 -181t-173 -116v39q57 50 71 98t11 121q-49 6 -79 39t-30 87zM530 1295q0 54 35 87t92 33t95 -55q38 -54 39 -152q-1 -98 -61 -181t-173 -116v39q57 50 71 98t11 121q-49 6 -79 39t-30 87z" />
    <glyph glyph-name="quotedblbase" unicode="&#x201e;" horiz-adv-x="874" 
d="M104 148q0 54 35 88t92 32q57 0 95 -55t39 -153q-1 -98 -61 -180q-60 -83 -173 -116v39q57 49 71 97t11 123q-49 7 -79 39t-30 86zM553 148q0 54 35 88t92 32q57 0 95 -55t38 -153t-60 -180q-60 -83 -173 -116v39q57 49 71 97t11 123q-49 7 -79 39t-30 86z" />
    <glyph glyph-name="dagger" unicode="&#x2020;" horiz-adv-x="1003" 
d="M510 1415q92 0 92 -192q0 -90 -28 -225q-28 -134 -31 -150q155 53 235 53q80 1 125 -23t45 -68t-41 -69t-105 -25t-261 54q65 -760 65 -914t-22 -241q-22 -86 -86 -86t-86 70t-21 295q0 225 70 876q-165 -53 -241 -53q-166 0 -165 88q0 96 150 96q109 0 256 -53
q-57 272 -58 373q1 194 107 194z" />
    <glyph glyph-name="daggerdbl" unicode="&#x2021;" horiz-adv-x="1003" 
d="M500 1415q100 0 100 -184q0 -82 -59 -338q164 57 268 57q139 0 139 -96q0 -43 -46 -66q-46 -22 -106 -22t-255 51q0 -47 16 -170t16 -173t-16 -174t-16 -175q47 17 130 35t135 18t97 -24t45 -66q0 -94 -143 -94q-111 0 -264 57q59 -215 59 -334q0 -188 -98 -188t-99 182
q0 117 60 340q-164 -57 -270 -57q-137 0 -138 94q0 45 46 68q46 22 121 22t241 -51q-2 27 -19 176q-14 171 -14 197t16 150t17 167q-173 -51 -245 -51t-118 22q-45 23 -45 66q0 96 146 96q47 0 135 -19t129 -40q-23 71 -42 179t-19 176t22 118q23 51 74 51z" />
    <glyph glyph-name="bullet" unicode="&#x2022;" horiz-adv-x="724" 
d="M362 952q104 0 180 -74q74 -76 74 -180t-74 -179t-180 -75q-104 0 -179 75t-74 179q0 104 74 180q75 74 179 74z" />
    <glyph glyph-name="ellipsis" unicode="&#x2026;" horiz-adv-x="2048" 
d="M1708 227q51 0 87 -36t36 -87t-36 -87q-36 -35 -87 -35t-87 36t-36 86q0 51 36 87t87 36zM1024 227q51 0 87 -36t36 -87t-36 -87q-36 -35 -87 -35t-87 36t-36 86q0 51 36 87t87 36zM340 227q51 0 87 -36t36 -87t-36 -87q-36 -35 -87 -35t-87 36t-36 86q0 51 36 87t87 36z
" />
    <glyph glyph-name="perthousand" unicode="&#x2030;" horiz-adv-x="2068" 
d="M502 1099q0 67 -47 115t-114 48t-115 -48t-48 -116q0 -66 48 -113t115 -47t114 47t47 114zM339 1413q128 0 221 -92t93 -221t-93 -221q-93 -93 -221 -93t-220 92t-92 221q0 130 92 222t220 92zM988 455q-67 0 -115 -48t-48 -115t48 -114t115 -47t114 47t47 114t-47 115
t-114 48zM986 606q128 0 221 -92t93 -221t-93 -221t-221 -92t-220 91t-92 221t92 222t220 92zM1198 1415l-919 -1435h-154l919 1435h154zM1730 606q128 0 221 -92t93 -221t-93 -221t-221 -92t-221 91q-92 91 -92 221t92 222q93 92 221 92zM1732 131q68 0 114 47t46 114
t-46 115t-114 48q-67 0 -115 -48t-48 -115t48 -114t115 -47z" />
    <glyph glyph-name="guilsinglleft" unicode="&#x2039;" horiz-adv-x="641" 
d="M252 461l303 -461h-180l-301 461l301 461h180z" />
    <glyph glyph-name="guilsinglright" unicode="&#x203a;" horiz-adv-x="641" 
d="M389 461l-303 461h180l301 -461l-301 -461h-180z" />
    <glyph glyph-name="Euro" unicode="&#x20ac;" 
d="M686 1235q-264 0 -301 -313h489l-49 -152h-458v-135h413l-51 -152h-344q37 -322 301 -321q164 0 258 86v-197q-86 -68 -287 -67q-403 0 -469 499h-145l49 152h80q-2 19 -2 67t2 68h-129l49 152h94q68 494 471 493q189 0 287 -72v-192q-88 84 -258 84z" />
    <glyph glyph-name="afii61352" unicode="&#x2116;" horiz-adv-x="2228" 
d="M1636 299h529v-90h-529v90zM1894 936q115 0 196 -81t81 -196t-81 -195t-196 -81q-116 0 -196 81q-80 82 -80 196t80 195t196 81zM1894 827q-72 0 -120 -49t-48 -120q0 -72 50 -120t120 -48t119 50t49 120t-49 118q-49 49 -121 49zM1696 1442v-180h-121q-69 0 -99 -35
t-30 -119v-1108h-172l-934 1075v-1075h-188v1397h159l946 -1098v879q0 106 78 185t203 79h158z" />
    <glyph glyph-name="trademark" unicode="&#x2122;" horiz-adv-x="2048" 
d="M983 651v815h201l202 -651h5l196 651h197v-815h-125v684h-4l-205 -684h-123l-215 695h-4v-695h-125zM489 651v695h-264v120h666v-120h-266v-695h-136z" />
    <glyph glyph-name="sfthyphen" horiz-adv-x="1196" 
d="M115 807h966v-168h-966v168z" />
  </font>
</defs>
</svg>
